<svg width="30" height="19" viewBox="0 0 30 19" fill="none" xmlns="http://www.w3.org/2000/svg">
<path d="M23.6066 4.38263C22.7347 4.38263 21.9032 4.57254 21.1452 4.91569L19.3326 1.11364H21.866C22.1408 1.11364 22.3644 1.35538 22.3644 1.6525C22.3644 1.94962 22.1408 2.19135 21.866 2.19135H21.3254C21.0409 2.19135 20.8104 2.44066 20.8104 2.74817C20.8104 3.05568 21.0409 3.30499 21.3254 3.30499H21.866C22.7088 3.30499 23.3945 2.56368 23.3945 1.6525C23.3945 0.741314 22.7089 0 21.866 0H18.4877C18.3082 0 18.1415 0.101193 18.0479 0.266977C17.9545 0.432761 17.9476 0.639305 18.0299 0.811919L18.9312 2.70266H11.4977L10.7478 1.11364H11.9337C12.2182 1.11364 12.4488 0.864334 12.4488 0.556821C12.4488 0.249307 12.2182 0 11.9337 0H8.55541C8.27089 0 8.04035 0.249307 8.04035 0.556821C8.04035 0.864334 8.27089 1.11364 8.55541 1.11364H9.59129L10.5923 3.23461L9.41576 5.20524C8.51523 4.68071 7.48594 4.38263 6.39333 4.38263C2.86806 4.38263 0 7.48315 0 11.2943C0 15.1054 2.86806 18.206 6.39333 18.206C9.74519 18.206 12.5027 15.4028 12.7658 11.8511H14.2772L13.6901 13.9164H13.3521C13.0675 13.9164 12.837 14.1657 12.837 14.4732C12.837 14.7807 13.0675 15.03 13.3521 15.03H15.2063C15.4908 15.03 15.7213 14.7807 15.7213 14.4732C15.7213 14.1657 15.4908 13.9164 15.2063 13.9164H14.7677L15.4455 11.5321L19.7312 4.38055L20.2304 5.42759C18.4203 6.64948 17.2133 8.82219 17.2133 11.2943C17.2133 15.1054 20.0813 18.206 23.6067 18.206C27.1319 18.206 30 15.1054 30 11.2943C29.9999 7.48315 27.1319 4.38263 23.6066 4.38263ZM11.1336 4.38151L14.1332 10.7374H12.7658C12.6173 8.73399 11.6751 6.96902 10.2802 5.81076L11.1336 4.38151ZM11.7313 10.7374H7.33884L9.71917 6.75067C10.8323 7.70506 11.5885 9.12548 11.7313 10.7374ZM6.39333 17.0923C3.43599 17.0923 1.03012 14.4914 1.03012 11.2943C1.03012 8.09721 3.43599 5.49619 6.39333 5.49619C7.28019 5.49619 8.11671 5.73154 8.85442 6.1453L5.96054 10.9922C5.85828 11.1635 5.8508 11.3816 5.94104 11.5606C6.03121 11.7396 6.20475 11.851 6.39333 11.851H11.7313C11.4711 14.7878 9.17684 17.0923 6.39333 17.0923ZM15.0273 10.1816L12.0233 3.81623H18.8419L15.0273 10.1816ZM23.6066 17.0923C20.6493 17.0923 18.2433 14.4913 18.2433 11.2943C18.2433 9.25273 19.2252 7.45561 20.7045 6.42222L23.1488 11.5494C23.2402 11.7411 23.4203 11.8512 23.607 11.8512C23.6865 11.8512 23.7671 11.8312 23.8426 11.7892C24.0955 11.6483 24.1948 11.3125 24.0645 11.0391L21.6194 5.91047C22.2345 5.64423 22.9046 5.49612 23.6066 5.49612C26.5639 5.49612 28.9698 8.09714 28.9698 11.2942C28.9698 14.4914 26.5639 17.0923 23.6066 17.0923Z" fill="#676767"/>
</svg>
