<svg width="32" height="32" viewBox="0 0 32 32" fill="none" xmlns="http://www.w3.org/2000/svg">
<g clip-path="url(#clip0)">
<path d="M25.1804 11.3426C24.2504 11.3426 23.3635 11.53 22.5549 11.8685L20.6215 8.11717H23.3238C23.6169 8.11717 23.8554 8.35568 23.8554 8.64884C23.8554 8.942 23.6169 9.18051 23.3238 9.18051H22.7472C22.4437 9.18051 22.1978 9.42649 22.1978 9.72991C22.1978 10.0333 22.4437 10.2793 22.7472 10.2793H23.3238C24.2228 10.2793 24.9542 9.54787 24.9542 8.64884C24.9542 7.7498 24.2229 7.01837 23.3238 7.01837H19.7203C19.5287 7.01837 19.351 7.11822 19.2512 7.28179C19.1515 7.44536 19.1442 7.64915 19.2319 7.81947L20.1934 9.685H12.2642L11.4643 8.11717H12.7293C13.0328 8.11717 13.2787 7.87118 13.2787 7.56777C13.2787 7.26436 13.0328 7.01837 12.7293 7.01837H9.12579C8.8223 7.01837 8.57639 7.26436 8.57639 7.56777C8.57639 7.87118 8.8223 8.11717 9.12579 8.11717H10.2307L11.2985 10.2099L10.0435 12.1542C9.08294 11.6367 7.98502 11.3426 6.81956 11.3426C3.05927 11.3426 0 14.4018 0 18.1621C0 21.9224 3.05927 24.9816 6.81956 24.9816C10.3949 24.9816 13.3362 22.2158 13.6169 18.7115H15.229L14.6028 20.7492H14.2422C13.9387 20.7492 13.6928 20.9952 13.6928 21.2986C13.6928 21.602 13.9387 21.848 14.2422 21.848H16.2201C16.5235 21.848 16.7694 21.602 16.7694 21.2986C16.7694 20.9952 16.5235 20.7492 16.2201 20.7492H15.7523L16.4752 18.3968L21.0466 11.3405L21.5791 12.3736C19.6484 13.5792 18.3609 15.723 18.3609 18.1621C18.3609 21.9224 21.4201 24.9816 25.1805 24.9816C28.9408 24.9816 32.0001 21.9224 32.0001 18.1621C32 14.4018 28.9407 11.3426 25.1804 11.3426ZM11.8759 11.3415L15.0754 17.6127H13.6169C13.4585 15.6359 12.4535 13.8945 10.9656 12.7517L11.8759 11.3415ZM12.5134 17.6127H7.82811L10.3671 13.679C11.5545 14.6207 12.3611 16.0222 12.5134 17.6127ZM6.81956 23.8828C3.66507 23.8828 1.0988 21.3166 1.0988 18.1621C1.0988 15.0076 3.66507 12.4413 6.81956 12.4413C7.76555 12.4413 8.65785 12.6735 9.44473 13.0817L6.35792 17.8641C6.24885 18.0331 6.24087 18.2482 6.33712 18.4248C6.4333 18.6014 6.61841 18.7114 6.81956 18.7114H12.5134C12.2359 21.6091 9.78866 23.8828 6.81956 23.8828ZM16.0292 17.0642L12.8248 10.7837H20.0981L16.0292 17.0642ZM25.1804 23.8828C22.0259 23.8828 19.4596 21.3165 19.4596 18.1621C19.4596 16.1478 20.507 14.3746 22.0848 13.355L24.6921 18.4138C24.7896 18.603 24.9817 18.7115 25.1809 18.7115C25.2656 18.7115 25.3516 18.6918 25.4321 18.6504C25.7019 18.5114 25.8078 18.1801 25.6688 17.9103L23.0608 12.85C23.7168 12.5874 24.4316 12.4412 25.1804 12.4412C28.3349 12.4412 30.9012 15.0076 30.9012 18.162C30.9012 21.3166 28.3349 23.8828 25.1804 23.8828Z" fill="#8A8A8A"/>
</g>
<defs>
<clipPath id="clip0">
<rect width="32" height="32" fill="white"/>
</clipPath>
</defs>
</svg>
