<?xml version="1.0" encoding="utf-8"?>
<svg id="master-artboard" viewBox="0 0 329.10784912109375 245.06954956054688" version="1.1" xmlns="http://www.w3.org/2000/svg" x="0px" y="0px" style="enable-background:new 0 0 1400 980;" width="329.10784912109375px" height="245.06954956054688px"><rect id="ee-background" x="0" y="0" width="329.10784912109375" height="245.06954956054688" style="fill: rgb(242, 251, 228); fill-opacity: 0; pointer-events: none;"/>

<linearGradient id="SVGID_1_" gradientUnits="userSpaceOnUse" x1="700" y1="1187" x2="700" y2="-473.3903">
	<stop offset="0.1466" style="stop-color:#FFFFFF"/>
	<stop offset="0.8222" style="stop-color:#41E2F0"/>
</linearGradient>







<g transform="matrix(1.3899070024490356, 0, 0, 1.3899070024490356, -1214.7198486328125, -387.33507347106934)"><g transform="matrix(1, 0, 0, 1, -103.12327575683582, 173.33486938476562)">
		<path d="M 1027.199951171875 134 L 1107.9000244140625 134 L 1067.9000244140625 140.8000030517578 Z" class="st29" style="fill: rgb(217, 219, 219);"/>
		<path d="M 1088.800048828125 248.60000610351562 L 1061.800048828125 221.60000610351562 L 1067.9000244140625 140.8000030517578 L 1129.300048828125 184.39999389648438 Z" class="st31" style="fill: rgb(255, 255, 255);"/>
		<path d="M 1061.800048828125 221.60000610351562 L 1088.800048828125 248.60000610351562 L 1098.5 257.79998779296875 L 1017.5 255.5 Z" class="st30" style="fill: rgb(237, 237, 237);"/>
		<path d="M 1027.199951171875 134 L 998.7000122070312 201.8000030517578 L 996.5999755859375 187 Z" class="st31" style="fill: rgb(255, 255, 255);"/>
		<g>
			<path d="M 1061.800048828125 171.6999969482422 L 1027.199951171875 134 L 1067.9000244140625 140.8000030517578 L 1061.800048828125 221.60000610351562 L 1058 224.5 L 1058 224.5 Z" class="st32" style="fill: rgb(206, 206, 206);"/>
			<path d="M 998.7000122070312 201.8000030517578 L 1027.199951171875 134 L 1061.800048828125 171.6999969482422 L 1058 224.5 L 1058 224.5 L 1017.5 255.5 Z" class="st29" style="fill: rgb(217, 219, 219);"/>
		</g>
		<path d="M 1129.300048828125 184.39999389648438 L 1067.9000244140625 140.8000030517578 L 1107.9000244140625 134 L 1117.0999755859375 152.39999389648438 L 1113.699951171875 152.39999389648438 Z" class="st30" style="fill: rgb(237, 237, 237);"/>
		<path d="M 1118.0999755859375 154.5 L 1117.0999755859375 152.39999389648438 L 1173.800048828125 149.5 L 1154.800048828125 180.8000030517578 Z" class="st29" style="fill: rgb(217, 219, 219);"/>
		<g>
			<path d="M 1173.800048828125 149.5 L 1195.699951171875 199.1999969482422 L 1154.800048828125 180.8000030517578 Z" class="st31" style="fill: rgb(255, 255, 255);"/>
			<path d="M 1154.800048828125 180.8000030517578 L 1195.699951171875 199.1999969482422 L 1161.800048828125 235.1999969482422 L 1147.800048828125 235.8000030517578 L 1147.800048828125 235.8000030517578 Z" class="st30" style="fill: rgb(237, 237, 237);"/>
		</g>
		<path d="M 1134 187.6999969482422 L 1118.0999755859375 154.5 L 1154.800048828125 180.8000030517578 L 1132.699951171875 190.3000030517578 Z" class="st30" style="fill: rgb(237, 237, 237);"/>
		<g>
			<path d="M 1108.800048828125 237.3000030517578 L 1124.4000244140625 206.6999969482422 L 1124.4000244140625 206.6999969482422 L 1149.0999755859375 225.60000610351562 L 1149.0999755859375 225.60000610351562 L 1147.800048828125 235.8000030517578 Z" class="st32" style="fill: rgb(206, 206, 206);"/>
			<path d="M 1124.4000244140625 206.6999969482422 L 1124.4000244140625 206.6999969482422 L 1132.699951171875 190.3000030517578 L 1154.800048828125 180.8000030517578 L 1149.0999755859375 225.60000610351562 L 1149.0999755859375 225.60000610351562 Z" class="st29" style="fill: rgb(217, 219, 219);"/>
		</g>
	</g><g transform="matrix(1, 0, 0, 1, -103.12327575683582, 173.33486938476562)">
		<path d="M 1113.699951171875 152.39999389648438 L 1117.0999755859375 152.39999389648438 L 1134 187.6999969482422 L 1108.800048828125 237.3000030517578 L 1105 244.89999389648438 L 1105 244.89999389648438 L 1088.800048828125 248.60000610351562 L 1129.300048828125 184.39999389648438 Z" class="st32" style="fill: rgb(206, 206, 206);"/>
		<path d="M 1105 244.89999389648438 L 1098.5 257.79998779296875 L 1088.800048828125 248.60000610351562 L 1105 244.89999389648438 Z" class="st29" style="fill: rgb(217, 219, 219);"/>
	</g></g></svg>