<?xml version="1.0" encoding="utf-8"?>
<svg id="master-artboard" viewBox="0 0 345.71783447265625 233.20521545410156" version="1.1" xmlns="http://www.w3.org/2000/svg" x="0px" y="0px" style="enable-background:new 0 0 1400 980;" width="345.71783447265625px" height="233.20521545410156px"><rect id="ee-background" x="0" y="0" width="345.71783447265625" height="233.20521545410156" style="fill: rgb(242, 251, 228); fill-opacity: 0; pointer-events: none;"/>

<linearGradient id="SVGID_1_" gradientUnits="userSpaceOnUse" x1="700" y1="1187" x2="700" y2="-473.3903">
	<stop offset="0.1466" style="stop-color:#FFFFFF"/>
	<stop offset="0.8222" style="stop-color:#41E2F0"/>
</linearGradient>







<g transform="matrix(1.517716884613037, 0, 0, 1.517716884613037, -748.973747253418, -215.03143310546875)">
	<g>
		<path d="M 666.7000122070312 163.3000030517578 L 594.4000244140625 163.3000030517578 L 630.2000122070312 169.39999389648438 Z" class="st29" style="fill: rgb(217, 219, 219);"/>
		<path d="M 611.5 266 L 635.7000122070312 241.6999969482422 L 630.2000122070312 169.39999389648438 L 575.2000122070312 208.39999389648438 Z" class="st31" style="fill: rgb(255, 255, 255);"/>
		<path d="M 635.7000122070312 241.6999969482422 L 611.5 266 L 602.7999877929688 274.20001220703125 L 675.4000244140625 272.1000061035156 Z" class="st30" style="fill: rgb(237, 237, 237);"/>
		<path d="M 666.7000122070312 163.3000030517578 L 692.2000122070312 224 L 694.0999755859375 210.6999969482422 Z" class="st31" style="fill: rgb(255, 255, 255);"/>
		<g>
			<path d="M 635.7000122070312 197 L 666.7000122070312 163.3000030517578 L 630.2000122070312 169.39999389648438 L 635.7000122070312 241.6999969482422 L 639.0999755859375 244.3000030517578 L 639.0999755859375 244.3000030517578 Z" class="st32" style="fill: rgb(206, 206, 206);"/>
			<path d="M 692.2000122070312 224 L 666.7000122070312 163.3000030517578 L 635.7000122070312 197 L 639.0999755859375 244.3000030517578 L 639.0999755859375 244.3000030517578 L 675.4000244140625 272.1000061035156 Z" class="st29" style="fill: rgb(217, 219, 219);"/>
		</g>
		<path d="M 575.2000122070312 208.39999389648438 L 630.2000122070312 169.39999389648438 L 594.4000244140625 163.3000030517578 L 586.0999755859375 179.6999969482422 L 589.2000122070312 179.6999969482422 Z" class="st30" style="fill: rgb(237, 237, 237);"/>
		<path d="M 585.2000122070312 181.6999969482422 L 586.0999755859375 179.6999969482422 L 535.2999877929688 177.1999969482422 L 552.2999877929688 205.3000030517578 Z" class="st29" style="fill: rgb(217, 219, 219);"/>
		<g>
			<path d="M 535.2999877929688 177.1999969482422 L 515.7000122070312 221.6999969482422 L 552.2999877929688 205.3000030517578 Z" class="st31" style="fill: rgb(255, 255, 255);"/>
			<path d="M 552.2999877929688 205.3000030517578 L 515.7000122070312 221.6999969482422 L 546.0999755859375 254 L 558.7000122070312 254.5 L 558.7000122070312 254.5 Z" class="st30" style="fill: rgb(237, 237, 237);"/>
		</g>
		<path d="M 571 211.39999389648438 L 585.2000122070312 181.6999969482422 L 552.2999877929688 205.3000030517578 L 572.2000122070312 213.6999969482422 Z" class="st30" style="fill: rgb(237, 237, 237);"/>
		<g>
			<path d="M 593.5 255.89999389648438 L 579.5999755859375 228.39999389648438 L 579.5999755859375 228.39999389648438 L 557.5 245.3000030517578 L 557.5 245.3000030517578 L 558.7000122070312 254.5 Z" class="st32" style="fill: rgb(206, 206, 206);"/>
			<path d="M 579.5999755859375 228.39999389648438 L 579.5999755859375 228.39999389648438 L 572.2000122070312 213.6999969482422 L 552.2999877929688 205.3000030517578 L 557.5 245.3000030517578 L 557.5 245.3000030517578 Z" class="st29" style="fill: rgb(217, 219, 219);"/>
		</g>
	</g>
	<g>
		<path d="M 589.2000122070312 179.6999969482422 L 586.0999755859375 179.6999969482422 L 571 211.39999389648438 L 593.5 255.89999389648438 L 597 262.70001220703125 L 597 262.70001220703125 L 611.5 266 L 575.2000122070312 208.39999389648438 Z" class="st32" style="fill: rgb(206, 206, 206);"/>
		<path d="M 597 262.70001220703125 L 602.7999877929688 274.20001220703125 L 611.5 266 L 597 262.70001220703125 Z" class="st29" style="fill: rgb(217, 219, 219);"/>
	</g>
</g></svg>