<svg width="30" height="30" viewBox="0 0 30 30" fill="none" xmlns="http://www.w3.org/2000/svg">
<g clip-path="url(#clip0)">
<path d="M29.993 10.0843C29.9965 10.0638 29.9985 10.0438 29.9995 10.0228C30.0005 9.99832 30 9.97482 29.998 9.95031C29.996 9.92931 29.993 9.9093 29.988 9.8888C29.9825 9.86479 29.9749 9.84178 29.9659 9.81878C29.9614 9.80678 29.9604 9.79427 29.9549 9.78277C29.9509 9.77427 29.9439 9.76777 29.9394 9.75927C29.9349 9.75076 29.9329 9.74176 29.9279 9.73326L24.9268 1.73139C24.9038 1.69488 24.8768 1.66188 24.8463 1.63287C24.8458 1.63237 24.8453 1.63237 24.8448 1.63187C24.8017 1.59136 24.7507 1.56235 24.6962 1.53935C24.6892 1.53635 24.6847 1.53035 24.6772 1.52735C24.6717 1.52534 24.6657 1.52634 24.6602 1.52484C24.6097 1.50784 24.5577 1.49634 24.5032 1.49634H5.49874C5.44473 1.49634 5.39321 1.50784 5.3437 1.52434C5.3382 1.52584 5.3327 1.52484 5.3277 1.52684C5.3202 1.52935 5.3157 1.53535 5.30869 1.53835C5.25668 1.55985 5.20767 1.58786 5.16516 1.62587C5.16266 1.62837 5.15916 1.62987 5.15666 1.63187C5.12565 1.66088 5.09814 1.69438 5.07514 1.73089L0.0739722 9.73276C0.0689711 9.74076 0.0669706 9.75026 0.0624696 9.75877C0.0579685 9.76727 0.0509669 9.77377 0.0469659 9.78227C0.0414646 9.79377 0.0404644 9.80628 0.0354632 9.81828C0.0264611 9.84128 0.0189594 9.86429 0.0134581 9.8883C0.00895706 9.9088 0.00545625 9.92931 0.00345578 9.95031C-4.50383e-05 9.97482 -0.000545155 9.99882 0.000455078 10.0228C0.00145531 10.0438 0.00345578 10.0638 0.0069566 10.0843C0.0109575 10.1083 0.017459 10.1319 0.0254609 10.1554C0.0319624 10.1749 0.0389641 10.1939 0.0479662 10.2129C0.0524672 10.2219 0.0539676 10.2319 0.0589687 10.2409C0.0669706 10.2554 0.0789734 10.2664 0.0879755 10.2799C0.0949771 10.2904 0.0989781 10.3019 0.10748 10.3119L14.6054 28.3091C14.6064 28.3106 14.6074 28.3116 14.6084 28.3126L14.6109 28.3161C14.6124 28.3181 14.6149 28.3186 14.6164 28.3206C14.6574 28.3701 14.7084 28.4076 14.7639 28.4376C14.7789 28.4456 14.7929 28.4526 14.8084 28.4591C14.8689 28.4846 14.9329 28.5026 15 28.5026C15.057 28.5026 15.1145 28.4926 15.1715 28.4721C15.18 28.4691 15.1855 28.4621 15.194 28.4586C15.2195 28.4481 15.2395 28.4311 15.2625 28.4166C15.3005 28.3926 15.336 28.3676 15.3655 28.3351C15.3725 28.3276 15.383 28.3241 15.3895 28.3161L29.8929 10.3119C29.9009 10.3019 29.9049 10.2899 29.9124 10.2799C29.9219 10.2664 29.9334 10.2554 29.9414 10.2409C29.9464 10.2319 29.9479 10.2219 29.9524 10.2129C29.9614 10.1939 29.9684 10.1754 29.9749 10.1554C29.982 10.1319 29.989 10.1088 29.993 10.0843ZM16.0512 2.49707H23.7825L21.3519 9.02109L16.0512 2.49707ZM20.4507 9.49871H9.54968L15 2.79064L20.4507 9.49871ZM8.61297 9.0646L6.21291 2.49707H13.9492L8.61297 9.0646ZM20.8013 10.4989L14.9124 26.3056L9.13659 10.4989H20.8013ZM24.6162 3.12372L28.6006 9.4992H22.2411L24.6162 3.12372ZM5.37921 3.13022L7.70625 9.49871H1.39928L5.37921 3.13022ZM8.07184 10.4989L13.4926 25.3344L1.54181 10.4989H8.07184ZM16.1987 25.7175L21.8686 10.4989H28.4581L16.1987 25.7175Z" fill="#8A8A8A"/>
</g>
<defs>
<clipPath id="clip0">
<rect width="30" height="30" fill="white"/>
</clipPath>
</defs>
</svg>
