<svg width="23" height="30" viewBox="0 0 23 30" fill="none" xmlns="http://www.w3.org/2000/svg">
<path d="M11.25 3.75C7.11375 3.75 3.75 7.11498 3.75 11.25C3.75 15.3863 7.11375 18.75 11.25 18.75C15.3862 18.75 18.75 15.3863 18.75 11.25C18.75 7.11375 15.3862 3.75 11.25 3.75Z" fill="white"/>
<path d="M22.4613 29.1562L18.8475 19.5225C21.0863 17.465 22.5 14.5225 22.5 11.25C22.5 5.0475 17.4537 0 11.25 0C5.04627 0 0 5.04873 0 11.25C0 14.5238 1.41375 17.465 3.6525 19.5225L0.0400197 29.155C-0.0499803 29.3962 0.015 29.6675 0.20625 29.8387C0.32502 29.945 0.47373 30 0.625019 30C0.72 30 0.815039 29.9787 0.905039 29.9337L5.58006 27.5963L9.02883 29.895C9.18633 30 9.38631 30.0263 9.5676 29.97C9.75012 29.9112 9.89508 29.7725 9.96012 29.595L11.3263 25.9538L12.5326 29.5725C12.5951 29.7575 12.7389 29.9025 12.9238 29.9663C13.1076 30.0288 13.3113 30.0037 13.4726 29.895L16.9213 27.5963L21.5964 29.9337C21.6851 29.9775 21.7801 30 21.8764 30C22.0276 30 22.1764 29.945 22.2952 29.84C22.485 29.6675 22.5513 29.3975 22.4613 29.1562ZM6.43752 21.4387L6.37125 21.3725C6.40002 21.3862 6.42873 21.4 6.4575 21.4137C6.45 21.42 6.44502 21.43 6.43752 21.4387ZM15.7587 20.1637L12.9812 21.09C12.4175 21.1887 11.8412 21.25 11.2499 21.25C5.73621 21.25 1.24992 16.7638 1.24992 11.25C1.24992 5.73621 5.73627 1.24998 11.25 1.24998C16.7637 1.24998 21.25 5.73627 21.25 11.25C21.25 15.1425 19.0113 18.5125 15.7587 20.1637Z" fill="white"/>
<path d="M11.2504 5.16666C8.03045 5.16666 5.41711 7.77999 5.41711 11C5.41711 14.22 8.03045 16.8333 11.2504 16.8333C14.4704 16.8333 17.0838 14.22 17.0838 11C17.0838 7.77999 14.4704 5.16666 11.2504 5.16666ZM10.6671 15.6258C8.36295 15.34 6.58378 13.38 6.58378 11C6.58378 10.6383 6.63045 10.2942 6.70628 9.95582L9.50045 12.75V13.3333C9.50045 13.975 10.0254 14.5 10.6671 14.5V15.6258ZM14.6921 14.1442C14.5404 13.6717 14.1088 13.3333 13.5838 13.3333H13.0004V11.5833C13.0004 11.2625 12.7379 11 12.4171 11H8.91711V9.83332H10.0838C10.4046 9.83332 10.6671 9.57082 10.6671 9.24999V8.08332H11.8338C12.4754 8.08332 13.0004 7.55832 13.0004 6.91666V6.67749C14.7096 7.37166 15.9171 9.04582 15.9171 11C15.9171 12.2133 15.4504 13.3158 14.6921 14.1442Z" fill="#46C190"/>
</svg>
