<svg width="30" height="30" viewBox="0 0 30 30" fill="none" xmlns="http://www.w3.org/2000/svg">
<path d="M19.1352 13.3612C19.1911 13.3802 19.2487 13.3891 19.3046 13.3891C19.5248 13.3891 19.7301 13.2509 19.8045 13.0307C19.9697 12.5459 20.4982 12.2857 20.9828 12.4498C22.0187 12.8004 23.1489 12.2445 23.5 11.2081C23.5941 10.9325 23.4462 10.6322 23.1702 10.5382C22.893 10.4448 22.5941 10.5926 22.5002 10.8687C22.3354 11.3539 21.807 11.6141 21.3217 11.4496C20.2876 11.1005 19.156 11.6553 18.8045 12.6912C18.7111 12.9668 18.859 13.2671 19.1352 13.3612V13.3612Z" fill="#8A8A8A"/>
<path d="M20.3842 9.68236C20.4403 9.70136 20.4977 9.71028 20.5536 9.71028C20.7737 9.71028 20.9791 9.57204 21.0534 9.35185C21.1333 9.11679 21.2995 8.92682 21.5224 8.81696C21.7451 8.70732 21.9969 8.69153 22.232 8.77118C23.2676 9.12183 24.3976 8.56587 24.7492 7.52881C24.843 7.25324 24.6947 6.95295 24.4191 6.85887C24.1431 6.76389 23.8431 6.91335 23.7497 7.18938C23.5851 7.67507 23.0575 7.93553 22.5714 7.77074C22.0688 7.59999 21.5307 7.63501 21.0555 7.86984C20.5803 8.10422 20.2247 8.51026 20.0541 9.01242C19.9596 9.28845 20.1079 9.58852 20.3842 9.68236V9.68236Z" fill="#8A8A8A"/>
<path d="M21.6323 6.00378C21.6886 6.02278 21.7458 6.03171 21.8023 6.03171C22.0225 6.03171 22.2278 5.89323 22.3022 5.67305C22.4235 5.31508 22.8149 5.12236 23.1722 5.2439C23.613 5.39336 24.0857 5.36269 24.5031 5.15738C24.9204 4.95139 25.2324 4.5957 25.3823 4.15465C25.4761 3.87908 25.3283 3.57878 25.0522 3.48494C24.7751 3.39041 24.4761 3.53919 24.3823 3.81522C24.323 3.98894 24.2001 4.12947 24.0358 4.21027C23.8717 4.29083 23.6858 4.30319 23.5116 4.24346C22.6025 3.93675 21.6105 4.4245 21.3022 5.33316C21.2089 5.60988 21.356 5.90971 21.6323 6.00378Z" fill="#8A8A8A"/>
<path d="M25.4566 13.322C25.3648 13.2593 25.2614 13.2234 25.1556 13.2096C26.2046 9.80068 26.7802 6.46107 26.8626 3.28008C26.8885 2.27964 26.3996 0.943885 25.4138 0.325676C24.941 0.0285881 24.1657 -0.216315 23.1596 0.301415C21.5826 1.11509 20.4549 3.50827 19.549 5.43202C19.4968 5.5428 19.4455 5.65106 19.3949 5.75817C19.1947 4.83807 18.5865 4.05095 17.7218 3.64011C17.5181 2.66027 16.7408 1.8926 15.7642 1.6937C15.7537 1.63877 15.7404 1.58475 15.7241 1.53051C15.5229 0.843177 14.9164 0.325676 14.2147 0.242363C13.8194 0.195443 13.4275 0.277153 13.0929 0.473076C12.8077 0.314232 12.4877 0.229775 12.1593 0.229775C11.2413 0.229775 10.4699 0.870185 10.2687 1.72712C9.2651 2.0004 8.52902 2.92142 8.52123 3.99213C7.37614 4.28784 6.54187 5.32261 6.54187 6.55331C6.54187 6.87969 6.60321 7.20264 6.72085 7.50729C6.42376 7.87418 6.25897 8.33355 6.25897 8.81557C6.25897 9.10488 6.31848 9.38365 6.43109 9.64115C5.90375 9.06574 5.16148 8.59539 4.3279 8.62606C4.0363 8.63544 3.80719 8.87897 3.81612 9.17034C3.82505 9.45598 4.05965 9.68189 4.34369 9.68189C4.36154 9.68257 4.37779 9.68097 4.39473 9.68097C4.88957 9.68097 5.3494 10.0083 5.68402 10.3882C4.84677 10.6297 3.83718 11.0222 3.36637 11.9105C3.08278 12.4463 3.0496 13.1034 3.23865 13.8565C3.14733 14.0091 3.0972 14.1865 3.10659 14.3753L4.00518 27.1448C4.08712 28.7461 5.40685 29.9999 7.0097 29.9999H21.8298C23.4326 29.9999 24.7524 28.7461 24.8336 27.1545L25.7549 13.9409C25.7549 13.9379 25.7555 13.9347 25.7555 13.9315C25.7702 13.688 25.6578 13.4605 25.4566 13.322V13.322ZM19.8255 7.2681C20.0347 6.87809 20.2626 6.39424 20.5039 5.88177C21.2974 4.19652 22.385 1.88894 23.6432 1.2396C24.1023 1.00294 24.4978 0.998129 24.8526 1.21946C25.4644 1.60375 25.8247 2.57352 25.807 3.25261C25.7262 6.37387 25.1561 9.65854 24.1119 13.0165C24.0776 13.1268 24.0016 13.3495 23.8934 13.6553L22.9936 14.0549C22.9742 14.0638 22.9552 14.0734 22.9366 14.0849C22.6769 14.2407 22.3855 14.3176 22.0939 14.3209C21.8025 14.3176 21.5116 14.2407 21.2518 14.0849L20.8756 13.859C20.4425 13.5992 19.9573 13.4694 19.4721 13.4694C19.4663 13.4694 19.4606 13.4703 19.4542 13.4703C18.9633 13.4671 18.4712 13.5955 18.0329 13.859L17.657 14.0849C17.4474 14.2105 17.2157 14.2719 16.9811 14.2982C16.9944 14.2524 17.0098 14.2073 17.0235 14.162C17.1681 13.6706 17.3233 13.1858 17.4858 12.705C17.5476 12.5221 17.6122 12.3406 17.6765 12.1595C17.8122 11.7778 17.9541 11.401 18.1011 11.0266C18.1665 10.8593 18.2304 10.6903 18.2979 10.5246C18.7586 9.40151 19.2665 8.31249 19.8255 7.2681ZM13.0954 8.52031C13.157 8.44112 13.2172 8.36422 13.2744 8.28914C13.2744 8.28823 13.2749 8.28754 13.2753 8.28708C13.317 8.23169 13.3534 8.17402 13.384 8.11634C13.5141 7.87212 13.5445 7.59746 13.4843 7.32922L15.688 6.84742C15.7028 6.91494 15.7186 6.982 15.744 7.04426C15.8427 7.28596 16.0192 7.48714 16.2645 7.62768C16.3449 7.67208 16.4289 7.71625 16.5154 7.76226C16.5866 7.7998 16.658 7.83871 16.7296 7.87784C16.7639 7.89638 16.7987 7.91469 16.8331 7.93392C16.896 7.96917 16.9567 8.00831 17.0178 8.04676C17.0702 8.07903 17.1219 8.11222 17.1725 8.1477C17.2311 8.18821 17.2872 8.23307 17.343 8.27862C17.3922 8.31867 17.4391 8.36261 17.4856 8.40748C17.5357 8.45646 17.5854 8.50658 17.6314 8.56151C17.7126 8.65856 17.7907 8.75949 17.8546 8.88034C17.6307 9.3745 17.4201 9.87872 17.2164 10.3871C17.1846 10.4658 17.151 10.5425 17.1198 10.621C16.5412 10.7677 15.9821 11.0424 15.2915 11.5338C14.4213 12.152 13.7736 12.3163 12.7061 12.1616L12.3857 10.6945C12.1682 9.70249 12.6397 9.10167 13.0954 8.52031ZM15.7134 5.31414C15.7271 5.31163 15.7408 5.31002 15.7546 5.31002C15.8544 5.31002 15.9477 5.38144 15.9695 5.48169C15.9864 5.55767 15.9578 5.61741 15.9388 5.64625C15.9203 5.67486 15.8786 5.72499 15.8031 5.74124L12.8867 6.37959C12.7706 6.40499 12.6523 6.32786 12.6269 6.21273C12.6017 6.09715 12.6782 5.97836 12.7938 5.95295L14.3433 5.61398L15.7134 5.31414ZM14.0071 13.4799C13.967 13.4827 13.9263 13.4836 13.8862 13.488C13.5983 13.517 13.3142 13.5898 13.0446 13.7111L12.9437 13.2492C13.0959 13.2618 13.2474 13.2746 13.3893 13.2746C14.3101 13.2746 15.0514 13.0004 15.9033 12.3944C16.1716 12.2032 16.4092 12.0586 16.6351 11.9389C16.5866 12.0767 16.5385 12.2138 16.4916 12.3522C16.4577 12.4514 16.4213 12.5491 16.3886 12.6489C16.2334 13.1188 16.0855 13.5923 15.9477 14.0702L15.5966 13.8601C15.1638 13.6003 14.6786 13.4703 14.1934 13.4703C14.187 13.4703 14.1803 13.4715 14.1739 13.4715C14.1181 13.4703 14.0625 13.4767 14.0071 13.4799ZM7.69223 8.02044L8.03806 7.73548L7.81376 7.34844C7.67323 7.1056 7.59884 6.83094 7.59884 6.55331C7.59884 5.69798 8.26878 5.00058 9.12411 4.96487L9.76497 4.93786L9.61551 4.3137C9.59034 4.20933 9.57752 4.10634 9.57752 4.00861C9.57752 3.3286 10.1088 2.75594 10.7865 2.70421L11.2744 2.66713V2.14185C11.2898 1.66738 11.6809 1.2856 12.1598 1.2856C12.4353 1.2856 12.6329 1.41126 12.7496 1.51677L13.1197 1.85094L13.4745 1.50052C13.637 1.34008 13.8603 1.26501 14.0906 1.29133C14.3735 1.32474 14.6289 1.54538 14.7113 1.82897C14.7393 1.92395 14.7473 2.01574 14.7363 2.10935L14.6745 2.69895H15.2689C16.0276 2.69895 16.6621 3.29198 16.7145 4.04889L16.7383 4.39587L17.0661 4.51077C17.8912 4.80076 18.4341 5.58148 18.4155 6.45535C18.4075 6.82865 18.2871 7.188 18.069 7.50317C17.7159 7.20333 17.3352 7.00123 17.0152 6.83277C16.9324 6.78883 16.8523 6.74671 16.7715 6.70185C16.7486 6.68903 16.7211 6.66706 16.7118 6.61144C16.6992 6.53546 16.7275 6.44413 16.7852 6.37707C17.0152 6.10996 17.1077 5.74581 17.0333 5.40203L16.9695 5.11113C16.9056 4.81747 16.7303 4.56685 16.4769 4.40411C16.224 4.24206 15.923 4.18782 15.6301 4.25213L15.4884 4.28326C15.4868 4.28372 15.4854 4.28326 15.4838 4.28372L13.9343 4.62269L12.4223 4.95274C12.1293 5.01683 11.8785 5.19146 11.716 5.44529C11.5532 5.69821 11.4994 5.99964 11.5633 6.29261L11.5949 6.43612V6.43772C11.5949 6.43841 11.5956 6.43887 11.5956 6.44001L11.6267 6.58306C11.7031 6.93462 11.9476 7.2308 12.2797 7.37339C12.3621 7.40864 12.4308 7.4757 12.4546 7.54391C12.4683 7.58304 12.4603 7.60296 12.4296 7.65377V7.65423C12.3774 7.72449 12.3209 7.79568 12.2634 7.86915C12.2053 7.94308 12.1451 8.02067 12.0838 8.101C12.0632 8.12778 12.0437 8.15571 12.0231 8.18317C11.9792 8.24291 11.9355 8.30356 11.8922 8.36696C11.8684 8.4013 11.8457 8.43677 11.8224 8.47271C11.7823 8.5345 11.7437 8.59813 11.7057 8.66382C11.6837 8.70182 11.6619 8.73935 11.6409 8.77872C11.6011 8.85265 11.5654 8.93024 11.5299 9.00966C11.5145 9.04331 11.4983 9.07558 11.4846 9.11106C11.4381 9.22596 11.3969 9.34635 11.3642 9.47315C11.3589 9.49329 11.3568 9.5148 11.352 9.5354C11.3266 9.64321 11.306 9.75444 11.2928 9.87071C11.2877 9.91718 11.2866 9.9657 11.2834 10.0138C11.279 10.076 11.2712 10.1353 11.2712 10.2001C11.269 10.1976 11.2669 10.1948 11.2648 10.1923C11.2575 10.1827 11.25 10.1742 11.2431 10.1648C11.1513 10.0437 11.0593 9.93251 10.9671 9.82677C10.938 9.79358 10.9085 9.76154 10.8789 9.72972C10.8013 9.64595 10.7238 9.56722 10.6455 9.49329C10.6203 9.46948 10.5949 9.44362 10.569 9.42028C10.4704 9.33216 10.3711 9.25136 10.2713 9.17949C10.2433 9.15958 10.2147 9.14264 10.1868 9.12365C10.1117 9.07329 10.0369 9.02683 9.96067 8.98586C9.92382 8.96572 9.88743 8.94626 9.84989 8.92818C9.77115 8.88973 9.69196 8.857 9.61231 8.82839C9.58599 8.819 9.55944 8.80619 9.53312 8.79772C9.4466 8.77025 9.35963 8.74805 9.27196 8.7318C9.26189 8.72974 9.25182 8.73066 9.24175 8.72928C9.2239 8.72608 9.2065 8.71921 9.18842 8.71647C9.12708 8.70754 9.06895 8.7112 9.00875 8.70685C8.96664 8.70433 8.92498 8.69541 8.88264 8.69541C8.87005 8.69541 8.85677 8.69861 8.84373 8.69861C8.76179 8.69953 8.68259 8.70914 8.60294 8.71898C8.56335 8.72425 8.52375 8.72745 8.48415 8.73478C8.38001 8.75377 8.27931 8.78032 8.17951 8.81191C8.16418 8.81672 8.1493 8.82038 8.13397 8.82564C7.87121 8.91491 7.62196 9.04125 7.38873 9.19368C7.34066 9.07489 7.31526 8.94718 7.31526 8.81557C7.31594 8.50658 7.45327 8.21682 7.69223 8.02044ZM4.3002 12.404C4.52359 11.9833 5.06581 11.6622 6.0072 11.393C6.44757 11.2673 6.85612 11.0323 7.18777 10.7155C7.33815 10.5715 7.47914 10.4496 7.61532 10.3388C8.04081 9.99294 8.40771 9.8048 8.73981 9.762C8.74737 9.76108 8.75469 9.75994 8.76202 9.75948C8.86707 9.7478 8.96893 9.75101 9.0678 9.7684C9.09367 9.77321 9.11999 9.78214 9.14654 9.789C9.19552 9.80113 9.24404 9.81326 9.29325 9.83295C9.32484 9.84508 9.35642 9.86362 9.38869 9.87827C9.43447 9.90047 9.48002 9.92061 9.52602 9.94853C9.56196 9.97005 9.59766 9.9982 9.6336 10.0229C9.6764 10.0529 9.7192 10.0804 9.76246 10.1154C9.80251 10.1474 9.84279 10.1866 9.88285 10.223C9.9229 10.2594 9.96319 10.2928 10.0032 10.3333C10.0476 10.3781 10.0925 10.4303 10.1374 10.4807C10.1738 10.5212 10.2101 10.5587 10.2472 10.6027C10.2974 10.6629 10.3479 10.7313 10.3985 10.7979C10.4308 10.8403 10.4626 10.8782 10.4946 10.9231C10.5523 11.0034 10.6102 11.0925 10.6684 11.1813C10.6938 11.2202 10.7196 11.2552 10.7448 11.2953C10.8288 11.4278 10.9133 11.5688 10.9982 11.7187C11.3868 12.4044 11.5157 13.4175 11.3468 14.2998C11.3186 14.297 11.2912 14.2929 11.2632 14.2886C11.062 14.2542 10.8684 14.1899 10.6919 14.0842L10.3154 13.8583C9.88262 13.5985 9.39739 13.4687 8.91216 13.4687C8.90644 13.4687 8.90072 13.4696 8.89431 13.4696C8.40336 13.4664 7.91126 13.5948 7.47296 13.8583L7.28985 13.9681C6.97033 14.1597 6.61259 14.2563 6.25462 14.2595C5.89596 14.2563 5.53868 14.1602 5.21939 13.9681L4.50917 13.5415C4.50917 13.5415 4.50871 13.5415 4.50871 13.5411C4.4151 13.4857 4.31439 13.4474 4.21094 13.4287C4.12809 13.011 4.15761 12.6731 4.3002 12.404ZM23.7819 27.0904C23.7286 28.1293 22.8719 28.9434 21.8318 28.9434H7.0113C5.97058 28.9434 5.11433 28.1293 5.06055 27.0803L4.18187 14.5985L4.64124 14.8743C5.13905 15.173 5.69821 15.3199 6.25577 15.3167C6.81378 15.3199 7.37225 15.1732 7.87007 14.8743L8.0534 14.7644C8.31295 14.6081 8.60409 14.531 8.89545 14.5278C9.18682 14.531 9.47773 14.6081 9.73797 14.7644L10.1145 14.9903C10.5908 15.276 11.1303 15.3984 11.6635 15.3694C11.7109 15.3673 11.7585 15.3673 11.8066 15.3632C11.8123 15.3625 11.8178 15.3593 11.824 15.3588C12.1845 15.3183 12.5383 15.2048 12.8645 15.0189C12.8952 15.0077 12.9279 15.0073 12.9565 14.9903L13.333 14.7644C13.5926 14.6081 13.8835 14.531 14.1751 14.5278C14.4664 14.531 14.7573 14.6081 15.0176 14.7644L15.3941 14.9903C15.7937 15.2295 16.2384 15.3536 16.6854 15.3721C16.6944 15.3726 16.704 15.3737 16.7129 15.3737C16.8669 15.3785 17.0212 15.3737 17.1743 15.352C17.262 15.3407 17.3469 15.3188 17.433 15.2991C17.4746 15.2893 17.5165 15.2801 17.5577 15.268C17.7921 15.2032 18.0216 15.118 18.2354 14.9899L18.6119 14.7637C18.8717 14.6076 19.1626 14.5305 19.454 14.5273C19.7453 14.5305 20.0365 14.6076 20.2967 14.7637L20.6732 14.9899C21.1092 15.251 21.5986 15.3794 22.0875 15.3774C22.0955 15.3774 22.1037 15.379 22.1117 15.379C22.586 15.379 23.0605 15.2554 23.486 15.0073L24.5219 14.5468C24.5441 14.5369 24.5599 14.5177 24.5805 14.5051L24.6613 14.4692L23.7819 27.0904Z" fill="#8A8A8A"/>
<path d="M6.27365 22.7036H9.96941C10.2608 22.7036 10.4974 22.4677 10.4974 22.1756C10.4974 21.8838 10.2608 21.6476 9.96941 21.6476H6.27365C5.98228 21.6476 5.74585 21.8838 5.74585 22.1756C5.74585 22.4677 5.98228 22.7036 6.27365 22.7036V22.7036Z" fill="#8A8A8A"/>
<path d="M6.27365 24.8156H11.0252C11.3168 24.8156 11.5533 24.5796 11.5533 24.2875C11.5533 23.9955 11.3168 23.7595 11.0252 23.7595H6.27365C5.98228 23.7595 5.74585 23.9955 5.74585 24.2875C5.74585 24.5796 5.98228 24.8156 6.27365 24.8156V24.8156Z" fill="#8A8A8A"/>
<path d="M12.0811 25.8714H6.27365C5.98228 25.8714 5.74585 26.1073 5.74585 26.3994C5.74585 26.6912 5.98228 26.9272 6.27365 26.9272H12.0811C12.3724 26.9272 12.6091 26.6912 12.6091 26.3994C12.6091 26.1073 12.3724 25.8714 12.0811 25.8714V25.8714Z" fill="#8A8A8A"/>
<path d="M15.2488 25.8714H14.1929C13.9014 25.8714 13.6649 26.1073 13.6649 26.3994C13.6649 26.6912 13.9014 26.9272 14.1929 26.9272H15.2488C15.5401 26.9272 15.7768 26.6912 15.7768 26.3994C15.7768 26.1073 15.5404 25.8714 15.2488 25.8714V25.8714Z" fill="#8A8A8A"/>
</svg>
