<svg width="30" height="30" viewBox="0 0 30 30" fill="none" xmlns="http://www.w3.org/2000/svg">
<g clip-path="url(#clip0)">
<path d="M29.681 12.1912L15.4605 1.7793C15.1863 1.57855 14.8138 1.57855 14.5397 1.7793L0.319077 12.1912C-0.0282669 12.4456 -0.103736 12.9333 0.15062 13.2807C0.404975 13.628 0.892768 13.7034 1.24005 13.4491L15 3.37428L28.76 13.4491C28.8988 13.5507 29.06 13.5996 29.2199 13.5996C29.4599 13.5996 29.6967 13.4892 29.8494 13.2806C30.1038 12.9333 30.0283 12.4456 29.681 12.1912Z" fill="#BF9B30"/>
<path d="M25.9129 13.6256C25.4824 13.6256 25.1334 13.9746 25.1334 14.4051V26.8122H18.8977V20.0396C18.8977 17.8904 17.1492 16.142 15.0001 16.142C12.851 16.142 11.1024 17.8905 11.1024 20.0396V26.8123H4.86668V14.4051C4.86668 13.9746 4.51764 13.6256 4.08721 13.6256C3.65678 13.6256 3.30774 13.9746 3.30774 14.4051V27.5918C3.30774 28.0223 3.65678 28.3713 4.08721 28.3713H11.8819C12.2918 28.3713 12.6273 28.0546 12.6583 27.6525C12.6602 27.6343 12.6614 27.6144 12.6614 27.5918V20.0397C12.6614 18.7501 13.7105 17.701 15.0001 17.701C16.2897 17.701 17.3388 18.7501 17.3388 20.0397V27.5918C17.3388 27.6143 17.3399 27.6338 17.3418 27.6518C17.3725 28.0542 17.7081 28.3713 18.1182 28.3713H25.9129C26.3434 28.3713 26.6924 28.0223 26.6924 27.5918V14.4051C26.6923 13.9746 26.3433 13.6256 25.9129 13.6256Z" fill="#BF9B30"/>
</g>
<defs>
<clipPath id="clip0">
<rect width="30" height="30" fill="white"/>
</clipPath>
</defs>
</svg>
