<svg width="30" height="30" viewBox="0 0 30 30" fill="none" xmlns="http://www.w3.org/2000/svg">
<g clip-path="url(#clip0)">
<path d="M29.993 10.0844C29.9965 10.0639 29.9985 10.0438 29.9995 10.0228C30.0005 9.99834 30 9.97483 29.998 9.95033C29.996 9.92932 29.993 9.90932 29.988 9.88881C29.9825 9.86481 29.9749 9.8418 29.9659 9.81879C29.9614 9.80679 29.9604 9.79429 29.9549 9.78279C29.9509 9.77429 29.9439 9.76778 29.9394 9.75928C29.9349 9.75078 29.9329 9.74178 29.9279 9.73328L24.9268 1.73141C24.9038 1.6949 24.8768 1.66189 24.8463 1.63289C24.8458 1.63238 24.8453 1.63238 24.8448 1.63188C24.8017 1.59138 24.7507 1.56237 24.6962 1.53936C24.6892 1.53636 24.6847 1.53036 24.6772 1.52736C24.6717 1.52536 24.6657 1.52636 24.6602 1.52486C24.6097 1.50786 24.5577 1.49635 24.5032 1.49635H5.49874C5.44473 1.49635 5.39321 1.50786 5.3437 1.52436C5.3382 1.52586 5.3327 1.52486 5.3277 1.52686C5.3202 1.52936 5.3157 1.53536 5.30869 1.53836C5.25668 1.55987 5.20767 1.58787 5.16516 1.62588C5.16266 1.62838 5.15916 1.62988 5.15666 1.63188C5.12565 1.66089 5.09814 1.6944 5.07514 1.73091L0.0739722 9.73277C0.0689711 9.74078 0.0669706 9.75028 0.0624695 9.75878C0.0579685 9.76728 0.0509669 9.77378 0.0469659 9.78229C0.0414646 9.79379 0.0404644 9.80629 0.0354632 9.81829C0.0264611 9.8413 0.0189594 9.86431 0.0134581 9.88831C0.00895706 9.90882 0.00545625 9.92932 0.00345578 9.95033C-4.50383e-05 9.97483 -0.000545155 9.99884 0.000455078 10.0228C0.00145531 10.0438 0.00345578 10.0639 0.0069566 10.0844C0.0109575 10.1084 0.017459 10.1319 0.0254609 10.1554C0.0319624 10.1749 0.0389641 10.1939 0.0479662 10.2129C0.0524672 10.2219 0.0539676 10.2319 0.0589687 10.2409C0.0669706 10.2554 0.0789734 10.2664 0.0879755 10.2799C0.0949771 10.2904 0.0989781 10.3019 0.10748 10.3119L14.6054 28.3091C14.6064 28.3106 14.6074 28.3116 14.6084 28.3126L14.6109 28.3161C14.6124 28.3181 14.6149 28.3186 14.6164 28.3206C14.6574 28.3701 14.7084 28.4076 14.7639 28.4376C14.7789 28.4456 14.7929 28.4526 14.8084 28.4591C14.8689 28.4846 14.9329 28.5027 15 28.5027C15.057 28.5027 15.1145 28.4927 15.1715 28.4721C15.18 28.4691 15.1855 28.4621 15.194 28.4586C15.2195 28.4481 15.2395 28.4311 15.2625 28.4166C15.3005 28.3926 15.336 28.3676 15.3655 28.3351C15.3725 28.3276 15.383 28.3241 15.3895 28.3161L29.8929 10.3119C29.9009 10.3019 29.9049 10.2899 29.9124 10.2799C29.9219 10.2664 29.9334 10.2554 29.9414 10.2409C29.9464 10.2319 29.9479 10.2219 29.9524 10.2129C29.9614 10.1939 29.9684 10.1754 29.9749 10.1554C29.982 10.1319 29.989 10.1089 29.993 10.0844ZM16.0512 2.49709H23.7825L21.3519 9.02111L16.0512 2.49709ZM20.4507 9.49872H9.54968L15 2.79066L20.4507 9.49872ZM8.61297 9.06462L6.21291 2.49709H13.9492L8.61297 9.06462ZM20.8013 10.499L14.9124 26.3056L9.13659 10.499H20.8013ZM24.6162 3.12373L28.6006 9.49922H22.2411L24.6162 3.12373ZM5.37921 3.13023L7.70625 9.49872H1.39928L5.37921 3.13023ZM8.07184 10.499L13.4926 25.3344L1.54181 10.499H8.07184ZM16.1987 25.7175L21.8686 10.499H28.4581L16.1987 25.7175Z" fill="black" fill-opacity="0.21"/>
</g>
<defs>
<clipPath id="clip0">
<rect width="30" height="30" fill="white"/>
</clipPath>
</defs>
</svg>
