<svg width="100" height="105" viewBox="0 0 100 105" fill="none" xmlns="http://www.w3.org/2000/svg">
<rect x="0.5" y="0.5" width="99" height="99" stroke="#46C190"/>
<path d="M18.4688 90.9297L24.5859 88.3828L18.4688 85.4688V84.3047L25.9766 88.0469V88.8125L18.4688 92.1094V90.9297ZM35.6406 91.375H33.9453V94H32.7031V91.375H27.1484V90.2422L32.5703 82.5156H33.9453V90.1953H35.6406V91.375ZM32.7031 90.1953V86.3984C32.7031 85.6536 32.7292 84.8125 32.7812 83.875H32.7188C32.4688 84.375 32.2344 84.7891 32.0156 85.1172L28.4453 90.1953H32.7031ZM44.2656 93.0859C44.4948 93.0859 44.7161 93.0703 44.9297 93.0391C45.1432 93.0026 45.3125 92.9661 45.4375 92.9297V93.9219C45.2969 93.9896 45.0885 94.0443 44.8125 94.0859C44.5417 94.1328 44.2969 94.1562 44.0781 94.1562C42.4219 94.1562 41.5938 93.2839 41.5938 91.5391V86.4453H40.3672V85.8203L41.5938 85.2812L42.1406 83.4531H42.8906V85.4375H45.375V86.4453H42.8906V91.4844C42.8906 92 43.013 92.3958 43.2578 92.6719C43.5026 92.9479 43.8385 93.0859 44.2656 93.0859ZM48.4531 94H47.1562V85.4375H48.4531V94ZM47.0469 83.1172C47.0469 82.8203 47.1198 82.6042 47.2656 82.4688C47.4115 82.3281 47.5938 82.2578 47.8125 82.2578C48.0208 82.2578 48.2005 82.3281 48.3516 82.4688C48.5026 82.6094 48.5781 82.8255 48.5781 83.1172C48.5781 83.4089 48.5026 83.6276 48.3516 83.7734C48.2005 83.9141 48.0208 83.9844 47.8125 83.9844C47.5938 83.9844 47.4115 83.9141 47.2656 83.7734C47.1198 83.6276 47.0469 83.4089 47.0469 83.1172ZM62.1172 94V88.4297C62.1172 87.7474 61.9714 87.237 61.6797 86.8984C61.388 86.5547 60.9349 86.3828 60.3203 86.3828C59.513 86.3828 58.9167 86.6146 58.5312 87.0781C58.1458 87.5417 57.9531 88.2552 57.9531 89.2188V94H56.6562V88.4297C56.6562 87.7474 56.5104 87.237 56.2188 86.8984C55.9271 86.5547 55.4714 86.3828 54.8516 86.3828C54.0391 86.3828 53.4427 86.6276 53.0625 87.1172C52.6875 87.6016 52.5 88.3984 52.5 89.5078V94H51.2031V85.4375H52.2578L52.4688 86.6094H52.5312C52.776 86.1927 53.1198 85.8672 53.5625 85.6328C54.0104 85.3984 54.5104 85.2812 55.0625 85.2812C56.401 85.2812 57.276 85.7656 57.6875 86.7344H57.75C58.0052 86.2865 58.375 85.9323 58.8594 85.6719C59.3438 85.4115 59.8958 85.2812 60.5156 85.2812C61.4844 85.2812 62.2083 85.5312 62.6875 86.0312C63.1719 86.526 63.4141 87.3203 63.4141 88.4141V94H62.1172ZM69.7109 94.1562C68.4453 94.1562 67.4453 93.7708 66.7109 93C65.9818 92.2292 65.6172 91.1589 65.6172 89.7891C65.6172 88.4089 65.9557 87.3125 66.6328 86.5C67.3151 85.6875 68.2292 85.2812 69.375 85.2812C70.4479 85.2812 71.2969 85.6354 71.9219 86.3438C72.5469 87.0469 72.8594 87.9766 72.8594 89.1328V89.9531H66.9609C66.987 90.9583 67.2396 91.7214 67.7188 92.2422C68.2031 92.763 68.8828 93.0234 69.7578 93.0234C70.6797 93.0234 71.5911 92.8307 72.4922 92.4453V93.6016C72.0339 93.7995 71.599 93.9401 71.1875 94.0234C70.7812 94.112 70.2891 94.1562 69.7109 94.1562ZM69.3594 86.3672C68.6719 86.3672 68.1224 86.5911 67.7109 87.0391C67.3047 87.487 67.0651 88.1068 66.9922 88.8984H71.4688C71.4688 88.0807 71.2865 87.4557 70.9219 87.0234C70.5573 86.5859 70.0365 86.3672 69.3594 86.3672ZM80.6016 91.6641C80.6016 92.4609 80.3047 93.0755 79.7109 93.5078C79.1172 93.9401 78.2839 94.1562 77.2109 94.1562C76.0755 94.1562 75.1901 93.9766 74.5547 93.6172V92.4141C74.9661 92.6224 75.4062 92.7865 75.875 92.9062C76.349 93.026 76.8047 93.0859 77.2422 93.0859C77.9193 93.0859 78.4401 92.9792 78.8047 92.7656C79.1693 92.5469 79.3516 92.2161 79.3516 91.7734C79.3516 91.4401 79.2057 91.1562 78.9141 90.9219C78.6276 90.6823 78.0651 90.401 77.2266 90.0781C76.4297 89.7812 75.862 89.5234 75.5234 89.3047C75.1901 89.0807 74.9401 88.8281 74.7734 88.5469C74.612 88.2656 74.5312 87.9297 74.5312 87.5391C74.5312 86.8411 74.8151 86.2917 75.3828 85.8906C75.9505 85.4844 76.7292 85.2812 77.7188 85.2812C78.6406 85.2812 79.5417 85.4688 80.4219 85.8438L79.9609 86.8984C79.1016 86.5443 78.3229 86.3672 77.625 86.3672C77.0104 86.3672 76.5469 86.4635 76.2344 86.6562C75.9219 86.849 75.7656 87.1146 75.7656 87.4531C75.7656 87.6823 75.8229 87.8776 75.9375 88.0391C76.0573 88.2005 76.2474 88.3542 76.5078 88.5C76.7682 88.6458 77.2682 88.8568 78.0078 89.1328C79.0234 89.5026 79.7083 89.875 80.0625 90.25C80.4219 90.625 80.6016 91.0964 80.6016 91.6641Z" fill="#46C190"/>
<path d="M32.0635 32.5103C31.4545 32.5103 30.9575 32.0134 30.9575 31.4043C30.9575 30.7952 31.4545 30.2998 32.0635 30.2998C32.6726 30.2998 33.1696 30.7952 33.1696 31.4043C33.1696 32.0134 32.6741 32.5103 32.0635 32.5103ZM32.0635 30.9952C31.8378 30.9952 31.6545 31.1786 31.6545 31.4043C31.6545 31.8573 32.4726 31.8573 32.4726 31.4043C32.4726 31.1786 32.2893 30.9952 32.0635 30.9952Z" fill="#46C190"/>
<path d="M28.2441 38.0571C27.3366 38.0571 26.2472 37.4481 25.673 36.9284C25.4397 36.7163 23.411 34.8224 24.1685 33.4845C24.3852 33.1012 25.0215 32.4694 26.5336 31.0134C27.5502 30.0347 28.7032 28.9226 29.2002 28.3059C29.435 28.0165 29.6562 27.712 29.8744 27.4165C30.6729 26.3287 31.5001 25.2045 32.7713 24.8757C33.8834 24.5909 35.95 24.0591 37.609 26.106C37.8742 26.4317 37.8242 26.909 37.4999 27.1726C37.1727 27.4378 36.6969 27.3847 36.4333 27.0605C35.4667 25.8681 34.4212 26.0196 33.1516 26.3439C32.4031 26.5378 31.7683 27.3999 31.0971 28.3135C30.8653 28.6286 30.6304 28.9483 30.3804 29.2574C29.8229 29.9483 28.685 31.0452 27.5851 32.1043C26.7684 32.8906 25.6503 33.9694 25.4851 34.2345C25.5063 34.4103 26.0472 35.2239 26.6896 35.8042C27.2078 36.2739 28.0593 36.6026 28.2881 36.539C28.3699 36.5148 28.479 36.4738 28.6093 36.4254C29.4487 36.1102 31.0107 35.5239 32.694 36.1996C33.9925 36.7132 36.7045 35.6057 38.1226 33.4421C38.3529 33.0936 38.8211 32.9952 39.1711 33.2239C39.5211 33.4527 39.618 33.9224 39.3908 34.2724C37.6666 36.9057 34.2758 38.4662 32.1304 37.6041C30.9971 37.1526 29.832 37.5844 29.1381 37.8435C28.9623 37.9102 28.8138 37.9632 28.6987 37.9965C28.5563 38.039 28.4032 38.0571 28.2441 38.0571Z" fill="#46C190"/>
<path d="M37.8256 30.471C37.4817 30.471 37.1711 30.2362 37.0892 29.8862C36.9938 29.4786 37.2453 29.0726 37.6529 28.9756C38.7331 28.7211 39.8907 27.1832 39.8619 26.3348C39.8467 25.909 39.7361 25.6408 39.6619 25.5348C39.6407 25.5621 39.5816 25.6045 39.5043 25.6818C38.5225 26.662 36.9635 27.7453 36.362 28.1165C36.0059 28.3332 35.5393 28.2241 35.3196 27.8696C35.1014 27.5135 35.212 27.0469 35.5681 26.8257C36.0984 26.4984 37.5559 25.4878 38.4331 24.6091C39.1892 23.8545 39.8664 23.9621 40.2013 24.0939C40.8982 24.3682 41.3376 25.1863 41.3755 26.2802C41.4346 27.9377 39.7316 30.0407 38.0013 30.4483C37.9422 30.4649 37.8832 30.471 37.8256 30.471Z" fill="#46C190"/>
<path d="M63.4142 65.4896H60.8764C60.6613 65.4896 60.4567 65.3972 60.3128 65.2396C60.1689 65.0806 60.0992 64.8669 60.1234 64.6533C60.2734 63.2185 60.628 59.2141 60.4643 57.9323C60.3022 56.6642 59.9613 54.9687 59.7128 53.7324L59.5401 52.8643C59.5022 52.6597 59.1674 52.0976 58.872 51.6022C57.9432 50.0401 56.5402 47.6781 56.869 45.1781C56.9235 44.7645 57.2902 44.4615 57.719 44.5251C58.1326 44.5797 58.425 44.96 58.3704 45.3766C58.1099 47.3553 59.3022 49.3629 60.1734 50.8295C60.6174 51.5749 60.937 52.1158 61.0264 52.5779L61.1961 53.4355C61.4491 54.6945 61.7946 56.4202 61.9643 57.7414C62.134 59.061 61.8567 62.4019 61.7097 63.9745H62.6688C62.687 63.5715 62.7173 63.0079 62.7597 62.2322C62.8355 60.8458 62.9309 59.1186 62.9097 58.4989C62.8643 57.2414 62.9506 52.8446 63.0839 51.8567C63.1779 51.1749 63.8066 50.2901 64.8263 48.9023C65.4369 48.069 66.0702 47.2084 66.4687 46.4781C67.3308 44.9039 67.8065 40.7934 67.152 37.6481C66.5505 34.7497 64.093 32.4391 61.037 31.8967C59.2235 31.5755 57.8371 32.0694 56.4947 32.5482C55.5236 32.8937 54.6054 33.2194 53.5979 33.2194C51.5116 33.2194 47.4526 33.0194 45.4511 32.4861C43.5224 31.9694 40.3452 30.4331 39.2938 29.6998C38.9529 29.4619 38.868 28.9892 39.1074 28.6468C39.3453 28.3014 39.818 28.2165 40.1619 28.4574C41.1058 29.1135 44.0906 30.5528 45.8466 31.021C47.6102 31.4937 51.4434 31.7043 53.6024 31.7043C54.3478 31.7043 55.1099 31.4331 55.9917 31.1195C57.4462 30.5998 59.0947 30.0134 61.3052 30.4043C64.9657 31.0528 67.9111 33.8406 68.6383 37.339C69.3186 40.6131 68.9353 45.1327 67.799 47.2053C67.352 48.0235 66.6899 48.925 66.049 49.7977C65.4869 50.5613 64.64 51.7158 64.5869 52.0613C64.4672 52.9431 64.3839 57.2869 64.4248 58.4429C64.4491 59.1323 64.3566 60.8216 64.2748 62.314C64.2218 63.273 64.1551 64.4654 64.1703 64.67C64.1839 64.8806 64.1112 65.0912 63.9673 65.2442C63.8233 65.3972 63.6233 65.4896 63.4142 65.4896Z" fill="#46C190"/>
<path d="M59.9884 53.3506C59.746 53.3506 59.5066 53.2339 59.3596 53.0173C58.7551 52.1249 55.8703 51.1643 52.9401 51.2355C51.1038 51.2734 49.1584 52.2037 48.1266 53.0506C47.8054 53.3188 47.3267 53.2703 47.06 52.9476C46.7949 52.6249 46.8403 52.1476 47.1646 51.8825C48.4312 50.8401 50.6993 49.7674 52.9083 49.7204C55.8007 49.681 59.4808 50.4962 60.6141 52.1673C60.849 52.5143 60.7581 52.984 60.4126 53.2188C60.2823 53.3082 60.1354 53.3506 59.9884 53.3506Z" fill="#46C190"/>
<path d="M46.707 65.4896H43.9162C43.698 65.4896 43.4919 65.3957 43.348 65.2321C43.2041 65.0699 43.1374 64.8518 43.1647 64.6351C43.1707 64.5836 43.8343 59.3428 43.7934 57.6005C43.7495 55.7111 43.401 53.4915 43.0162 52.6521C42.8783 52.3521 42.542 51.8567 42.1859 51.3325C41.4177 50.2022 40.5481 48.9189 40.4163 47.8644C40.3647 47.4493 40.6587 47.0705 41.0738 47.0175C41.4874 46.9599 41.8677 47.2584 41.9192 47.675C42.0071 48.3704 42.8344 49.5916 43.4404 50.4825C43.8495 51.084 44.2025 51.6052 44.3934 52.0234C44.9298 53.1945 45.2661 55.7536 45.3085 57.5656C45.3419 58.9883 44.9631 62.3776 44.7722 63.973H45.9631C45.9964 62.6003 46.1055 59.7443 46.3782 57.5323C46.4949 56.5778 46.6176 55.2808 46.7433 53.9476C47.0403 50.8007 47.2539 48.6795 47.51 47.9129C47.6418 47.5174 48.0691 47.3023 48.4675 47.4341C48.8645 47.5674 49.0781 47.9962 48.9463 48.3932C48.7266 49.0538 48.463 51.8461 48.2509 54.0915C48.1236 55.4414 47.9994 56.755 47.8797 57.7202C47.5403 60.4746 47.463 64.2578 47.463 64.7336C47.4645 65.1502 47.1267 65.4896 46.707 65.4896Z" fill="#46C190"/>
<path d="M42.6073 53.4688C41.0286 53.4688 39.0787 52.737 38.3332 50.4598C38.0044 49.4553 37.7681 48.4902 37.5423 47.5584C37.2075 46.1811 36.8605 44.7569 36.1954 43.157C35.8712 42.3752 35.6272 41.6934 35.4091 41.0889C34.8742 39.5995 34.553 38.7011 33.6046 37.8723C33.2894 37.5965 33.2576 37.1178 33.5334 36.8026C33.8091 36.4875 34.2894 36.4587 34.603 36.7299C35.8484 37.8193 36.2621 38.9753 36.8363 40.5768C37.0454 41.1631 37.2802 41.8207 37.5954 42.5767C38.3044 44.2842 38.665 45.766 39.015 47.2008C39.2453 48.1462 39.462 49.0401 39.7726 49.9901C40.471 52.1203 42.6679 52.0522 43.3831 51.8613C43.7846 51.7643 44.2027 51.9931 44.3103 52.3976C44.4179 52.8021 44.1785 53.2173 43.774 53.3249C43.4331 53.4158 43.0346 53.4688 42.6073 53.4688Z" fill="#46C190"/>
<path d="M71.3215 50.1507C70.9594 50.1507 70.6397 49.8916 70.5761 49.5235C70.464 48.875 70.4534 47.4856 70.4428 45.7266C70.4292 43.7236 70.4125 41.454 70.2337 40.0131C69.9443 37.7011 67.6171 35.5648 66.1202 34.9754C65.7308 34.8224 65.5399 34.3815 65.6929 33.9936C65.8475 33.6042 66.2853 33.4073 66.6762 33.5679C68.4898 34.283 71.3534 36.7663 71.7367 39.8268C71.9276 41.357 71.9443 43.6736 71.9579 45.719C71.9685 47.2735 71.9791 48.7417 72.07 49.2659C72.1412 49.678 71.8655 50.0704 71.4534 50.1416C71.4079 50.1477 71.364 50.1507 71.3215 50.1507Z" fill="#46C190"/>
<path d="M71.8018 57.2278C71.7851 57.2278 71.77 57.2278 71.7533 57.2262C71.5109 57.2096 71.2912 57.0793 71.1609 56.8762C71.1382 56.8414 70.5897 55.9687 69.9261 54.5006C69.5382 53.6415 68.7201 51.4916 69.4852 50.1007C69.7109 49.6901 70.1761 49.1719 71.1018 49.0401C72.0139 48.9098 72.7305 49.0992 73.2396 49.5992C74.1244 50.4689 74.0608 51.9946 73.9047 53.2264C73.626 55.4369 72.4336 56.8959 72.3836 56.9565C72.2396 57.1278 72.026 57.2278 71.8018 57.2278ZM71.6366 50.5128C71.5412 50.5128 71.4336 50.5219 71.3169 50.5386C70.9897 50.584 70.8791 50.7113 70.8139 50.8295C70.5291 51.3461 70.7321 52.5991 71.3079 53.8763C71.4957 54.2915 71.673 54.6566 71.8306 54.9642C72.0684 54.4642 72.3048 53.8036 72.4018 53.0355C72.5987 51.4643 72.3881 50.887 72.1775 50.678C72.0669 50.5673 71.8851 50.5128 71.6366 50.5128Z" fill="#46C190"/>
</svg>
