<svg width="100" height="105" viewBox="0 0 100 105" fill="none" xmlns="http://www.w3.org/2000/svg">
<path d="M20.6641 94H19.3984V85.8594C19.3984 85.1823 19.4193 84.5417 19.4609 83.9375C19.3516 84.0469 19.2292 84.1615 19.0938 84.2812C18.9583 84.401 18.3385 84.9089 17.2344 85.8047L16.5469 84.9141L19.5703 82.5781H20.6641V94ZM24.8906 90.3047V89.1172H28.7266V90.3047H24.8906ZM37.25 85.2656C37.25 85.9948 37.0443 86.5911 36.6328 87.0547C36.2266 87.5182 35.6484 87.8281 34.8984 87.9844V88.0469C35.8151 88.1615 36.4948 88.4531 36.9375 88.9219C37.3802 89.3906 37.6016 90.0052 37.6016 90.7656C37.6016 91.8542 37.224 92.6927 36.4688 93.2812C35.7135 93.8646 34.6406 94.1562 33.25 94.1562C32.6458 94.1562 32.0911 94.1094 31.5859 94.0156C31.0859 93.9271 30.599 93.7682 30.125 93.5391V92.3047C30.6198 92.5495 31.1458 92.737 31.7031 92.8672C32.2656 92.9922 32.7969 93.0547 33.2969 93.0547C35.2708 93.0547 36.2578 92.2812 36.2578 90.7344C36.2578 89.349 35.1693 88.6562 32.9922 88.6562H31.8672V87.5391H33.0078C33.8984 87.5391 34.6042 87.3438 35.125 86.9531C35.6458 86.5573 35.9062 86.0104 35.9062 85.3125C35.9062 84.7552 35.7135 84.3177 35.3281 84C34.9479 83.6823 34.4297 83.5234 33.7734 83.5234C33.2734 83.5234 32.8021 83.5911 32.3594 83.7266C31.9167 83.862 31.4115 84.112 30.8438 84.4766L30.1875 83.6016C30.6562 83.2318 31.1953 82.9427 31.8047 82.7344C32.4193 82.5208 33.0651 82.4141 33.7422 82.4141C34.8516 82.4141 35.7135 82.6693 36.3281 83.1797C36.9427 83.6849 37.25 84.3802 37.25 85.2656ZM46.8438 93.0859C47.0729 93.0859 47.2943 93.0703 47.5078 93.0391C47.7214 93.0026 47.8906 92.9661 48.0156 92.9297V93.9219C47.875 93.9896 47.6667 94.0443 47.3906 94.0859C47.1198 94.1328 46.875 94.1562 46.6562 94.1562C45 94.1562 44.1719 93.2839 44.1719 91.5391V86.4453H42.9453V85.8203L44.1719 85.2812L44.7188 83.4531H45.4688V85.4375H47.9531V86.4453H45.4688V91.4844C45.4688 92 45.5911 92.3958 45.8359 92.6719C46.0807 92.9479 46.4167 93.0859 46.8438 93.0859ZM51.0312 94H49.7344V85.4375H51.0312V94ZM49.625 83.1172C49.625 82.8203 49.6979 82.6042 49.8438 82.4688C49.9896 82.3281 50.1719 82.2578 50.3906 82.2578C50.599 82.2578 50.7786 82.3281 50.9297 82.4688C51.0807 82.6094 51.1562 82.8255 51.1562 83.1172C51.1562 83.4089 51.0807 83.6276 50.9297 83.7734C50.7786 83.9141 50.599 83.9844 50.3906 83.9844C50.1719 83.9844 49.9896 83.9141 49.8438 83.7734C49.6979 83.6276 49.625 83.4089 49.625 83.1172ZM64.6953 94V88.4297C64.6953 87.7474 64.5495 87.237 64.2578 86.8984C63.9661 86.5547 63.513 86.3828 62.8984 86.3828C62.0911 86.3828 61.4948 86.6146 61.1094 87.0781C60.724 87.5417 60.5312 88.2552 60.5312 89.2188V94H59.2344V88.4297C59.2344 87.7474 59.0885 87.237 58.7969 86.8984C58.5052 86.5547 58.0495 86.3828 57.4297 86.3828C56.6172 86.3828 56.0208 86.6276 55.6406 87.1172C55.2656 87.6016 55.0781 88.3984 55.0781 89.5078V94H53.7812V85.4375H54.8359L55.0469 86.6094H55.1094C55.3542 86.1927 55.6979 85.8672 56.1406 85.6328C56.5885 85.3984 57.0885 85.2812 57.6406 85.2812C58.9792 85.2812 59.8542 85.7656 60.2656 86.7344H60.3281C60.5833 86.2865 60.9531 85.9323 61.4375 85.6719C61.9219 85.4115 62.474 85.2812 63.0938 85.2812C64.0625 85.2812 64.7865 85.5312 65.2656 86.0312C65.75 86.526 65.9922 87.3203 65.9922 88.4141V94H64.6953ZM72.2891 94.1562C71.0234 94.1562 70.0234 93.7708 69.2891 93C68.5599 92.2292 68.1953 91.1589 68.1953 89.7891C68.1953 88.4089 68.5339 87.3125 69.2109 86.5C69.8932 85.6875 70.8073 85.2812 71.9531 85.2812C73.026 85.2812 73.875 85.6354 74.5 86.3438C75.125 87.0469 75.4375 87.9766 75.4375 89.1328V89.9531H69.5391C69.5651 90.9583 69.8177 91.7214 70.2969 92.2422C70.7812 92.763 71.4609 93.0234 72.3359 93.0234C73.2578 93.0234 74.1693 92.8307 75.0703 92.4453V93.6016C74.612 93.7995 74.1771 93.9401 73.7656 94.0234C73.3594 94.112 72.8672 94.1562 72.2891 94.1562ZM71.9375 86.3672C71.25 86.3672 70.7005 86.5911 70.2891 87.0391C69.8828 87.487 69.6432 88.1068 69.5703 88.8984H74.0469C74.0469 88.0807 73.8646 87.4557 73.5 87.0234C73.1354 86.5859 72.6146 86.3672 71.9375 86.3672ZM83.1797 91.6641C83.1797 92.4609 82.8828 93.0755 82.2891 93.5078C81.6953 93.9401 80.862 94.1562 79.7891 94.1562C78.6536 94.1562 77.7682 93.9766 77.1328 93.6172V92.4141C77.5443 92.6224 77.9844 92.7865 78.4531 92.9062C78.9271 93.026 79.3828 93.0859 79.8203 93.0859C80.4974 93.0859 81.0182 92.9792 81.3828 92.7656C81.7474 92.5469 81.9297 92.2161 81.9297 91.7734C81.9297 91.4401 81.7839 91.1562 81.4922 90.9219C81.2057 90.6823 80.6432 90.401 79.8047 90.0781C79.0078 89.7812 78.4401 89.5234 78.1016 89.3047C77.7682 89.0807 77.5182 88.8281 77.3516 88.5469C77.1901 88.2656 77.1094 87.9297 77.1094 87.5391C77.1094 86.8411 77.3932 86.2917 77.9609 85.8906C78.5286 85.4844 79.3073 85.2812 80.2969 85.2812C81.2188 85.2812 82.1198 85.4688 83 85.8438L82.5391 86.8984C81.6797 86.5443 80.901 86.3672 80.2031 86.3672C79.5885 86.3672 79.125 86.4635 78.8125 86.6562C78.5 86.849 78.3438 87.1146 78.3438 87.4531C78.3438 87.6823 78.401 87.8776 78.5156 88.0391C78.6354 88.2005 78.8255 88.3542 79.0859 88.5C79.3464 88.6458 79.8464 88.8568 80.5859 89.1328C81.6016 89.5026 82.2865 89.875 82.6406 90.25C83 90.625 83.1797 91.0964 83.1797 91.6641Z" fill="#46C190"/>
<path d="M70.7487 31.8013C68.4688 29.9842 65.2507 28.4965 61.1839 27.3797C53.3625 25.2318 44.5425 25 41.1134 25C32.2284 25 25 32.2285 25 41.1135V47.9406C25 56.8257 32.2284 64.0541 41.1134 64.0541C45.2104 64.0541 48.2872 62.7707 51.5447 61.4119C54.9135 60.0067 58.3968 58.5538 63.2958 58.5538C69.7495 58.5538 75 53.3032 75 46.8496V40.0225C75 36.8155 73.5696 34.0495 70.7487 31.8013ZM69.9264 48.496C70.2961 48.8889 70.9142 48.9073 71.3068 48.5377C71.9691 47.9141 72.5518 47.2192 73.0469 46.4711V46.8496C73.0469 52.2265 68.6726 56.6007 63.2958 56.6007C58.0058 56.6007 54.339 58.1302 50.7929 59.6093C47.7209 60.8906 44.8193 62.101 41.1134 62.101C33.6114 62.101 27.4543 56.2364 26.9832 48.8512C29.7254 53.8388 35.031 57.2268 41.1134 57.2268C45.2104 57.2268 48.2872 55.9434 51.5447 54.5846C54.9135 53.1794 58.3968 51.7265 63.2958 51.7265C63.6598 51.7265 64.0274 51.7093 64.3888 51.6755C64.9258 51.6252 65.3203 51.1491 65.27 50.6121C65.2197 50.0752 64.7431 49.6808 64.2066 49.731C63.9056 49.7591 63.5992 49.7734 63.2958 49.7734C58.0058 49.7734 54.339 51.3029 50.7929 52.782C47.7209 54.0634 44.8193 55.2737 41.1134 55.2737C33.3054 55.2737 26.9531 48.9215 26.9531 41.1136C26.9531 33.3056 33.3054 26.9532 41.1134 26.9532C44.4633 26.9532 53.0744 27.1783 60.6667 29.2632C68.8815 31.5191 73.0469 35.1391 73.0469 40.0225C73.0469 42.688 71.9246 45.2733 69.968 47.1155C69.5753 47.4853 69.5566 48.1033 69.9264 48.496Z" fill="#46C190"/>
<path d="M69.1234 49.1193C68.8937 48.6313 68.3118 48.4218 67.824 48.6515C67.8169 48.6547 67.8077 48.6593 67.8007 48.6627C67.3184 48.9039 67.1229 49.4906 67.364 49.9729C67.5351 50.3151 67.88 50.5129 68.2383 50.5129C68.383 50.5129 68.5299 50.4806 68.6684 50.4125C69.1472 50.1788 69.351 49.603 69.1234 49.1193Z" fill="#46C190"/>
<path d="M48.163 29.1814L48.1127 29.1773C47.5742 29.1353 47.1044 29.5355 47.0615 30.0732C47.0186 30.6108 47.4197 31.0814 47.9573 31.1244L48.0072 31.1283C48.0337 31.1304 48.0599 31.1315 48.0861 31.1315C48.5901 31.1315 49.0175 30.7438 49.0586 30.2328C49.1015 29.6951 48.7005 29.2245 48.163 29.1814Z" fill="#46C190"/>
<path d="M70.484 37.3915C69.5153 35.4771 67.36 33.8226 64.0778 32.4742C61.422 31.383 58.5176 30.6938 56.5488 30.3076C55.3688 30.0762 54.1323 29.8696 52.8735 29.6936C52.3396 29.6182 51.8459 29.9913 51.7711 30.5255C51.6963 31.0597 52.0688 31.5532 52.603 31.6279C53.8266 31.799 55.0277 31.9997 56.1729 32.2243C62.8809 33.5398 67.4619 35.7446 68.7412 38.2731C69.0099 38.8044 69.1406 39.3766 69.1406 40.0223C69.1406 43.2451 66.5186 45.867 63.2958 45.867C60.0372 45.867 56.8728 46.3996 53.6218 47.4952C52.2216 47.9671 50.8621 48.5313 49.5473 49.077C48.6777 49.4378 47.7785 49.8111 46.8859 50.1493C44.6335 51.003 42.907 51.3672 41.1133 51.3672C35.4592 51.3672 30.8592 46.7673 30.8592 41.1133C30.8592 35.4592 35.4592 30.8592 41.1133 30.8592C42.2164 30.8592 43.3362 30.8801 44.4415 30.9213C44.6291 30.9283 44.8169 30.9358 45.0047 30.9441C45.5431 30.9685 45.9997 30.5503 46.0234 30.0115C46.0472 29.4727 45.6296 29.0165 45.0909 28.9928C44.8985 28.9843 44.7061 28.9766 44.5141 28.9695C43.3847 28.9274 42.2405 28.9061 41.1132 28.9061C34.3822 28.9061 28.906 34.3822 28.906 41.1133C28.906 47.8443 34.3821 53.3203 41.1132 53.3203C43.1577 53.3203 45.0911 52.9182 47.578 51.9756C48.499 51.6266 49.4125 51.2475 50.296 50.8808C51.5804 50.3478 52.9087 49.7965 54.2456 49.3459C57.2922 48.3192 60.2526 47.8201 63.2958 47.8201C67.5956 47.8203 71.0937 44.3221 71.0937 40.0224C71.0937 39.0632 70.8942 38.2027 70.484 37.3915Z" fill="#46C190"/>
<path d="M42.0487 32.7907C39.3186 32.7907 37.0974 34.8048 37.0974 37.2806C37.0974 39.7564 39.3186 41.7706 42.0487 41.7706C44.7789 41.7706 46.9999 39.7564 46.9999 37.2806C46.9999 34.8048 44.7789 32.7907 42.0487 32.7907ZM42.0487 39.8173C40.3955 39.8173 39.0505 38.6794 39.0505 37.2805C39.0505 35.8818 40.3955 34.7437 42.0487 34.7437C43.7019 34.7437 45.0468 35.8817 45.0468 37.2805C45.0468 38.6794 43.7019 39.8173 42.0487 39.8173Z" fill="#46C190"/>
<rect x="0.5" y="0.5" width="99" height="99" stroke="#46C190"/>
</svg>
