<svg width="100" height="105" viewBox="0 0 100 105" fill="none" xmlns="http://www.w3.org/2000/svg">
<path d="M13.2266 89.7109C13.2266 91.1068 12.875 92.1979 12.1719 92.9844C11.4688 93.7656 10.4974 94.1562 9.25781 94.1562C8.49219 94.1562 7.8125 93.9766 7.21875 93.6172C6.625 93.2578 6.16667 92.7422 5.84375 92.0703C5.52083 91.3984 5.35938 90.612 5.35938 89.7109C5.35938 88.3151 5.70833 87.2292 6.40625 86.4531C7.10417 85.6719 8.07292 85.2812 9.3125 85.2812C10.5104 85.2812 11.4609 85.6797 12.1641 86.4766C12.8724 87.2734 13.2266 88.3516 13.2266 89.7109ZM6.70312 89.7109C6.70312 90.8047 6.92188 91.638 7.35938 92.2109C7.79688 92.7839 8.4401 93.0703 9.28906 93.0703C10.138 93.0703 10.7812 92.7865 11.2188 92.2188C11.6615 91.6458 11.8828 90.8099 11.8828 89.7109C11.8828 88.6224 11.6615 87.7969 11.2188 87.2344C10.7812 86.6667 10.1328 86.3828 9.27344 86.3828C8.42448 86.3828 7.78385 86.6615 7.35156 87.2188C6.91927 87.776 6.70312 88.6068 6.70312 89.7109ZM18.9297 94.1562C17.6901 94.1562 16.7292 93.776 16.0469 93.0156C15.3698 92.25 15.0312 91.1693 15.0312 89.7734C15.0312 88.3411 15.375 87.2344 16.0625 86.4531C16.7552 85.6719 17.7396 85.2812 19.0156 85.2812C19.4271 85.2812 19.8385 85.3255 20.25 85.4141C20.6615 85.5026 20.9844 85.6068 21.2188 85.7266L20.8203 86.8281C20.5339 86.7135 20.2214 86.6198 19.8828 86.5469C19.5443 86.4688 19.2448 86.4297 18.9844 86.4297C17.2448 86.4297 16.375 87.5391 16.375 89.7578C16.375 90.8099 16.5859 91.6172 17.0078 92.1797C17.4349 92.7422 18.0651 93.0234 18.8984 93.0234C19.612 93.0234 20.3438 92.8698 21.0938 92.5625V93.7109C20.5208 94.0078 19.7995 94.1562 18.9297 94.1562ZM26.5547 94.1562C25.3151 94.1562 24.3542 93.776 23.6719 93.0156C22.9948 92.25 22.6562 91.1693 22.6562 89.7734C22.6562 88.3411 23 87.2344 23.6875 86.4531C24.3802 85.6719 25.3646 85.2812 26.6406 85.2812C27.0521 85.2812 27.4635 85.3255 27.875 85.4141C28.2865 85.5026 28.6094 85.6068 28.8438 85.7266L28.4453 86.8281C28.1589 86.7135 27.8464 86.6198 27.5078 86.5469C27.1693 86.4688 26.8698 86.4297 26.6094 86.4297C24.8698 86.4297 24 87.5391 24 89.7578C24 90.8099 24.2109 91.6172 24.6328 92.1797C25.0599 92.7422 25.6901 93.0234 26.5234 93.0234C27.237 93.0234 27.9688 92.8698 28.7188 92.5625V93.7109C28.1458 94.0078 27.4245 94.1562 26.5547 94.1562ZM36.0234 94L35.7656 92.7812H35.7031C35.276 93.3177 34.849 93.6823 34.4219 93.875C34 94.0625 33.4714 94.1562 32.8359 94.1562C31.987 94.1562 31.3203 93.9375 30.8359 93.5C30.3568 93.0625 30.1172 92.4401 30.1172 91.6328C30.1172 89.9036 31.5 88.9974 34.2656 88.9141L35.7188 88.8672V88.3359C35.7188 87.6641 35.5729 87.1693 35.2812 86.8516C34.9948 86.5286 34.5339 86.3672 33.8984 86.3672C33.1849 86.3672 32.3776 86.5859 31.4766 87.0234L31.0781 86.0312C31.5 85.8021 31.9609 85.6224 32.4609 85.4922C32.9661 85.362 33.4714 85.2969 33.9766 85.2969C34.9974 85.2969 35.7526 85.5234 36.2422 85.9766C36.737 86.4297 36.9844 87.1562 36.9844 88.1562V94H36.0234ZM33.0938 93.0859C33.901 93.0859 34.5339 92.8646 34.9922 92.4219C35.4557 91.9792 35.6875 91.3594 35.6875 90.5625V89.7891L34.3906 89.8438C33.3594 89.8802 32.6146 90.0417 32.1562 90.3281C31.7031 90.6094 31.4766 91.0495 31.4766 91.6484C31.4766 92.1172 31.6172 92.474 31.8984 92.7188C32.1849 92.9635 32.5833 93.0859 33.0938 93.0859ZM45.1875 91.6641C45.1875 92.4609 44.8906 93.0755 44.2969 93.5078C43.7031 93.9401 42.8698 94.1562 41.7969 94.1562C40.6615 94.1562 39.776 93.9766 39.1406 93.6172V92.4141C39.5521 92.6224 39.9922 92.7865 40.4609 92.9062C40.9349 93.026 41.3906 93.0859 41.8281 93.0859C42.5052 93.0859 43.026 92.9792 43.3906 92.7656C43.7552 92.5469 43.9375 92.2161 43.9375 91.7734C43.9375 91.4401 43.7917 91.1562 43.5 90.9219C43.2135 90.6823 42.651 90.401 41.8125 90.0781C41.0156 89.7812 40.4479 89.5234 40.1094 89.3047C39.776 89.0807 39.526 88.8281 39.3594 88.5469C39.1979 88.2656 39.1172 87.9297 39.1172 87.5391C39.1172 86.8411 39.401 86.2917 39.9688 85.8906C40.5365 85.4844 41.3151 85.2812 42.3047 85.2812C43.2266 85.2812 44.1276 85.4688 45.0078 85.8438L44.5469 86.8984C43.6875 86.5443 42.9089 86.3672 42.2109 86.3672C41.5964 86.3672 41.1328 86.4635 40.8203 86.6562C40.5078 86.849 40.3516 87.1146 40.3516 87.4531C40.3516 87.6823 40.4089 87.8776 40.5234 88.0391C40.6432 88.2005 40.8333 88.3542 41.0938 88.5C41.3542 88.6458 41.8542 88.8568 42.5938 89.1328C43.6094 89.5026 44.2943 89.875 44.6484 90.25C45.0078 90.625 45.1875 91.0964 45.1875 91.6641ZM48.6016 94H47.3047V85.4375H48.6016V94ZM47.1953 83.1172C47.1953 82.8203 47.2682 82.6042 47.4141 82.4688C47.5599 82.3281 47.7422 82.2578 47.9609 82.2578C48.1693 82.2578 48.349 82.3281 48.5 82.4688C48.651 82.6094 48.7266 82.8255 48.7266 83.1172C48.7266 83.4089 48.651 83.6276 48.5 83.7734C48.349 83.9141 48.1693 83.9844 47.9609 83.9844C47.7422 83.9844 47.5599 83.9141 47.4141 83.7734C47.2682 83.6276 47.1953 83.4089 47.1953 83.1172ZM58.7422 89.7109C58.7422 91.1068 58.3906 92.1979 57.6875 92.9844C56.9844 93.7656 56.013 94.1562 54.7734 94.1562C54.0078 94.1562 53.3281 93.9766 52.7344 93.6172C52.1406 93.2578 51.6823 92.7422 51.3594 92.0703C51.0365 91.3984 50.875 90.612 50.875 89.7109C50.875 88.3151 51.224 87.2292 51.9219 86.4531C52.6198 85.6719 53.5885 85.2812 54.8281 85.2812C56.026 85.2812 56.9766 85.6797 57.6797 86.4766C58.388 87.2734 58.7422 88.3516 58.7422 89.7109ZM52.2188 89.7109C52.2188 90.8047 52.4375 91.638 52.875 92.2109C53.3125 92.7839 53.9557 93.0703 54.8047 93.0703C55.6536 93.0703 56.2969 92.7865 56.7344 92.2188C57.1771 91.6458 57.3984 90.8099 57.3984 89.7109C57.3984 88.6224 57.1771 87.7969 56.7344 87.2344C56.2969 86.6667 55.6484 86.3828 54.7891 86.3828C53.9401 86.3828 53.2995 86.6615 52.8672 87.2188C52.4349 87.776 52.2188 88.6068 52.2188 89.7109ZM66.8828 94V88.4609C66.8828 87.763 66.724 87.2422 66.4062 86.8984C66.0885 86.5547 65.5911 86.3828 64.9141 86.3828C64.0182 86.3828 63.362 86.625 62.9453 87.1094C62.5286 87.5938 62.3203 88.3932 62.3203 89.5078V94H61.0234V85.4375H62.0781L62.2891 86.6094H62.3516C62.6172 86.1875 62.9896 85.862 63.4688 85.6328C63.9479 85.3984 64.4818 85.2812 65.0703 85.2812C66.1016 85.2812 66.8776 85.5312 67.3984 86.0312C67.9193 86.526 68.1797 87.3203 68.1797 88.4141V94H66.8828ZM76.1172 94L75.8594 92.7812H75.7969C75.3698 93.3177 74.9427 93.6823 74.5156 93.875C74.0938 94.0625 73.5651 94.1562 72.9297 94.1562C72.0807 94.1562 71.4141 93.9375 70.9297 93.5C70.4505 93.0625 70.2109 92.4401 70.2109 91.6328C70.2109 89.9036 71.5938 88.9974 74.3594 88.9141L75.8125 88.8672V88.3359C75.8125 87.6641 75.6667 87.1693 75.375 86.8516C75.0885 86.5286 74.6276 86.3672 73.9922 86.3672C73.2786 86.3672 72.4714 86.5859 71.5703 87.0234L71.1719 86.0312C71.5938 85.8021 72.0547 85.6224 72.5547 85.4922C73.0599 85.362 73.5651 85.2969 74.0703 85.2969C75.0911 85.2969 75.8464 85.5234 76.3359 85.9766C76.8307 86.4297 77.0781 87.1562 77.0781 88.1562V94H76.1172ZM73.1875 93.0859C73.9948 93.0859 74.6276 92.8646 75.0859 92.4219C75.5495 91.9792 75.7812 91.3594 75.7812 90.5625V89.7891L74.4844 89.8438C73.4531 89.8802 72.7083 90.0417 72.25 90.3281C71.7969 90.6094 71.5703 91.0495 71.5703 91.6484C71.5703 92.1172 71.7109 92.474 71.9922 92.7188C72.2786 92.9635 72.6771 93.0859 73.1875 93.0859ZM81.0547 94H79.7578V81.8438H81.0547V94ZM85.1016 94H83.8047V81.8438H85.1016V94ZM86.4922 85.4375H87.8828L89.7578 90.3203C90.1693 91.4349 90.4245 92.2396 90.5234 92.7344H90.5859C90.6536 92.4688 90.7943 92.0156 91.0078 91.375C91.2266 90.7292 91.9349 88.75 93.1328 85.4375H94.5234L90.8438 95.1875C90.4792 96.151 90.0521 96.8333 89.5625 97.2344C89.0781 97.6406 88.4818 97.8438 87.7734 97.8438C87.3776 97.8438 86.987 97.7995 86.6016 97.7109V96.6719C86.888 96.7344 87.2083 96.7656 87.5625 96.7656C88.4531 96.7656 89.0885 96.2656 89.4688 95.2656L89.9453 94.0469L86.4922 85.4375Z" fill="#46C190"/>
<path d="M70.7487 31.8013C68.4688 29.9842 65.2507 28.4965 61.1839 27.3797C53.3625 25.2318 44.5425 25 41.1134 25C32.2284 25 25 32.2285 25 41.1135V47.9406C25 56.8257 32.2284 64.0541 41.1134 64.0541C45.2104 64.0541 48.2872 62.7707 51.5447 61.4119C54.9135 60.0067 58.3968 58.5538 63.2958 58.5538C69.7495 58.5538 75 53.3032 75 46.8496V40.0225C75 36.8155 73.5696 34.0495 70.7487 31.8013ZM69.9264 48.496C70.2961 48.8889 70.9142 48.9073 71.3068 48.5377C71.9691 47.9141 72.5518 47.2192 73.0469 46.4711V46.8496C73.0469 52.2265 68.6726 56.6007 63.2958 56.6007C58.0058 56.6007 54.339 58.1302 50.7929 59.6093C47.7209 60.8906 44.8193 62.101 41.1134 62.101C33.6114 62.101 27.4543 56.2364 26.9832 48.8512C29.7254 53.8388 35.031 57.2268 41.1134 57.2268C45.2104 57.2268 48.2872 55.9434 51.5447 54.5846C54.9135 53.1794 58.3968 51.7265 63.2958 51.7265C63.6598 51.7265 64.0274 51.7093 64.3888 51.6755C64.9258 51.6252 65.3203 51.1491 65.27 50.6121C65.2197 50.0752 64.7431 49.6808 64.2066 49.731C63.9056 49.7591 63.5992 49.7734 63.2958 49.7734C58.0058 49.7734 54.339 51.3029 50.7929 52.782C47.7209 54.0634 44.8193 55.2737 41.1134 55.2737C33.3054 55.2737 26.9531 48.9215 26.9531 41.1136C26.9531 33.3056 33.3054 26.9532 41.1134 26.9532C44.4633 26.9532 53.0744 27.1783 60.6667 29.2632C68.8815 31.5191 73.0469 35.1391 73.0469 40.0225C73.0469 42.688 71.9246 45.2733 69.968 47.1155C69.5753 47.4853 69.5566 48.1033 69.9264 48.496Z" fill="#46C190"/>
<path d="M69.1234 49.1193C68.8937 48.6313 68.3118 48.4218 67.824 48.6515C67.8169 48.6547 67.8077 48.6593 67.8007 48.6627C67.3184 48.9039 67.1229 49.4906 67.364 49.9729C67.5351 50.3151 67.88 50.5129 68.2383 50.5129C68.383 50.5129 68.5299 50.4806 68.6684 50.4125C69.1472 50.1788 69.351 49.603 69.1234 49.1193Z" fill="#46C190"/>
<path d="M48.163 29.1814L48.1127 29.1773C47.5742 29.1353 47.1044 29.5355 47.0615 30.0732C47.0186 30.6108 47.4197 31.0814 47.9573 31.1244L48.0072 31.1283C48.0337 31.1304 48.0599 31.1315 48.0861 31.1315C48.5901 31.1315 49.0175 30.7438 49.0586 30.2328C49.1015 29.6951 48.7005 29.2245 48.163 29.1814Z" fill="#46C190"/>
<path d="M70.484 37.3915C69.5153 35.4771 67.36 33.8226 64.0778 32.4742C61.422 31.383 58.5176 30.6938 56.5488 30.3076C55.3688 30.0762 54.1323 29.8696 52.8735 29.6936C52.3396 29.6182 51.8459 29.9913 51.7711 30.5255C51.6963 31.0597 52.0688 31.5532 52.603 31.6279C53.8266 31.799 55.0277 31.9997 56.1729 32.2243C62.8809 33.5398 67.4619 35.7446 68.7412 38.2731C69.0099 38.8044 69.1406 39.3766 69.1406 40.0223C69.1406 43.2451 66.5186 45.867 63.2958 45.867C60.0372 45.867 56.8728 46.3996 53.6218 47.4952C52.2216 47.9671 50.8621 48.5313 49.5473 49.077C48.6777 49.4378 47.7785 49.8111 46.8859 50.1493C44.6335 51.003 42.907 51.3672 41.1133 51.3672C35.4592 51.3672 30.8592 46.7673 30.8592 41.1133C30.8592 35.4592 35.4592 30.8592 41.1133 30.8592C42.2164 30.8592 43.3362 30.8801 44.4415 30.9213C44.6291 30.9283 44.8169 30.9358 45.0047 30.9441C45.5431 30.9685 45.9997 30.5503 46.0234 30.0115C46.0472 29.4727 45.6296 29.0165 45.0909 28.9928C44.8985 28.9843 44.7061 28.9766 44.5141 28.9695C43.3847 28.9274 42.2405 28.9061 41.1132 28.9061C34.3822 28.9061 28.906 34.3822 28.906 41.1133C28.906 47.8443 34.3821 53.3203 41.1132 53.3203C43.1577 53.3203 45.0911 52.9182 47.578 51.9756C48.499 51.6266 49.4125 51.2475 50.296 50.8808C51.5804 50.3478 52.9087 49.7965 54.2456 49.3459C57.2922 48.3192 60.2526 47.8201 63.2958 47.8201C67.5956 47.8203 71.0937 44.3221 71.0937 40.0224C71.0937 39.0632 70.8942 38.2027 70.484 37.3915Z" fill="#46C190"/>
<path d="M42.0487 32.7907C39.3186 32.7907 37.0974 34.8048 37.0974 37.2806C37.0974 39.7564 39.3186 41.7706 42.0487 41.7706C44.7789 41.7706 46.9999 39.7564 46.9999 37.2806C46.9999 34.8048 44.7789 32.7907 42.0487 32.7907ZM42.0487 39.8173C40.3955 39.8173 39.0505 38.6794 39.0505 37.2805C39.0505 35.8818 40.3955 34.7437 42.0487 34.7437C43.7019 34.7437 45.0468 35.8817 45.0468 37.2805C45.0468 38.6794 43.7019 39.8173 42.0487 39.8173Z" fill="#46C190"/>
<rect x="0.5" y="0.5" width="99" height="99" stroke="#46C190"/>
</svg>
