<svg width="100" height="105" viewBox="0 0 100 105" fill="none" xmlns="http://www.w3.org/2000/svg">
<path d="M74.9337 39.8532C76.6572 37.622 75.9107 35.5303 75.3221 34.8C74.0342 32.8436 72.2566 31.6378 70.0383 31.2158C69.8632 31.1823 69.6843 31.1711 69.5073 31.1488C69.7358 30.9546 69.9556 30.7596 70.1623 30.5627C71.6508 29.1395 72.3649 27.6185 72.2844 26.042C72.1608 23.6293 70.1799 22.0656 70.0952 21.9997L70.0555 21.9708C66.5654 19.5765 62.6478 22.474 62.4826 22.5989L62.3334 22.7426C62.2724 22.8178 62.214 22.906 62.1538 22.9839C61.7711 20.9993 60.7095 19.4209 58.9937 18.2945C58.5912 17.9692 56.0232 16.0521 53.0263 17.59C52.6555 17.7812 52.3198 18.0278 52.0028 18.2979C51.1255 18.0475 50.1493 17.9719 49.1815 18.3176C47.8666 18.7885 47.006 19.9191 46.8786 21.3434C46.7431 22.8575 47.4988 24.3234 48.8031 25.0794C49.9967 25.7708 51.4268 27.0513 52.7555 29.3989C51.9651 29.3442 51.2006 29.4289 50.4789 29.6918C46.174 31.2532 29.1479 56.4524 26.1274 64.6351C25.873 65.3252 26.0053 66.0466 26.4738 66.5206C26.7847 66.8347 27.2039 67 27.6514 67C27.8776 67 28.1107 66.958 28.3403 66.8717C36.4984 63.7988 61.5449 46.6848 63.0655 42.4062C63.273 41.8216 63.3714 41.2089 63.379 40.5781C65.7022 41.7276 66.9305 42.8463 67.5714 43.7345C68.5048 45.0285 70.0105 45.8282 71.512 45.8282H71.56C72.8116 45.8135 73.9221 45.2332 74.6087 44.2362C75.6288 42.7519 75.2668 41.1499 74.7232 40.1022C74.7949 40.0185 74.8693 39.9372 74.9337 39.8532V39.8532ZM73.9511 35.8031C74.0476 35.9307 74.8399 37.0725 73.697 38.6679C73.6612 38.6251 73.6238 38.5865 73.5875 38.5449C73.5257 38.4729 73.4639 38.4035 73.401 38.3334C73.2408 38.1526 73.0798 37.9788 72.9165 37.8124C72.8666 37.7607 72.8166 37.7095 72.7666 37.6598C70.1146 35.0359 67.0915 34.2101 64.3483 34.2101C63.3756 34.2101 62.4376 34.3137 61.564 34.4752C61.6582 34.4324 61.7559 34.3896 61.8512 34.3476C61.9844 34.2887 62.1175 34.2293 62.2537 34.1711C62.4002 34.1087 62.5486 34.0482 62.6993 33.9881C62.8248 33.9376 62.9537 33.8891 63.0815 33.8401C63.3172 33.7511 63.556 33.6648 63.7994 33.5827C63.9509 33.5311 64.1027 33.4798 64.256 33.4328C64.4044 33.3866 64.5551 33.343 64.705 33.2998C64.8721 33.2528 65.0396 33.2093 65.2082 33.1673C65.3734 33.1261 65.5397 33.086 65.7064 33.0501C65.9402 32.9997 66.1752 32.955 66.4106 32.9172C66.5376 32.8968 66.6646 32.8794 66.7917 32.8632C67.7865 32.733 68.7818 32.7203 69.7282 32.8991C71.5043 33.237 72.8727 34.1692 73.9511 35.8031V35.8031ZM63.5747 23.9149C64.068 23.575 66.802 21.8343 69.0786 23.37C69.2304 23.4956 70.5156 24.6108 70.5926 26.1311C70.646 27.1835 70.1097 28.2571 68.9973 29.3207C68.3458 29.9438 67.5527 30.56 66.6391 31.153C66.5265 31.1677 66.4148 31.1908 66.3022 31.2081C66.065 31.244 65.8284 31.2798 65.5938 31.3261C65.431 31.3588 65.2719 31.3973 65.1109 31.434C64.9255 31.4767 64.7405 31.5187 64.5578 31.5677C64.3873 31.612 64.2194 31.6598 64.0519 31.7095C63.8833 31.7592 63.7162 31.8097 63.5503 31.8629C63.3783 31.9183 63.2081 31.9742 63.0395 32.0332C62.8877 32.0864 62.7393 32.1411 62.5913 32.1966C62.4166 32.2617 62.2423 32.3261 62.0717 32.3943C61.9565 32.4405 61.8455 32.4883 61.7322 32.5357C60.996 32.8428 60.3105 33.1657 59.6963 33.4821C59.6879 33.4864 59.6776 33.4918 59.6692 33.496C60.1884 32.5237 60.7343 31.3708 61.1982 30.1272C61.2272 30.0494 61.2584 29.9738 61.2863 29.8952C61.366 29.6736 61.4389 29.4474 61.5125 29.2209C61.5526 29.0975 61.5949 28.975 61.6319 28.8501C61.6971 28.6351 61.754 28.4189 61.8116 28.2004C61.8482 28.0621 61.8852 27.9241 61.9184 27.7846C61.9691 27.57 62.0134 27.3542 62.0557 27.1376C62.0836 26.9939 62.1106 26.8509 62.1343 26.706C62.1698 26.4914 62.1988 26.2763 62.2232 26.0617C62.2316 25.9862 62.2472 25.9118 62.2548 25.8367C62.6912 25.1114 63.125 24.4798 63.5747 23.9149V23.9149ZM53.8263 19.1006C55.9862 18.0147 57.8679 19.5731 57.9439 19.6374C57.9736 19.6633 58.0041 19.6864 58.0362 19.7076C59.3995 20.5916 60.2052 21.7804 60.4986 23.3407C60.6241 24.0066 60.6424 24.7049 60.5909 25.4155L60.5848 25.4925C60.4749 26.8405 60.0942 28.2297 59.6113 29.521C59.646 28.7002 59.6071 27.8548 59.4697 27.0039C59.4655 26.9773 59.4598 26.9515 59.4556 26.9261C59.4243 26.7419 59.3892 26.558 59.3488 26.3731C59.324 26.2602 59.2954 26.1473 59.2664 26.0351C59.2428 25.9426 59.2191 25.8494 59.192 25.7569C59.1489 25.6039 59.102 25.4513 59.0513 25.2991C59.0379 25.2578 59.0226 25.2162 59.0082 25.175C58.5931 23.9777 57.9355 22.8051 56.9585 21.7095C56.9314 21.6794 56.9043 21.649 56.8773 21.6189C56.7376 21.4656 56.5942 21.3141 56.4416 21.165C56.368 21.0925 56.289 21.0205 56.212 20.9488C56.0945 20.839 55.9793 20.7288 55.8538 20.6216C55.6257 20.4239 55.3876 20.229 55.1343 20.0378C55.1328 20.0363 55.1267 20.0313 55.124 20.0293C55.0565 19.9696 54.9074 19.8455 54.6945 19.6844C54.693 19.6837 54.6922 19.6821 54.6903 19.681C54.4736 19.5176 54.1913 19.3214 53.856 19.1207C53.845 19.1126 53.8366 19.1068 53.8263 19.1006V19.1006ZM49.6469 23.5943C48.9149 23.1704 48.491 22.3473 48.5666 21.4972C48.599 21.1419 48.7775 20.2783 49.7476 19.9318C50.0215 19.8332 50.3034 19.7916 50.5857 19.7916C51.0347 19.7916 51.4837 19.901 51.9067 20.0594C51.9067 20.0594 51.9082 20.0602 51.909 20.0602C51.9201 20.0644 51.9304 20.0694 51.9414 20.0737C52.0872 20.1295 52.2302 20.1893 52.3675 20.2552C52.4354 20.2879 52.4988 20.3222 52.5648 20.3554C52.675 20.4128 52.7841 20.471 52.8859 20.5299C52.926 20.553 52.9657 20.5762 53.0038 20.5993C53.4578 20.876 53.808 21.1496 53.9796 21.291C54.0128 21.3191 54.033 21.3372 54.0372 21.3395C54.0567 21.3577 54.0773 21.3738 54.0983 21.39C54.4679 21.6667 54.8074 21.9584 55.1233 22.2617C55.2133 22.348 55.2869 22.4378 55.3716 22.5253C55.5875 22.7476 55.7977 22.9735 55.9869 23.2089C56.0697 23.3126 56.141 23.4178 56.2173 23.5222C56.3901 23.7584 56.5542 23.9997 56.701 24.2486C56.7586 24.3465 56.8136 24.4447 56.8662 24.543C57.0253 24.8401 57.1702 25.1449 57.2931 25.459C57.3125 25.5076 57.3346 25.5565 57.3533 25.6054C57.9488 27.2108 58.0846 29.0332 57.7489 31.064C57.5162 32.4713 57.089 33.7488 56.6839 34.7365C56.5408 34.2162 56.389 33.7249 56.2349 33.2482C56.2097 33.1688 56.1822 33.0925 56.1563 33.0139C56.0121 32.5796 55.8629 32.163 55.7111 31.7642C55.6852 31.6968 55.6604 31.6282 55.6341 31.5607C53.811 26.9002 51.489 24.6605 49.6469 23.5943V23.5943ZM61.4713 41.827C61.0143 43.1099 57.8306 45.9068 53.5367 49.1488C53.4646 49.1191 53.3937 49.0856 53.3113 49.0763C51.9277 48.9229 50.1359 48.2008 49.2513 46.9322C48.982 46.5453 48.4514 46.454 48.0703 46.726C47.6873 46.9981 47.5961 47.5322 47.8662 47.9191C48.8058 49.2644 50.337 50.0809 51.7312 50.4902C49.0373 52.4628 46.0363 54.5376 43.0498 56.5017C42.9231 56.3896 42.7732 56.3033 42.5939 56.2829C41.7253 56.1869 40.6038 55.7391 40.0571 54.9569C39.7878 54.5707 39.2599 54.4779 38.8761 54.7515C38.4939 55.0235 38.4023 55.5576 38.6728 55.9445C39.2946 56.8355 40.2723 57.3962 41.1993 57.7068C35.7141 61.2366 30.5307 64.22 27.749 65.2674C27.7307 65.2744 27.7135 65.2798 27.701 65.2848C27.7044 65.2701 27.7093 65.2532 27.7162 65.2343C28.3998 63.3823 29.6701 60.8863 31.2738 58.0913C31.3043 58.1218 31.3238 58.1595 31.3592 58.1861C31.9677 58.6374 32.6143 59.0293 33.2799 59.3499C33.3978 59.4066 33.5226 59.4339 33.6454 59.4339C33.9612 59.4339 34.2645 59.2543 34.4102 58.9472C34.612 58.5199 34.4335 58.0089 34.0112 57.8062C33.4402 57.5306 32.8855 57.1942 32.3617 56.8066C32.2794 56.7457 32.1882 56.7091 32.0955 56.6825C34.0791 53.3333 36.4606 49.654 38.8719 46.1534C39.1946 47.0016 39.7275 47.859 40.5206 48.4247C40.669 48.531 40.8391 48.5815 41.0089 48.5815C41.2748 48.5815 41.5365 48.4559 41.7016 48.2197C41.9713 47.8335 41.8806 47.2994 41.4983 47.0266C40.7232 46.4736 40.2811 45.3411 40.1861 44.4632C40.1811 44.4143 40.1563 44.3742 40.1437 44.328C42.0198 41.6652 43.8676 39.1746 45.516 37.0933C45.9203 38.5037 46.7294 40.0555 48.0638 41.0062C48.2122 41.1122 48.3823 41.163 48.5517 41.163C48.818 41.163 49.0804 41.037 49.2448 40.8008C49.5141 40.4143 49.4237 39.881 49.0415 39.6081C47.7857 38.7126 47.0708 36.9025 46.9194 35.5068C46.9152 35.4698 46.8954 35.4397 46.887 35.4047C48.7943 33.1126 50.3057 31.5765 51.0553 31.3041C51.4707 31.1534 51.901 31.0783 52.3507 31.0783C52.7761 31.0783 53.2201 31.1457 53.6863 31.2814C54.059 32.1318 54.3996 33.0563 54.7098 34.0405C54.73 34.1049 54.7502 34.1681 54.7696 34.2332C54.8978 34.649 55.0187 35.0786 55.1359 35.516C55.1622 35.6147 55.1893 35.7079 55.2156 35.8081C55.3495 36.3276 55.4773 36.859 55.5951 37.4066C55.6028 37.4428 55.6203 37.4744 55.6325 37.5095C55.6444 37.5426 55.6527 37.5781 55.6688 37.6097C55.673 37.6189 55.6764 37.6286 55.6817 37.6378C55.6959 37.6644 55.7165 37.6848 55.7332 37.7087C55.7374 37.7149 55.7416 37.7207 55.747 37.7268C55.7664 37.7534 55.7824 37.7823 55.8046 37.8066C55.8095 37.8116 55.813 37.8174 55.8179 37.8228H55.8187C55.8214 37.8251 55.824 37.827 55.8263 37.8286C55.85 37.8528 55.879 37.8706 55.906 37.8921C55.9121 37.8971 55.9179 37.9014 55.924 37.9068C55.9461 37.9237 55.9656 37.9442 55.9892 37.9588C55.9984 37.965 56.0087 37.9684 56.019 37.9734C56.0384 37.9846 56.0594 37.9923 56.08 38.0016C56.0994 38.0101 56.1181 38.0151 56.1376 38.0228C56.1639 38.0324 56.1868 38.0478 56.2139 38.0548C56.701 38.1796 57.1744 38.3087 57.6372 38.4413C57.7421 38.4713 57.8397 38.5022 57.9423 38.5322C58.3047 38.6382 58.6625 38.7461 59.0089 38.8567C59.0978 38.8848 59.1817 38.9129 59.2691 38.9422C59.6299 39.0605 59.984 39.18 60.3254 39.3025C60.3845 39.3237 60.4432 39.3445 60.5016 39.3657C60.8938 39.5087 61.2752 39.6532 61.6403 39.8016C61.6414 39.8016 61.6418 39.8023 61.643 39.8023C61.7532 40.5249 61.6975 41.1908 61.4713 41.827V41.827ZM73.2164 43.2578C72.7369 43.9553 72.0403 44.1095 71.5406 44.1145C71.5303 44.1145 71.5204 44.1145 71.5101 44.1145C70.5419 44.1145 69.5596 43.5838 68.9397 42.7245C67.7671 41.1002 65.6743 39.6563 62.7206 38.4031C62.7157 38.4008 62.7122 38.3954 62.7061 38.3931C62.6733 38.3792 62.6375 38.3665 62.6046 38.3526C62.3479 38.2447 62.0794 38.1395 61.8089 38.0351C61.5754 37.9442 61.3382 37.8544 61.0948 37.7654C60.8476 37.6756 60.5985 37.5858 60.3399 37.4975C59.9859 37.3761 59.6189 37.259 59.247 37.1426C59.1073 37.0987 58.9803 37.0528 58.838 37.0097C58.9067 36.9823 58.9845 36.9557 59.0555 36.9284C59.081 36.9214 59.1073 36.9276 59.1317 36.9191C61.7753 35.9449 66.298 35.0027 70.2195 37.7519C70.4221 37.8944 70.6212 38.059 70.8204 38.2224C70.9161 38.3002 71.0138 38.3673 71.1084 38.4501C71.7099 38.9781 72.294 39.6058 72.8505 40.3442L72.9581 40.489C72.9615 40.4933 72.9665 40.4952 72.9688 40.4995C73.2572 40.8975 73.9961 42.1249 73.2164 43.2578V43.2578Z" fill="#46C190"/>
<rect x="0.5" y="0.5" width="99" height="99" stroke="#46C190"/>
<path d="M6.65625 94H5.35938V85.4375H6.65625V94ZM5.25 83.1172C5.25 82.8203 5.32292 82.6042 5.46875 82.4688C5.61458 82.3281 5.79688 82.2578 6.01562 82.2578C6.22396 82.2578 6.40365 82.3281 6.55469 82.4688C6.70573 82.6094 6.78125 82.8255 6.78125 83.1172C6.78125 83.4089 6.70573 83.6276 6.55469 83.7734C6.40365 83.9141 6.22396 83.9844 6.01562 83.9844C5.79688 83.9844 5.61458 83.9141 5.46875 83.7734C5.32292 83.6276 5.25 83.4089 5.25 83.1172ZM15.2656 94V88.4609C15.2656 87.763 15.1068 87.2422 14.7891 86.8984C14.4714 86.5547 13.974 86.3828 13.2969 86.3828C12.401 86.3828 11.7448 86.625 11.3281 87.1094C10.9115 87.5938 10.7031 88.3932 10.7031 89.5078V94H9.40625V85.4375H10.4609L10.6719 86.6094H10.7344C11 86.1875 11.3724 85.862 11.8516 85.6328C12.3307 85.3984 12.8646 85.2812 13.4531 85.2812C14.4844 85.2812 15.2604 85.5312 15.7812 86.0312C16.3021 86.526 16.5625 87.3203 16.5625 88.4141V94H15.2656ZM23.0938 86.4453H20.9141V94H19.6172V86.4453H18.0859V85.8594L19.6172 85.3906V84.9141C19.6172 82.8099 20.5365 81.7578 22.375 81.7578C22.8281 81.7578 23.3594 81.849 23.9688 82.0312L23.6328 83.0703C23.1328 82.9089 22.7057 82.8281 22.3516 82.8281C21.862 82.8281 21.5 82.9922 21.2656 83.3203C21.0312 83.6432 20.9141 84.1641 20.9141 84.8828V85.4375H23.0938V86.4453ZM28.5625 85.2812C28.9427 85.2812 29.2839 85.3125 29.5859 85.375L29.4062 86.5781C29.0521 86.5 28.7396 86.4609 28.4688 86.4609C27.776 86.4609 27.1823 86.7422 26.6875 87.3047C26.1979 87.8672 25.9531 88.5677 25.9531 89.4062V94H24.6562V85.4375H25.7266L25.875 87.0234H25.9375C26.2552 86.4661 26.638 86.0365 27.0859 85.7344C27.5339 85.4323 28.026 85.2812 28.5625 85.2812ZM34.8047 94.1562C33.5391 94.1562 32.5391 93.7708 31.8047 93C31.0755 92.2292 30.7109 91.1589 30.7109 89.7891C30.7109 88.4089 31.0495 87.3125 31.7266 86.5C32.4089 85.6875 33.3229 85.2812 34.4688 85.2812C35.5417 85.2812 36.3906 85.6354 37.0156 86.3438C37.6406 87.0469 37.9531 87.9766 37.9531 89.1328V89.9531H32.0547C32.0807 90.9583 32.3333 91.7214 32.8125 92.2422C33.2969 92.763 33.9766 93.0234 34.8516 93.0234C35.7734 93.0234 36.6849 92.8307 37.5859 92.4453V93.6016C37.1276 93.7995 36.6927 93.9401 36.2812 94.0234C35.875 94.112 35.3828 94.1562 34.8047 94.1562ZM34.4531 86.3672C33.7656 86.3672 33.2161 86.5911 32.8047 87.0391C32.3984 87.487 32.1589 88.1068 32.0859 88.8984H36.5625C36.5625 88.0807 36.3802 87.4557 36.0156 87.0234C35.651 86.5859 35.1302 86.3672 34.4531 86.3672ZM43.4062 93.0703C44.2708 93.0703 44.901 92.8385 45.2969 92.375C45.6927 91.9115 45.9036 91.1302 45.9297 90.0312V89.7422C45.9297 88.5443 45.7266 87.6823 45.3203 87.1562C44.9141 86.6302 44.2708 86.3672 43.3906 86.3672C42.6302 86.3672 42.0469 86.6641 41.6406 87.2578C41.2396 87.8464 41.0391 88.6797 41.0391 89.7578C41.0391 90.8359 41.237 91.6589 41.6328 92.2266C42.0339 92.7891 42.625 93.0703 43.4062 93.0703ZM43.2109 94.1562C42.1068 94.1562 41.2448 93.7682 40.625 92.9922C40.0052 92.2161 39.6953 91.1328 39.6953 89.7422C39.6953 88.3411 40.0078 87.2474 40.6328 86.4609C41.2578 85.6745 42.1276 85.2812 43.2422 85.2812C44.4141 85.2812 45.3151 85.724 45.9453 86.6094H46.0156L46.2031 85.4375H47.2266V97.8438H45.9297V94.1797C45.9297 93.6589 45.9583 93.2161 46.0156 92.8516H45.9141C45.3151 93.7214 44.4141 94.1562 43.2109 94.1562ZM51.2031 85.4375V90.9922C51.2031 91.6901 51.362 92.2109 51.6797 92.5547C51.9974 92.8984 52.4948 93.0703 53.1719 93.0703C54.0677 93.0703 54.7214 92.8255 55.1328 92.3359C55.5495 91.8464 55.7578 91.0469 55.7578 89.9375V85.4375H57.0547V94H55.9844L55.7969 92.8516H55.7266C55.4609 93.2734 55.0911 93.5964 54.6172 93.8203C54.1484 94.0443 53.612 94.1562 53.0078 94.1562C51.9661 94.1562 51.1849 93.9089 50.6641 93.4141C50.1484 92.9193 49.8906 92.1276 49.8906 91.0391V85.4375H51.2031ZM63.4297 94.1562C62.1641 94.1562 61.1641 93.7708 60.4297 93C59.7005 92.2292 59.3359 91.1589 59.3359 89.7891C59.3359 88.4089 59.6745 87.3125 60.3516 86.5C61.0339 85.6875 61.9479 85.2812 63.0938 85.2812C64.1667 85.2812 65.0156 85.6354 65.6406 86.3438C66.2656 87.0469 66.5781 87.9766 66.5781 89.1328V89.9531H60.6797C60.7057 90.9583 60.9583 91.7214 61.4375 92.2422C61.9219 92.763 62.6016 93.0234 63.4766 93.0234C64.3984 93.0234 65.3099 92.8307 66.2109 92.4453V93.6016C65.7526 93.7995 65.3177 93.9401 64.9062 94.0234C64.5 94.112 64.0078 94.1562 63.4297 94.1562ZM63.0781 86.3672C62.3906 86.3672 61.8411 86.5911 61.4297 87.0391C61.0234 87.487 60.7839 88.1068 60.7109 88.8984H65.1875C65.1875 88.0807 65.0052 87.4557 64.6406 87.0234C64.276 86.5859 63.7552 86.3672 63.0781 86.3672ZM74.6562 94V88.4609C74.6562 87.763 74.4974 87.2422 74.1797 86.8984C73.862 86.5547 73.3646 86.3828 72.6875 86.3828C71.7917 86.3828 71.1354 86.625 70.7188 87.1094C70.3021 87.5938 70.0938 88.3932 70.0938 89.5078V94H68.7969V85.4375H69.8516L70.0625 86.6094H70.125C70.3906 86.1875 70.763 85.862 71.2422 85.6328C71.7214 85.3984 72.2552 85.2812 72.8438 85.2812C73.875 85.2812 74.651 85.5312 75.1719 86.0312C75.6927 86.526 75.9531 87.3203 75.9531 88.4141V94H74.6562ZM81.3906 93.0859C81.6198 93.0859 81.8411 93.0703 82.0547 93.0391C82.2682 93.0026 82.4375 92.9661 82.5625 92.9297V93.9219C82.4219 93.9896 82.2135 94.0443 81.9375 94.0859C81.6667 94.1328 81.4219 94.1562 81.2031 94.1562C79.5469 94.1562 78.7188 93.2839 78.7188 91.5391V86.4453H77.4922V85.8203L78.7188 85.2812L79.2656 83.4531H80.0156V85.4375H82.5V86.4453H80.0156V91.4844C80.0156 92 80.138 92.3958 80.3828 92.6719C80.6276 92.9479 80.9635 93.0859 81.3906 93.0859ZM85.5781 94H84.2812V81.8438H85.5781V94ZM86.9688 85.4375H88.3594L90.2344 90.3203C90.6458 91.4349 90.901 92.2396 91 92.7344H91.0625C91.1302 92.4688 91.2708 92.0156 91.4844 91.375C91.7031 90.7292 92.4115 88.75 93.6094 85.4375H95L91.3203 95.1875C90.9557 96.151 90.5286 96.8333 90.0391 97.2344C89.5547 97.6406 88.9583 97.8438 88.25 97.8438C87.8542 97.8438 87.4635 97.7995 87.0781 97.7109V96.6719C87.3646 96.7344 87.6849 96.7656 88.0391 96.7656C88.9297 96.7656 89.5651 96.2656 89.9453 95.2656L90.4219 94.0469L86.9688 85.4375Z" fill="#46C190"/>
</svg>
