<svg width="100" height="105" viewBox="0 0 100 105" fill="none" xmlns="http://www.w3.org/2000/svg">
<rect x="0.5" y="0.5" width="99" height="99" stroke="#46C190"/>
<path d="M83.6148 36.9411L73.1376 27.2731V11.4345H61.0685V16.1372L48.9994 5L14.3852 36.9411C13.8976 37.392 13.8687 38.1512 14.3225 38.6369C14.7751 39.1215 15.539 39.1491 16.029 38.6993L20.0348 35.0029V75H39.3453H58.6559H77.9664V35.0017L81.9722 38.6981C82.2039 38.9128 82.4996 39.0183 82.7941 39.0183C83.1187 39.0183 83.441 38.89 83.6775 38.6357C84.1313 38.1512 84.1024 37.392 83.6148 36.9411ZM63.4823 13.8332H70.7238V25.0459L63.4823 18.3643V13.8332ZM41.7579 72.6013V47.3394C41.7579 46.7194 42.2648 46.2156 42.8888 46.2156H55.11C55.7339 46.2156 56.2408 46.7194 56.2408 47.3394V72.6013H41.7579V72.6013ZM75.5514 72.6013H58.6547V47.3394C58.6547 45.3965 57.0652 43.8169 55.11 43.8169H42.8888C40.9336 43.8169 39.3441 45.3965 39.3441 47.3394V72.6013H22.4474V32.7745L48.9994 8.27302L66.2341 24.1764L73.1376 30.5461L75.5514 32.7733V72.6013V72.6013Z" fill="#46C190"/>
<path d="M34.5547 94H33.2578V81.8438H34.5547V94ZM42.5703 94L42.3125 92.7812H42.25C41.8229 93.3177 41.3958 93.6823 40.9688 93.875C40.5469 94.0625 40.0182 94.1562 39.3828 94.1562C38.5339 94.1562 37.8672 93.9375 37.3828 93.5C36.9036 93.0625 36.6641 92.4401 36.6641 91.6328C36.6641 89.9036 38.0469 88.9974 40.8125 88.9141L42.2656 88.8672V88.3359C42.2656 87.6641 42.1198 87.1693 41.8281 86.8516C41.5417 86.5286 41.0807 86.3672 40.4453 86.3672C39.7318 86.3672 38.9245 86.5859 38.0234 87.0234L37.625 86.0312C38.0469 85.8021 38.5078 85.6224 39.0078 85.4922C39.513 85.362 40.0182 85.2969 40.5234 85.2969C41.5443 85.2969 42.2995 85.5234 42.7891 85.9766C43.2839 86.4297 43.5312 87.1562 43.5312 88.1562V94H42.5703ZM39.6406 93.0859C40.4479 93.0859 41.0807 92.8646 41.5391 92.4219C42.0026 91.9792 42.2344 91.3594 42.2344 90.5625V89.7891L40.9375 89.8438C39.9062 89.8802 39.1615 90.0417 38.7031 90.3281C38.25 90.6094 38.0234 91.0495 38.0234 91.6484C38.0234 92.1172 38.1641 92.474 38.4453 92.7188C38.7318 92.9635 39.1302 93.0859 39.6406 93.0859ZM50.1172 85.2812C50.4974 85.2812 50.8385 85.3125 51.1406 85.375L50.9609 86.5781C50.6068 86.5 50.2943 86.4609 50.0234 86.4609C49.3307 86.4609 48.737 86.7422 48.2422 87.3047C47.7526 87.8672 47.5078 88.5677 47.5078 89.4062V94H46.2109V85.4375H47.2812L47.4297 87.0234H47.4922C47.8099 86.4661 48.1927 86.0365 48.6406 85.7344C49.0885 85.4323 49.5807 85.2812 50.1172 85.2812ZM59.75 85.4375V86.2578L58.1641 86.4453C58.3099 86.6276 58.4401 86.8672 58.5547 87.1641C58.6693 87.4557 58.7266 87.7865 58.7266 88.1562C58.7266 88.9948 58.4401 89.6641 57.8672 90.1641C57.2943 90.6641 56.5078 90.9141 55.5078 90.9141C55.2526 90.9141 55.013 90.8932 54.7891 90.8516C54.237 91.1432 53.9609 91.5104 53.9609 91.9531C53.9609 92.1875 54.0573 92.362 54.25 92.4766C54.4427 92.5859 54.7734 92.6406 55.2422 92.6406H56.7578C57.6849 92.6406 58.3958 92.8359 58.8906 93.2266C59.3906 93.6172 59.6406 94.1849 59.6406 94.9297C59.6406 95.8776 59.2604 96.599 58.5 97.0938C57.7396 97.5938 56.6302 97.8438 55.1719 97.8438C54.0521 97.8438 53.1875 97.6354 52.5781 97.2188C51.974 96.8021 51.6719 96.2135 51.6719 95.4531C51.6719 94.9323 51.8385 94.4818 52.1719 94.1016C52.5052 93.7214 52.974 93.4635 53.5781 93.3281C53.3594 93.2292 53.1745 93.0755 53.0234 92.8672C52.8776 92.6589 52.8047 92.4167 52.8047 92.1406C52.8047 91.8281 52.888 91.5547 53.0547 91.3203C53.2214 91.0859 53.4844 90.8594 53.8438 90.6406C53.401 90.4583 53.0391 90.1484 52.7578 89.7109C52.4818 89.2734 52.3438 88.7734 52.3438 88.2109C52.3438 87.2734 52.625 86.5521 53.1875 86.0469C53.75 85.5365 54.5469 85.2812 55.5781 85.2812C56.026 85.2812 56.4297 85.3333 56.7891 85.4375H59.75ZM52.9219 95.4375C52.9219 95.901 53.1172 96.2526 53.5078 96.4922C53.8984 96.7318 54.4583 96.8516 55.1875 96.8516C56.276 96.8516 57.0807 96.6875 57.6016 96.3594C58.1276 96.0365 58.3906 95.5964 58.3906 95.0391C58.3906 94.5755 58.2474 94.2526 57.9609 94.0703C57.6745 93.8932 57.1354 93.8047 56.3438 93.8047H54.7891C54.2005 93.8047 53.7422 93.9453 53.4141 94.2266C53.0859 94.5078 52.9219 94.9115 52.9219 95.4375ZM53.625 88.1797C53.625 88.7786 53.7943 89.2318 54.1328 89.5391C54.4714 89.8464 54.9427 90 55.5469 90C56.8125 90 57.4453 89.3854 57.4453 88.1562C57.4453 86.8698 56.8047 86.2266 55.5234 86.2266C54.9141 86.2266 54.4453 86.3906 54.1172 86.7188C53.7891 87.0469 53.625 87.5339 53.625 88.1797ZM65.125 94.1562C63.8594 94.1562 62.8594 93.7708 62.125 93C61.3958 92.2292 61.0312 91.1589 61.0312 89.7891C61.0312 88.4089 61.3698 87.3125 62.0469 86.5C62.7292 85.6875 63.6432 85.2812 64.7891 85.2812C65.862 85.2812 66.7109 85.6354 67.3359 86.3438C67.9609 87.0469 68.2734 87.9766 68.2734 89.1328V89.9531H62.375C62.401 90.9583 62.6536 91.7214 63.1328 92.2422C63.6172 92.763 64.2969 93.0234 65.1719 93.0234C66.0938 93.0234 67.0052 92.8307 67.9062 92.4453V93.6016C67.4479 93.7995 67.013 93.9401 66.6016 94.0234C66.1953 94.112 65.7031 94.1562 65.125 94.1562ZM64.7734 86.3672C64.0859 86.3672 63.5365 86.5911 63.125 87.0391C62.7188 87.487 62.4792 88.1068 62.4062 88.8984H66.8828C66.8828 88.0807 66.7005 87.4557 66.3359 87.0234C65.9714 86.5859 65.4505 86.3672 64.7734 86.3672Z" fill="#46C190"/>
</svg>
