<svg width="100" height="105" viewBox="0 0 100 105" fill="none" xmlns="http://www.w3.org/2000/svg">
<rect x="0.5" y="0.5" width="99" height="99" stroke="#46C190"/>
<path d="M75.7248 47.815L68.2411 40.9094V29.5961H59.6203V32.9551L50.9996 25L26.2752 47.815C25.9269 48.1372 25.9062 48.6794 26.2303 49.0264C26.5536 49.3725 27.0993 49.3922 27.4493 49.0709L30.3106 46.4307V75H44.1038H57.8971H71.6903V46.4298L74.5515 49.0701C74.7171 49.2234 74.9283 49.2988 75.1386 49.2988C75.3705 49.2988 75.6007 49.2071 75.7697 49.0255C76.0938 48.6794 76.0731 48.1372 75.7248 47.815ZM61.3445 31.3094H66.517V39.3185L61.3445 34.546V31.3094ZM45.8271 73.2866V55.2424C45.8271 54.7995 46.1892 54.4397 46.6349 54.4397H55.3643C55.81 54.4397 56.172 54.7995 56.172 55.2424V73.2866H45.8271V73.2866ZM69.9653 73.2866H57.8962V55.2424C57.8962 53.8546 56.7608 52.7264 55.3643 52.7264H46.6349C45.2383 52.7264 44.1029 53.8546 44.1029 55.2424V73.2866H32.0339V44.8389L50.9996 27.3379L63.31 38.6974L68.2411 43.2472L69.9653 44.8381V73.2866V73.2866Z" fill="#46C190"/>
<path d="M31.5625 94V88.4297C31.5625 87.7474 31.4167 87.237 31.125 86.8984C30.8333 86.5547 30.3802 86.3828 29.7656 86.3828C28.9583 86.3828 28.362 86.6146 27.9766 87.0781C27.5911 87.5417 27.3984 88.2552 27.3984 89.2188V94H26.1016V88.4297C26.1016 87.7474 25.9557 87.237 25.6641 86.8984C25.3724 86.5547 24.9167 86.3828 24.2969 86.3828C23.4844 86.3828 22.888 86.6276 22.5078 87.1172C22.1328 87.6016 21.9453 88.3984 21.9453 89.5078V94H20.6484V85.4375H21.7031L21.9141 86.6094H21.9766C22.2214 86.1927 22.5651 85.8672 23.0078 85.6328C23.4557 85.3984 23.9557 85.2812 24.5078 85.2812C25.8464 85.2812 26.7214 85.7656 27.1328 86.7344H27.1953C27.4505 86.2865 27.8203 85.9323 28.3047 85.6719C28.7891 85.4115 29.3411 85.2812 29.9609 85.2812C30.9297 85.2812 31.6536 85.5312 32.1328 86.0312C32.6172 86.526 32.8594 87.3203 32.8594 88.4141V94H31.5625ZM39.1562 94.1562C37.8906 94.1562 36.8906 93.7708 36.1562 93C35.4271 92.2292 35.0625 91.1589 35.0625 89.7891C35.0625 88.4089 35.401 87.3125 36.0781 86.5C36.7604 85.6875 37.6745 85.2812 38.8203 85.2812C39.8932 85.2812 40.7422 85.6354 41.3672 86.3438C41.9922 87.0469 42.3047 87.9766 42.3047 89.1328V89.9531H36.4062C36.4323 90.9583 36.6849 91.7214 37.1641 92.2422C37.6484 92.763 38.3281 93.0234 39.2031 93.0234C40.125 93.0234 41.0365 92.8307 41.9375 92.4453V93.6016C41.4792 93.7995 41.0443 93.9401 40.6328 94.0234C40.2266 94.112 39.7344 94.1562 39.1562 94.1562ZM38.8047 86.3672C38.1172 86.3672 37.5677 86.5911 37.1562 87.0391C36.75 87.487 36.5104 88.1068 36.4375 88.8984H40.9141C40.9141 88.0807 40.7318 87.4557 40.3672 87.0234C40.0026 86.5859 39.4818 86.3672 38.8047 86.3672ZM50.3516 92.8516H50.2812C49.6823 93.7214 48.7865 94.1562 47.5938 94.1562C46.474 94.1562 45.6016 93.7734 44.9766 93.0078C44.3568 92.2422 44.0469 91.1536 44.0469 89.7422C44.0469 88.3307 44.3594 87.2344 44.9844 86.4531C45.6094 85.6719 46.4792 85.2812 47.5938 85.2812C48.7552 85.2812 49.6458 85.7031 50.2656 86.5469H50.3672L50.3125 85.9297L50.2812 85.3281V81.8438H51.5781V94H50.5234L50.3516 92.8516ZM47.7578 93.0703C48.6432 93.0703 49.2839 92.8307 49.6797 92.3516C50.0807 91.8672 50.2812 91.0885 50.2812 90.0156V89.7422C50.2812 88.5286 50.0781 87.6641 49.6719 87.1484C49.2708 86.6276 48.6276 86.3672 47.7422 86.3672C46.9818 86.3672 46.3984 86.6641 45.9922 87.2578C45.5911 87.8464 45.3906 88.6797 45.3906 89.7578C45.3906 90.8516 45.5911 91.6771 45.9922 92.2344C46.3932 92.7917 46.9818 93.0703 47.7578 93.0703ZM55.6328 94H54.3359V85.4375H55.6328V94ZM54.2266 83.1172C54.2266 82.8203 54.2995 82.6042 54.4453 82.4688C54.5911 82.3281 54.7734 82.2578 54.9922 82.2578C55.2005 82.2578 55.3802 82.3281 55.5312 82.4688C55.6823 82.6094 55.7578 82.8255 55.7578 83.1172C55.7578 83.4089 55.6823 83.6276 55.5312 83.7734C55.3802 83.9141 55.2005 83.9844 54.9922 83.9844C54.7734 83.9844 54.5911 83.9141 54.4453 83.7734C54.2995 83.6276 54.2266 83.4089 54.2266 83.1172ZM59.6016 85.4375V90.9922C59.6016 91.6901 59.7604 92.2109 60.0781 92.5547C60.3958 92.8984 60.8932 93.0703 61.5703 93.0703C62.4661 93.0703 63.1198 92.8255 63.5312 92.3359C63.9479 91.8464 64.1562 91.0469 64.1562 89.9375V85.4375H65.4531V94H64.3828L64.1953 92.8516H64.125C63.8594 93.2734 63.4896 93.5964 63.0156 93.8203C62.5469 94.0443 62.0104 94.1562 61.4062 94.1562C60.3646 94.1562 59.5833 93.9089 59.0625 93.4141C58.5469 92.9193 58.2891 92.1276 58.2891 91.0391V85.4375H59.6016ZM79.125 94V88.4297C79.125 87.7474 78.9792 87.237 78.6875 86.8984C78.3958 86.5547 77.9427 86.3828 77.3281 86.3828C76.5208 86.3828 75.9245 86.6146 75.5391 87.0781C75.1536 87.5417 74.9609 88.2552 74.9609 89.2188V94H73.6641V88.4297C73.6641 87.7474 73.5182 87.237 73.2266 86.8984C72.9349 86.5547 72.4792 86.3828 71.8594 86.3828C71.0469 86.3828 70.4505 86.6276 70.0703 87.1172C69.6953 87.6016 69.5078 88.3984 69.5078 89.5078V94H68.2109V85.4375H69.2656L69.4766 86.6094H69.5391C69.7839 86.1927 70.1276 85.8672 70.5703 85.6328C71.0182 85.3984 71.5182 85.2812 72.0703 85.2812C73.4089 85.2812 74.2839 85.7656 74.6953 86.7344H74.7578C75.013 86.2865 75.3828 85.9323 75.8672 85.6719C76.3516 85.4115 76.9036 85.2812 77.5234 85.2812C78.4922 85.2812 79.2161 85.5312 79.6953 86.0312C80.1797 86.526 80.4219 87.3203 80.4219 88.4141V94H79.125Z" fill="#46C190"/>
</svg>
