<svg width="100" height="105" viewBox="0 0 100 105" fill="none" xmlns="http://www.w3.org/2000/svg">
<rect x="0.5" y="0.5" width="99" height="99" stroke="#46C190"/>
<path d="M63.8404 59.2327L59.4999 55.2274V48.6657H54.4998V50.614L49.4997 46L35.1596 59.2327C34.9576 59.4195 34.9456 59.7341 35.1336 59.9353C35.3211 60.136 35.6376 60.1475 35.8406 59.9611L37.5001 58.4298V75H45.5002H53.5003H61.5004V58.4293L63.1599 59.9606C63.2559 60.0496 63.3784 60.0933 63.5004 60.0933C63.6349 60.0933 63.7684 60.0401 63.8664 59.9348C64.0544 59.7341 64.0424 59.4195 63.8404 59.2327ZM55.4998 49.6595H58.4998V54.3047L55.4998 51.5367V49.6595ZM46.4997 74.0063V63.5406C46.4997 63.2837 46.7097 63.075 46.9682 63.075H52.0313C52.2898 63.075 52.4998 63.2837 52.4998 63.5406V74.0063H46.4997V74.0063ZM60.4999 74.0063H53.4998V63.5406C53.4998 62.7357 52.8413 62.0813 52.0313 62.0813H46.9682C46.1582 62.0813 45.4997 62.7357 45.4997 63.5406V74.0063H38.4996V57.5066L49.4997 47.356L56.6398 53.9445L59.4999 56.5834L60.4999 57.5061V74.0063V74.0063Z" fill="#46C190"/>
<path d="M37.6328 91.6641C37.6328 92.4609 37.3359 93.0755 36.7422 93.5078C36.1484 93.9401 35.3151 94.1562 34.2422 94.1562C33.1068 94.1562 32.2214 93.9766 31.5859 93.6172V92.4141C31.9974 92.6224 32.4375 92.7865 32.9062 92.9062C33.3802 93.026 33.8359 93.0859 34.2734 93.0859C34.9505 93.0859 35.4714 92.9792 35.8359 92.7656C36.2005 92.5469 36.3828 92.2161 36.3828 91.7734C36.3828 91.4401 36.237 91.1562 35.9453 90.9219C35.6589 90.6823 35.0964 90.401 34.2578 90.0781C33.4609 89.7812 32.8932 89.5234 32.5547 89.3047C32.2214 89.0807 31.9714 88.8281 31.8047 88.5469C31.6432 88.2656 31.5625 87.9297 31.5625 87.5391C31.5625 86.8411 31.8464 86.2917 32.4141 85.8906C32.9818 85.4844 33.7604 85.2812 34.75 85.2812C35.6719 85.2812 36.5729 85.4688 37.4531 85.8438L36.9922 86.8984C36.1328 86.5443 35.3542 86.3672 34.6562 86.3672C34.0417 86.3672 33.5781 86.4635 33.2656 86.6562C32.9531 86.849 32.7969 87.1146 32.7969 87.4531C32.7969 87.6823 32.8542 87.8776 32.9688 88.0391C33.0885 88.2005 33.2786 88.3542 33.5391 88.5C33.7995 88.6458 34.2995 88.8568 35.0391 89.1328C36.0547 89.5026 36.7396 89.875 37.0938 90.25C37.4531 90.625 37.6328 91.0964 37.6328 91.6641ZM50.6641 94V88.4297C50.6641 87.7474 50.5182 87.237 50.2266 86.8984C49.9349 86.5547 49.4818 86.3828 48.8672 86.3828C48.0599 86.3828 47.4635 86.6146 47.0781 87.0781C46.6927 87.5417 46.5 88.2552 46.5 89.2188V94H45.2031V88.4297C45.2031 87.7474 45.0573 87.237 44.7656 86.8984C44.474 86.5547 44.0182 86.3828 43.3984 86.3828C42.5859 86.3828 41.9896 86.6276 41.6094 87.1172C41.2344 87.6016 41.0469 88.3984 41.0469 89.5078V94H39.75V85.4375H40.8047L41.0156 86.6094H41.0781C41.3229 86.1927 41.6667 85.8672 42.1094 85.6328C42.5573 85.3984 43.0573 85.2812 43.6094 85.2812C44.9479 85.2812 45.8229 85.7656 46.2344 86.7344H46.2969C46.5521 86.2865 46.9219 85.9323 47.4062 85.6719C47.8906 85.4115 48.4427 85.2812 49.0625 85.2812C50.0312 85.2812 50.7552 85.5312 51.2344 86.0312C51.7188 86.526 51.9609 87.3203 51.9609 88.4141V94H50.6641ZM59.9062 94L59.6484 92.7812H59.5859C59.1589 93.3177 58.7318 93.6823 58.3047 93.875C57.8828 94.0625 57.3542 94.1562 56.7188 94.1562C55.8698 94.1562 55.2031 93.9375 54.7188 93.5C54.2396 93.0625 54 92.4401 54 91.6328C54 89.9036 55.3828 88.9974 58.1484 88.9141L59.6016 88.8672V88.3359C59.6016 87.6641 59.4557 87.1693 59.1641 86.8516C58.8776 86.5286 58.4167 86.3672 57.7812 86.3672C57.0677 86.3672 56.2604 86.5859 55.3594 87.0234L54.9609 86.0312C55.3828 85.8021 55.8438 85.6224 56.3438 85.4922C56.849 85.362 57.3542 85.2969 57.8594 85.2969C58.8802 85.2969 59.6354 85.5234 60.125 85.9766C60.6198 86.4297 60.8672 87.1562 60.8672 88.1562V94H59.9062ZM56.9766 93.0859C57.7839 93.0859 58.4167 92.8646 58.875 92.4219C59.3385 91.9792 59.5703 91.3594 59.5703 90.5625V89.7891L58.2734 89.8438C57.2422 89.8802 56.4974 90.0417 56.0391 90.3281C55.5859 90.6094 55.3594 91.0495 55.3594 91.6484C55.3594 92.1172 55.5 92.474 55.7812 92.7188C56.0677 92.9635 56.4661 93.0859 56.9766 93.0859ZM64.8438 94H63.5469V81.8438H64.8438V94ZM68.8906 94H67.5938V81.8438H68.8906V94Z" fill="#46C190"/>
</svg>
