<svg width="100" height="104" viewBox="0 0 100 104" fill="none" xmlns="http://www.w3.org/2000/svg">
<path d="M32.3744 50.6187C32.376 50.606 32.3789 50.5932 32.3797 50.5804C32.3825 50.541 32.3793 50.501 32.3756 50.461C32.3748 50.4509 32.376 50.4413 32.3748 50.4312C32.3675 50.3785 32.3541 50.3268 32.3342 50.2772C32.331 50.2687 32.3265 50.2607 32.3229 50.2522C32.322 50.2511 32.322 50.2495 32.3216 50.2479C32.3212 50.2469 32.32 50.2463 32.3196 50.2447C32.3168 50.2389 32.3143 50.2325 32.3115 50.2271C32.2863 50.1787 32.2559 50.1387 32.2218 50.1046C32.2141 50.0971 32.2051 50.0929 32.197 50.086C32.167 50.0599 32.1353 50.0385 32.1012 50.0242C32.0862 50.0178 32.0712 50.0146 32.0558 50.0108C32.0261 50.0028 31.9965 49.9991 31.9656 50.0002C31.9494 50.0007 31.934 50.0018 31.9177 50.005C31.9072 50.0071 31.897 50.005 31.8865 50.0082L8.32389 56.3994C8.15624 56.4453 8.02796 56.6237 8.00401 56.8464C7.98006 57.0691 8.0649 57.2876 8.21631 57.3925L14.9677 62.0666L16.1518 70.6908C16.151 70.6972 16.1522 70.7041 16.1518 70.7105C16.1478 70.7531 16.1474 70.7947 16.1514 70.8368C16.1535 70.8581 16.1555 70.8783 16.1595 70.8991C16.1689 70.9497 16.1839 70.9972 16.2042 71.0419C16.2083 71.0504 16.2083 71.0606 16.2127 71.0691C16.2139 71.0717 16.216 71.0739 16.2176 71.076C16.2229 71.0861 16.2302 71.0941 16.2363 71.1042C16.2553 71.1351 16.2752 71.1634 16.298 71.1874C16.3016 71.1911 16.3041 71.1969 16.3081 71.2007C16.3142 71.2065 16.3211 71.2081 16.3272 71.2135C16.352 71.2348 16.3775 71.2524 16.4047 71.2662C16.4157 71.2715 16.4258 71.2779 16.4372 71.2822C16.4737 71.296 16.5115 71.3056 16.5496 71.3056C16.5501 71.3056 16.5505 71.3056 16.5509 71.3056C16.5525 71.3056 16.5541 71.3046 16.5557 71.3046C16.5626 71.3051 16.5695 71.3056 16.5764 71.3056C16.6889 71.3056 16.7904 71.2396 16.8655 71.1378L21.3628 67.2027L26.0715 71.2199C26.1381 71.2763 26.2152 71.3056 26.2928 71.3056C26.3354 71.3056 26.3788 71.2966 26.4206 71.2785C26.5375 71.2273 26.6309 71.109 26.6735 70.9567L32.3549 50.7168C32.3602 50.6987 32.3647 50.68 32.3683 50.6608C32.3699 50.6528 32.3704 50.6448 32.3716 50.6374C32.3728 50.6315 32.3736 50.6251 32.3744 50.6187ZM27.6729 54.0195L17.9335 63.4183C17.9176 63.4338 17.905 63.4529 17.8912 63.4711C17.886 63.4775 17.8807 63.4828 17.8762 63.4897C17.8677 63.502 17.86 63.5142 17.8523 63.5275C17.845 63.5403 17.8393 63.5536 17.8328 63.567C17.8178 63.5989 17.8052 63.632 17.7954 63.6671C17.7934 63.674 17.7902 63.6794 17.7885 63.6863C17.7881 63.6884 17.7865 63.6895 17.7861 63.6916L16.6698 68.4531L15.7853 62.0112L27.6729 54.0195ZM17.299 69.4782L18.4056 64.681L20.1283 66.151L20.6211 66.5713L18.9471 68.0359L17.299 69.4782ZM29.1262 51.8452L15.3355 61.1162L9.59566 57.1427L29.1262 51.8452ZM26.0878 69.963L19.8344 64.6288L18.8874 63.8206L31.1278 52.0077L26.0878 69.963Z" fill="#46C190"/>
<path d="M59.3744 32.6187C59.376 32.606 59.3789 32.5932 59.3797 32.5804C59.3825 32.541 59.3793 32.501 59.3756 32.461C59.3748 32.4509 59.376 32.4413 59.3748 32.4312C59.3675 32.3785 59.3541 32.3268 59.3342 32.2772C59.331 32.2687 59.3265 32.2607 59.3229 32.2522C59.322 32.2511 59.322 32.2495 59.3216 32.2479C59.3212 32.2469 59.32 32.2463 59.3196 32.2447C59.3168 32.2389 59.3143 32.2325 59.3115 32.2271C59.2863 32.1787 59.2559 32.1387 59.2218 32.1046C59.2141 32.0971 59.2051 32.0929 59.197 32.086C59.167 32.0599 59.1353 32.0385 59.1012 32.0242C59.0862 32.0178 59.0712 32.0146 59.0558 32.0108C59.0261 32.0028 58.9965 31.9991 58.9656 32.0002C58.9494 32.0007 58.934 32.0018 58.9177 32.005C58.9072 32.0071 58.897 32.005 58.8865 32.0082L35.3239 38.3994C35.1562 38.4453 35.028 38.6237 35.004 38.8464C34.9801 39.0691 35.0649 39.2876 35.2163 39.3925L41.9677 44.0666L43.1518 52.6908C43.151 52.6972 43.1522 52.7041 43.1518 52.7105C43.1478 52.7531 43.1474 52.7947 43.1514 52.8368C43.1535 52.8581 43.1555 52.8783 43.1595 52.8991C43.1689 52.9497 43.1839 52.9972 43.2042 53.0419C43.2083 53.0504 43.2083 53.0606 43.2127 53.0691C43.2139 53.0717 43.216 53.0739 43.2176 53.076C43.2229 53.0861 43.2302 53.0941 43.2363 53.1042C43.2553 53.1351 43.2752 53.1634 43.298 53.1874C43.3016 53.1911 43.3041 53.1969 43.3081 53.2007C43.3142 53.2065 43.3211 53.2081 43.3272 53.2135C43.352 53.2348 43.3775 53.2524 43.4047 53.2662C43.4157 53.2715 43.4258 53.2779 43.4372 53.2822C43.4737 53.296 43.5115 53.3056 43.5496 53.3056C43.5501 53.3056 43.5505 53.3056 43.5509 53.3056C43.5525 53.3056 43.5541 53.3046 43.5557 53.3046C43.5626 53.3051 43.5695 53.3056 43.5764 53.3056C43.6889 53.3056 43.7904 53.2396 43.8655 53.1378L48.3628 49.2027L53.0715 53.2199C53.1381 53.2763 53.2152 53.3056 53.2928 53.3056C53.3354 53.3056 53.3788 53.2966 53.4206 53.2785C53.5375 53.2273 53.6309 53.109 53.6735 52.9567L59.3549 32.7168C59.3602 32.6987 59.3647 32.68 59.3683 32.6608C59.3699 32.6528 59.3704 32.6448 59.3716 32.6374C59.3728 32.6315 59.3736 32.6251 59.3744 32.6187ZM54.6729 36.0195L44.9335 45.4183C44.9176 45.4338 44.905 45.4529 44.8912 45.4711C44.886 45.4775 44.8807 45.4828 44.8762 45.4897C44.8677 45.502 44.86 45.5142 44.8523 45.5275C44.845 45.5403 44.8393 45.5536 44.8328 45.567C44.8178 45.5989 44.8052 45.632 44.7954 45.6671C44.7934 45.674 44.7902 45.6794 44.7885 45.6863C44.7881 45.6884 44.7865 45.6895 44.7861 45.6916L43.6698 50.4531L42.7853 44.0112L54.6729 36.0195ZM44.299 51.4782L45.4056 46.681L47.1283 48.151L47.6211 48.5713L45.9471 50.0359L44.299 51.4782ZM56.1262 33.8452L42.3355 43.1162L36.5957 39.1427L56.1262 33.8452ZM53.0878 51.963L46.8344 46.6288L45.8874 45.8206L58.1278 34.0077L53.0878 51.963Z" fill="#46C190"/>
<path d="M85.3744 50.6187C85.376 50.606 85.3789 50.5932 85.3797 50.5804C85.3825 50.541 85.3793 50.501 85.3756 50.461C85.3748 50.4509 85.376 50.4413 85.3748 50.4312C85.3675 50.3785 85.3541 50.3268 85.3342 50.2772C85.331 50.2687 85.3265 50.2607 85.3229 50.2522C85.322 50.2511 85.322 50.2495 85.3216 50.2479C85.3212 50.2469 85.32 50.2463 85.3196 50.2447C85.3168 50.2389 85.3143 50.2325 85.3115 50.2271C85.2863 50.1787 85.2559 50.1387 85.2218 50.1046C85.2141 50.0971 85.2051 50.0929 85.197 50.086C85.167 50.0599 85.1353 50.0385 85.1012 50.0242C85.0862 50.0178 85.0712 50.0146 85.0558 50.0108C85.0261 50.0028 84.9965 49.9991 84.9656 50.0002C84.9494 50.0007 84.934 50.0018 84.9177 50.005C84.9072 50.0071 84.897 50.005 84.8865 50.0082L61.3239 56.3994C61.1562 56.4453 61.028 56.6237 61.004 56.8464C60.9801 57.0691 61.0649 57.2876 61.2163 57.3925L67.9677 62.0666L69.1518 70.6908C69.151 70.6972 69.1522 70.7041 69.1518 70.7105C69.1478 70.7531 69.1474 70.7947 69.1514 70.8368C69.1535 70.8581 69.1555 70.8783 69.1595 70.8991C69.1689 70.9497 69.1839 70.9972 69.2042 71.0419C69.2083 71.0504 69.2083 71.0606 69.2127 71.0691C69.2139 71.0717 69.216 71.0739 69.2176 71.076C69.2229 71.0861 69.2302 71.0941 69.2363 71.1042C69.2553 71.1351 69.2752 71.1634 69.298 71.1874C69.3016 71.1911 69.3041 71.1969 69.3081 71.2007C69.3142 71.2065 69.3211 71.2081 69.3272 71.2135C69.352 71.2348 69.3775 71.2524 69.4047 71.2662C69.4157 71.2715 69.4258 71.2779 69.4372 71.2822C69.4737 71.296 69.5115 71.3056 69.5496 71.3056C69.5501 71.3056 69.5505 71.3056 69.5509 71.3056C69.5525 71.3056 69.5541 71.3046 69.5557 71.3046C69.5626 71.3051 69.5695 71.3056 69.5764 71.3056C69.6889 71.3056 69.7904 71.2396 69.8655 71.1378L74.3628 67.2027L79.0715 71.2199C79.1381 71.2763 79.2152 71.3056 79.2928 71.3056C79.3354 71.3056 79.3788 71.2966 79.4206 71.2785C79.5375 71.2273 79.6309 71.109 79.6735 70.9567L85.3549 50.7168C85.3602 50.6987 85.3647 50.68 85.3683 50.6608C85.3699 50.6528 85.3704 50.6448 85.3716 50.6374C85.3728 50.6315 85.3736 50.6251 85.3744 50.6187ZM80.6729 54.0195L70.9335 63.4183C70.9176 63.4338 70.905 63.4529 70.8912 63.4711C70.886 63.4775 70.8807 63.4828 70.8762 63.4897C70.8677 63.502 70.86 63.5142 70.8523 63.5275C70.845 63.5403 70.8393 63.5536 70.8328 63.567C70.8178 63.5989 70.8052 63.632 70.7954 63.6671C70.7934 63.674 70.7902 63.6794 70.7885 63.6863C70.7881 63.6884 70.7865 63.6895 70.7861 63.6916L69.6698 68.4531L68.7853 62.0112L80.6729 54.0195ZM70.299 69.4782L71.4056 64.681L73.1283 66.151L73.6211 66.5713L71.9471 68.0359L70.299 69.4782ZM82.1262 51.8452L68.3355 61.1162L62.5957 57.1427L82.1262 51.8452ZM79.0878 69.963L72.8344 64.6288L71.8874 63.8206L84.1278 52.0077L79.0878 69.963Z" fill="#46C190"/>
<path d="M32.3744 11.6187C32.376 11.606 32.3789 11.5932 32.3797 11.5804C32.3825 11.541 32.3793 11.501 32.3756 11.461C32.3748 11.4509 32.376 11.4413 32.3748 11.4312C32.3675 11.3785 32.3541 11.3268 32.3342 11.2772C32.331 11.2687 32.3265 11.2607 32.3229 11.2522C32.322 11.2511 32.322 11.2495 32.3216 11.2479C32.3212 11.2469 32.32 11.2463 32.3196 11.2447C32.3168 11.2389 32.3143 11.2325 32.3115 11.2271C32.2863 11.1787 32.2559 11.1387 32.2218 11.1046C32.2141 11.0971 32.2051 11.0929 32.197 11.086C32.167 11.0599 32.1353 11.0385 32.1012 11.0242C32.0862 11.0178 32.0712 11.0146 32.0558 11.0108C32.0261 11.0028 31.9965 10.9991 31.9656 11.0002C31.9494 11.0007 31.934 11.0018 31.9177 11.005C31.9072 11.0071 31.897 11.005 31.8865 11.0082L8.32389 17.3994C8.15624 17.4453 8.02796 17.6237 8.00401 17.8464C7.98006 18.0691 8.0649 18.2876 8.21631 18.3925L14.9677 23.0666L16.1518 31.6908C16.151 31.6972 16.1522 31.7041 16.1518 31.7105C16.1478 31.7531 16.1474 31.7947 16.1514 31.8368C16.1535 31.8581 16.1555 31.8783 16.1595 31.8991C16.1689 31.9497 16.1839 31.9972 16.2042 32.0419C16.2083 32.0504 16.2083 32.0606 16.2127 32.0691C16.2139 32.0717 16.216 32.0739 16.2176 32.076C16.2229 32.0861 16.2302 32.0941 16.2363 32.1042C16.2553 32.1351 16.2752 32.1634 16.298 32.1874C16.3016 32.1911 16.3041 32.1969 16.3081 32.2007C16.3142 32.2065 16.3211 32.2081 16.3272 32.2135C16.352 32.2348 16.3775 32.2524 16.4047 32.2662C16.4157 32.2715 16.4258 32.2779 16.4372 32.2822C16.4737 32.296 16.5115 32.3056 16.5496 32.3056C16.5501 32.3056 16.5505 32.3056 16.5509 32.3056C16.5525 32.3056 16.5541 32.3046 16.5557 32.3046C16.5626 32.3051 16.5695 32.3056 16.5764 32.3056C16.6889 32.3056 16.7904 32.2396 16.8655 32.1378L21.3628 28.2027L26.0715 32.2199C26.1381 32.2763 26.2152 32.3056 26.2928 32.3056C26.3354 32.3056 26.3788 32.2966 26.4206 32.2785C26.5375 32.2273 26.6309 32.109 26.6735 31.9567L32.3549 11.7168C32.3602 11.6987 32.3647 11.68 32.3683 11.6608C32.3699 11.6528 32.3704 11.6448 32.3716 11.6374C32.3728 11.6315 32.3736 11.6251 32.3744 11.6187ZM27.6729 15.0195L17.9335 24.4183C17.9176 24.4338 17.905 24.4529 17.8912 24.4711C17.886 24.4775 17.8807 24.4828 17.8762 24.4897C17.8677 24.502 17.86 24.5142 17.8523 24.5275C17.845 24.5403 17.8393 24.5536 17.8328 24.567C17.8178 24.5989 17.8052 24.632 17.7954 24.6671C17.7934 24.674 17.7902 24.6794 17.7885 24.6863C17.7881 24.6884 17.7865 24.6895 17.7861 24.6916L16.6698 29.4531L15.7853 23.0112L27.6729 15.0195ZM17.299 30.4782L18.4056 25.681L20.1283 27.151L20.6211 27.5713L18.9471 29.0359L17.299 30.4782ZM29.1262 12.8452L15.3355 22.1162L9.59566 18.1427L29.1262 12.8452ZM26.0878 30.963L19.8344 25.6288L18.8874 24.8206L31.1278 13.0077L26.0878 30.963Z" fill="#46C190"/>
<path d="M83.3744 11.6187C83.376 11.606 83.3789 11.5932 83.3797 11.5804C83.3825 11.541 83.3793 11.501 83.3756 11.461C83.3748 11.4509 83.376 11.4413 83.3748 11.4312C83.3675 11.3785 83.3541 11.3268 83.3342 11.2772C83.331 11.2687 83.3265 11.2607 83.3229 11.2522C83.322 11.2511 83.322 11.2495 83.3216 11.2479C83.3212 11.2469 83.32 11.2463 83.3196 11.2447C83.3168 11.2389 83.3143 11.2325 83.3115 11.2271C83.2863 11.1787 83.2559 11.1387 83.2218 11.1046C83.2141 11.0971 83.2051 11.0929 83.197 11.086C83.167 11.0599 83.1353 11.0385 83.1012 11.0242C83.0862 11.0178 83.0712 11.0146 83.0558 11.0108C83.0261 11.0028 82.9965 10.9991 82.9656 11.0002C82.9494 11.0007 82.934 11.0018 82.9177 11.005C82.9072 11.0071 82.897 11.005 82.8865 11.0082L59.3239 17.3994C59.1562 17.4453 59.028 17.6237 59.004 17.8464C58.9801 18.0691 59.0649 18.2876 59.2163 18.3925L65.9677 23.0666L67.1518 31.6908C67.151 31.6972 67.1522 31.7041 67.1518 31.7105C67.1478 31.7531 67.1474 31.7947 67.1514 31.8368C67.1535 31.8581 67.1555 31.8783 67.1595 31.8991C67.1689 31.9497 67.1839 31.9972 67.2042 32.0419C67.2083 32.0504 67.2083 32.0606 67.2127 32.0691C67.2139 32.0717 67.216 32.0739 67.2176 32.076C67.2229 32.0861 67.2302 32.0941 67.2363 32.1042C67.2553 32.1351 67.2752 32.1634 67.298 32.1874C67.3016 32.1911 67.3041 32.1969 67.3081 32.2007C67.3142 32.2065 67.3211 32.2081 67.3272 32.2135C67.352 32.2348 67.3775 32.2524 67.4047 32.2662C67.4157 32.2715 67.4258 32.2779 67.4372 32.2822C67.4737 32.296 67.5115 32.3056 67.5496 32.3056C67.5501 32.3056 67.5505 32.3056 67.5509 32.3056C67.5525 32.3056 67.5541 32.3046 67.5557 32.3046C67.5626 32.3051 67.5695 32.3056 67.5764 32.3056C67.6889 32.3056 67.7904 32.2396 67.8655 32.1378L72.3628 28.2027L77.0715 32.2199C77.1381 32.2763 77.2152 32.3056 77.2928 32.3056C77.3354 32.3056 77.3788 32.2966 77.4206 32.2785C77.5375 32.2273 77.6309 32.109 77.6735 31.9567L83.3549 11.7168C83.3602 11.6987 83.3647 11.68 83.3683 11.6608C83.3699 11.6528 83.3704 11.6448 83.3716 11.6374C83.3728 11.6315 83.3736 11.6251 83.3744 11.6187ZM78.6729 15.0195L68.9335 24.4183C68.9176 24.4338 68.905 24.4529 68.8912 24.4711C68.886 24.4775 68.8807 24.4828 68.8762 24.4897C68.8677 24.502 68.86 24.5142 68.8523 24.5275C68.845 24.5403 68.8393 24.5536 68.8328 24.567C68.8178 24.5989 68.8052 24.632 68.7954 24.6671C68.7934 24.674 68.7902 24.6794 68.7885 24.6863C68.7881 24.6884 68.7865 24.6895 68.7861 24.6916L67.6698 29.4531L66.7853 23.0112L78.6729 15.0195ZM68.299 30.4782L69.4056 25.681L71.1283 27.151L71.6211 27.5713L69.9471 29.0359L68.299 30.4782ZM80.1262 12.8452L66.3355 22.1162L60.5957 18.1427L80.1262 12.8452ZM77.0878 30.963L70.8344 25.6288L69.8874 24.8206L82.1278 13.0077L77.0878 30.963Z" fill="#46C190"/>
<path d="M38.4844 88.7109C38.4844 90.1068 38.1328 91.1979 37.4297 91.9844C36.7266 92.7656 35.7552 93.1562 34.5156 93.1562C33.75 93.1562 33.0703 92.9766 32.4766 92.6172C31.8828 92.2578 31.4245 91.7422 31.1016 91.0703C30.7786 90.3984 30.6172 89.612 30.6172 88.7109C30.6172 87.3151 30.9661 86.2292 31.6641 85.4531C32.362 84.6719 33.3307 84.2812 34.5703 84.2812C35.7682 84.2812 36.7188 84.6797 37.4219 85.4766C38.1302 86.2734 38.4844 87.3516 38.4844 88.7109ZM31.9609 88.7109C31.9609 89.8047 32.1797 90.638 32.6172 91.2109C33.0547 91.7839 33.6979 92.0703 34.5469 92.0703C35.3958 92.0703 36.0391 91.7865 36.4766 91.2188C36.9193 90.6458 37.1406 89.8099 37.1406 88.7109C37.1406 87.6224 36.9193 86.7969 36.4766 86.2344C36.0391 85.6667 35.3906 85.3828 34.5312 85.3828C33.6823 85.3828 33.0417 85.6615 32.6094 86.2188C32.1771 86.776 31.9609 87.6068 31.9609 88.7109ZM44.625 85.4453H42.4453V93H41.1484V85.4453H39.6172V84.8594L41.1484 84.3906V83.9141C41.1484 81.8099 42.0677 80.7578 43.9062 80.7578C44.3594 80.7578 44.8906 80.849 45.5 81.0312L45.1641 82.0703C44.6641 81.9089 44.237 81.8281 43.8828 81.8281C43.3932 81.8281 43.0312 81.9922 42.7969 82.3203C42.5625 82.6432 42.4453 83.1641 42.4453 83.8828V84.4375H44.625V85.4453ZM48.9531 92.0859C49.1823 92.0859 49.4036 92.0703 49.6172 92.0391C49.8307 92.0026 50 91.9661 50.125 91.9297V92.9219C49.9844 92.9896 49.776 93.0443 49.5 93.0859C49.2292 93.1328 48.9844 93.1562 48.7656 93.1562C47.1094 93.1562 46.2812 92.2839 46.2812 90.5391V85.4453H45.0547V84.8203L46.2812 84.2812L46.8281 82.4531H47.5781V84.4375H50.0625V85.4453H47.5781V90.4844C47.5781 91 47.7005 91.3958 47.9453 91.6719C48.1901 91.9479 48.526 92.0859 48.9531 92.0859ZM55.4609 93.1562C54.1953 93.1562 53.1953 92.7708 52.4609 92C51.7318 91.2292 51.3672 90.1589 51.3672 88.7891C51.3672 87.4089 51.7057 86.3125 52.3828 85.5C53.0651 84.6875 53.9792 84.2812 55.125 84.2812C56.1979 84.2812 57.0469 84.6354 57.6719 85.3438C58.2969 86.0469 58.6094 86.9766 58.6094 88.1328V88.9531H52.7109C52.737 89.9583 52.9896 90.7214 53.4688 91.2422C53.9531 91.763 54.6328 92.0234 55.5078 92.0234C56.4297 92.0234 57.3411 91.8307 58.2422 91.4453V92.6016C57.7839 92.7995 57.349 92.9401 56.9375 93.0234C56.5312 93.112 56.0391 93.1562 55.4609 93.1562ZM55.1094 85.3672C54.4219 85.3672 53.8724 85.5911 53.4609 86.0391C53.0547 86.487 52.8151 87.1068 52.7422 87.8984H57.2188C57.2188 87.0807 57.0365 86.4557 56.6719 86.0234C56.3073 85.5859 55.7865 85.3672 55.1094 85.3672ZM66.6875 93V87.4609C66.6875 86.763 66.5286 86.2422 66.2109 85.8984C65.8932 85.5547 65.3958 85.3828 64.7188 85.3828C63.8229 85.3828 63.1667 85.625 62.75 86.1094C62.3333 86.5938 62.125 87.3932 62.125 88.5078V93H60.8281V84.4375H61.8828L62.0938 85.6094H62.1562C62.4219 85.1875 62.7943 84.862 63.2734 84.6328C63.7526 84.3984 64.2865 84.2812 64.875 84.2812C65.9062 84.2812 66.6823 84.5312 67.2031 85.0312C67.724 85.526 67.9844 86.3203 67.9844 87.4141V93H66.6875Z" fill="#46C190"/>
<rect x="0.5" y="0.5" width="99" height="99" stroke="#46C190"/>
</svg>
