<svg width="100" height="104" viewBox="0 0 100 104" fill="none" xmlns="http://www.w3.org/2000/svg">
<path d="M35.3744 50.6187C35.376 50.606 35.3789 50.5932 35.3797 50.5804C35.3825 50.541 35.3793 50.501 35.3756 50.461C35.3748 50.4509 35.376 50.4413 35.3748 50.4312C35.3675 50.3785 35.3541 50.3268 35.3342 50.2772C35.331 50.2687 35.3265 50.2607 35.3229 50.2522C35.322 50.2511 35.322 50.2495 35.3216 50.2479C35.3212 50.2469 35.32 50.2463 35.3196 50.2447C35.3168 50.2389 35.3143 50.2325 35.3115 50.2271C35.2863 50.1787 35.2559 50.1387 35.2218 50.1046C35.2141 50.0971 35.2051 50.0929 35.197 50.086C35.167 50.0599 35.1353 50.0385 35.1012 50.0242C35.0862 50.0178 35.0712 50.0146 35.0558 50.0108C35.0261 50.0028 34.9965 49.9991 34.9656 50.0002C34.9494 50.0007 34.934 50.0018 34.9177 50.005C34.9072 50.0071 34.897 50.005 34.8865 50.0082L11.3239 56.3994C11.1562 56.4453 11.028 56.6237 11.004 56.8464C10.9801 57.0691 11.0649 57.2876 11.2163 57.3925L17.9677 62.0666L19.1518 70.6908C19.151 70.6972 19.1522 70.7041 19.1518 70.7105C19.1478 70.7531 19.1474 70.7947 19.1514 70.8368C19.1535 70.8581 19.1555 70.8783 19.1595 70.8991C19.1689 70.9497 19.1839 70.9972 19.2042 71.0419C19.2083 71.0504 19.2083 71.0606 19.2127 71.0691C19.2139 71.0717 19.216 71.0739 19.2176 71.076C19.2229 71.0861 19.2302 71.0941 19.2363 71.1042C19.2553 71.1351 19.2752 71.1634 19.298 71.1874C19.3016 71.1911 19.3041 71.1969 19.3081 71.2007C19.3142 71.2065 19.3211 71.2081 19.3272 71.2135C19.352 71.2348 19.3775 71.2524 19.4047 71.2662C19.4157 71.2715 19.4258 71.2779 19.4372 71.2822C19.4737 71.296 19.5115 71.3056 19.5496 71.3056C19.5501 71.3056 19.5505 71.3056 19.5509 71.3056C19.5525 71.3056 19.5541 71.3046 19.5557 71.3046C19.5626 71.3051 19.5695 71.3056 19.5764 71.3056C19.6889 71.3056 19.7904 71.2396 19.8655 71.1378L24.3628 67.2027L29.0715 71.2199C29.1381 71.2763 29.2152 71.3056 29.2928 71.3056C29.3354 71.3056 29.3788 71.2966 29.4206 71.2785C29.5375 71.2273 29.6309 71.109 29.6735 70.9567L35.3549 50.7168C35.3602 50.6987 35.3647 50.68 35.3683 50.6608C35.3699 50.6528 35.3704 50.6448 35.3716 50.6374C35.3728 50.6315 35.3736 50.6251 35.3744 50.6187ZM30.6729 54.0195L20.9335 63.4183C20.9176 63.4338 20.905 63.4529 20.8912 63.4711C20.886 63.4775 20.8807 63.4828 20.8762 63.4897C20.8677 63.502 20.86 63.5142 20.8523 63.5275C20.845 63.5403 20.8393 63.5536 20.8328 63.567C20.8178 63.5989 20.8052 63.632 20.7954 63.6671C20.7934 63.674 20.7902 63.6794 20.7885 63.6863C20.7881 63.6884 20.7865 63.6895 20.7861 63.6916L19.6698 68.4531L18.7853 62.0112L30.6729 54.0195ZM20.299 69.4782L21.4056 64.681L23.1283 66.151L23.6211 66.5713L21.9471 68.0359L20.299 69.4782ZM32.1262 51.8452L18.3355 61.1162L12.5957 57.1427L32.1262 51.8452ZM29.0878 69.963L22.8344 64.6288L21.8874 63.8206L34.1278 52.0077L29.0878 69.963Z" fill="#46C190"/>
<path d="M62.3744 32.6187C62.376 32.606 62.3789 32.5932 62.3797 32.5804C62.3825 32.541 62.3793 32.501 62.3756 32.461C62.3748 32.4509 62.376 32.4413 62.3748 32.4312C62.3675 32.3785 62.3541 32.3268 62.3342 32.2772C62.331 32.2687 62.3265 32.2607 62.3229 32.2522C62.322 32.2511 62.322 32.2495 62.3216 32.2479C62.3212 32.2469 62.32 32.2463 62.3196 32.2447C62.3168 32.2389 62.3143 32.2325 62.3115 32.2271C62.2863 32.1787 62.2559 32.1387 62.2218 32.1046C62.2141 32.0971 62.2051 32.0929 62.197 32.086C62.167 32.0599 62.1353 32.0385 62.1012 32.0242C62.0862 32.0178 62.0712 32.0146 62.0558 32.0108C62.0261 32.0028 61.9965 31.9991 61.9656 32.0002C61.9494 32.0007 61.934 32.0018 61.9177 32.005C61.9072 32.0071 61.897 32.005 61.8865 32.0082L38.3239 38.3994C38.1562 38.4453 38.028 38.6237 38.004 38.8464C37.9801 39.0691 38.0649 39.2876 38.2163 39.3925L44.9677 44.0666L46.1518 52.6908C46.151 52.6972 46.1522 52.7041 46.1518 52.7105C46.1478 52.7531 46.1474 52.7947 46.1514 52.8368C46.1535 52.8581 46.1555 52.8783 46.1595 52.8991C46.1689 52.9497 46.1839 52.9972 46.2042 53.0419C46.2083 53.0504 46.2083 53.0606 46.2127 53.0691C46.2139 53.0717 46.216 53.0739 46.2176 53.076C46.2229 53.0861 46.2302 53.0941 46.2363 53.1042C46.2553 53.1351 46.2752 53.1634 46.298 53.1874C46.3016 53.1911 46.3041 53.1969 46.3081 53.2007C46.3142 53.2065 46.3211 53.2081 46.3272 53.2135C46.352 53.2348 46.3775 53.2524 46.4047 53.2662C46.4157 53.2715 46.4258 53.2779 46.4372 53.2822C46.4737 53.296 46.5115 53.3056 46.5496 53.3056C46.5501 53.3056 46.5505 53.3056 46.5509 53.3056C46.5525 53.3056 46.5541 53.3046 46.5557 53.3046C46.5626 53.3051 46.5695 53.3056 46.5764 53.3056C46.6889 53.3056 46.7904 53.2396 46.8655 53.1378L51.3628 49.2027L56.0715 53.2199C56.1381 53.2763 56.2152 53.3056 56.2928 53.3056C56.3354 53.3056 56.3788 53.2966 56.4206 53.2785C56.5375 53.2273 56.6309 53.109 56.6735 52.9567L62.3549 32.7168C62.3602 32.6987 62.3647 32.68 62.3683 32.6608C62.3699 32.6528 62.3704 32.6448 62.3716 32.6374C62.3728 32.6315 62.3736 32.6251 62.3744 32.6187ZM57.6729 36.0195L47.9335 45.4183C47.9176 45.4338 47.905 45.4529 47.8912 45.4711C47.886 45.4775 47.8807 45.4828 47.8762 45.4897C47.8677 45.502 47.86 45.5142 47.8523 45.5275C47.845 45.5403 47.8393 45.5536 47.8328 45.567C47.8178 45.5989 47.8052 45.632 47.7954 45.6671C47.7934 45.674 47.7902 45.6794 47.7885 45.6863C47.7881 45.6884 47.7865 45.6895 47.7861 45.6916L46.6698 50.4531L45.7853 44.0112L57.6729 36.0195ZM47.299 51.4782L48.4056 46.681L50.1283 48.151L50.6211 48.5713L48.9471 50.0359L47.299 51.4782ZM59.1262 33.8452L45.3355 43.1162L39.5957 39.1427L59.1262 33.8452ZM56.0878 51.963L49.8344 46.6288L48.8874 45.8206L61.1278 34.0077L56.0878 51.963Z" fill="#46C190"/>
<path d="M13.2266 88.7109C13.2266 90.1068 12.875 91.1979 12.1719 91.9844C11.4688 92.7656 10.4974 93.1562 9.25781 93.1562C8.49219 93.1562 7.8125 92.9766 7.21875 92.6172C6.625 92.2578 6.16667 91.7422 5.84375 91.0703C5.52083 90.3984 5.35938 89.612 5.35938 88.7109C5.35938 87.3151 5.70833 86.2292 6.40625 85.4531C7.10417 84.6719 8.07292 84.2812 9.3125 84.2812C10.5104 84.2812 11.4609 84.6797 12.1641 85.4766C12.8724 86.2734 13.2266 87.3516 13.2266 88.7109ZM6.70312 88.7109C6.70312 89.8047 6.92188 90.638 7.35938 91.2109C7.79688 91.7839 8.4401 92.0703 9.28906 92.0703C10.138 92.0703 10.7812 91.7865 11.2188 91.2188C11.6615 90.6458 11.8828 89.8099 11.8828 88.7109C11.8828 87.6224 11.6615 86.7969 11.2188 86.2344C10.7812 85.6667 10.1328 85.3828 9.27344 85.3828C8.42448 85.3828 7.78385 85.6615 7.35156 86.2188C6.91927 86.776 6.70312 87.6068 6.70312 88.7109ZM18.9297 93.1562C17.6901 93.1562 16.7292 92.776 16.0469 92.0156C15.3698 91.25 15.0312 90.1693 15.0312 88.7734C15.0312 87.3411 15.375 86.2344 16.0625 85.4531C16.7552 84.6719 17.7396 84.2812 19.0156 84.2812C19.4271 84.2812 19.8385 84.3255 20.25 84.4141C20.6615 84.5026 20.9844 84.6068 21.2188 84.7266L20.8203 85.8281C20.5339 85.7135 20.2214 85.6198 19.8828 85.5469C19.5443 85.4688 19.2448 85.4297 18.9844 85.4297C17.2448 85.4297 16.375 86.5391 16.375 88.7578C16.375 89.8099 16.5859 90.6172 17.0078 91.1797C17.4349 91.7422 18.0651 92.0234 18.8984 92.0234C19.612 92.0234 20.3438 91.8698 21.0938 91.5625V92.7109C20.5208 93.0078 19.7995 93.1562 18.9297 93.1562ZM26.5547 93.1562C25.3151 93.1562 24.3542 92.776 23.6719 92.0156C22.9948 91.25 22.6562 90.1693 22.6562 88.7734C22.6562 87.3411 23 86.2344 23.6875 85.4531C24.3802 84.6719 25.3646 84.2812 26.6406 84.2812C27.0521 84.2812 27.4635 84.3255 27.875 84.4141C28.2865 84.5026 28.6094 84.6068 28.8438 84.7266L28.4453 85.8281C28.1589 85.7135 27.8464 85.6198 27.5078 85.5469C27.1693 85.4688 26.8698 85.4297 26.6094 85.4297C24.8698 85.4297 24 86.5391 24 88.7578C24 89.8099 24.2109 90.6172 24.6328 91.1797C25.0599 91.7422 25.6901 92.0234 26.5234 92.0234C27.237 92.0234 27.9688 91.8698 28.7188 91.5625V92.7109C28.1458 93.0078 27.4245 93.1562 26.5547 93.1562ZM36.0234 93L35.7656 91.7812H35.7031C35.276 92.3177 34.849 92.6823 34.4219 92.875C34 93.0625 33.4714 93.1562 32.8359 93.1562C31.987 93.1562 31.3203 92.9375 30.8359 92.5C30.3568 92.0625 30.1172 91.4401 30.1172 90.6328C30.1172 88.9036 31.5 87.9974 34.2656 87.9141L35.7188 87.8672V87.3359C35.7188 86.6641 35.5729 86.1693 35.2812 85.8516C34.9948 85.5286 34.5339 85.3672 33.8984 85.3672C33.1849 85.3672 32.3776 85.5859 31.4766 86.0234L31.0781 85.0312C31.5 84.8021 31.9609 84.6224 32.4609 84.4922C32.9661 84.362 33.4714 84.2969 33.9766 84.2969C34.9974 84.2969 35.7526 84.5234 36.2422 84.9766C36.737 85.4297 36.9844 86.1562 36.9844 87.1562V93H36.0234ZM33.0938 92.0859C33.901 92.0859 34.5339 91.8646 34.9922 91.4219C35.4557 90.9792 35.6875 90.3594 35.6875 89.5625V88.7891L34.3906 88.8438C33.3594 88.8802 32.6146 89.0417 32.1562 89.3281C31.7031 89.6094 31.4766 90.0495 31.4766 90.6484C31.4766 91.1172 31.6172 91.474 31.8984 91.7188C32.1849 91.9635 32.5833 92.0859 33.0938 92.0859ZM45.1875 90.6641C45.1875 91.4609 44.8906 92.0755 44.2969 92.5078C43.7031 92.9401 42.8698 93.1562 41.7969 93.1562C40.6615 93.1562 39.776 92.9766 39.1406 92.6172V91.4141C39.5521 91.6224 39.9922 91.7865 40.4609 91.9062C40.9349 92.026 41.3906 92.0859 41.8281 92.0859C42.5052 92.0859 43.026 91.9792 43.3906 91.7656C43.7552 91.5469 43.9375 91.2161 43.9375 90.7734C43.9375 90.4401 43.7917 90.1562 43.5 89.9219C43.2135 89.6823 42.651 89.401 41.8125 89.0781C41.0156 88.7812 40.4479 88.5234 40.1094 88.3047C39.776 88.0807 39.526 87.8281 39.3594 87.5469C39.1979 87.2656 39.1172 86.9297 39.1172 86.5391C39.1172 85.8411 39.401 85.2917 39.9688 84.8906C40.5365 84.4844 41.3151 84.2812 42.3047 84.2812C43.2266 84.2812 44.1276 84.4688 45.0078 84.8438L44.5469 85.8984C43.6875 85.5443 42.9089 85.3672 42.2109 85.3672C41.5964 85.3672 41.1328 85.4635 40.8203 85.6562C40.5078 85.849 40.3516 86.1146 40.3516 86.4531C40.3516 86.6823 40.4089 86.8776 40.5234 87.0391C40.6432 87.2005 40.8333 87.3542 41.0938 87.5C41.3542 87.6458 41.8542 87.8568 42.5938 88.1328C43.6094 88.5026 44.2943 88.875 44.6484 89.25C45.0078 89.625 45.1875 90.0964 45.1875 90.6641ZM48.6016 93H47.3047V84.4375H48.6016V93ZM47.1953 82.1172C47.1953 81.8203 47.2682 81.6042 47.4141 81.4688C47.5599 81.3281 47.7422 81.2578 47.9609 81.2578C48.1693 81.2578 48.349 81.3281 48.5 81.4688C48.651 81.6094 48.7266 81.8255 48.7266 82.1172C48.7266 82.4089 48.651 82.6276 48.5 82.7734C48.349 82.9141 48.1693 82.9844 47.9609 82.9844C47.7422 82.9844 47.5599 82.9141 47.4141 82.7734C47.2682 82.6276 47.1953 82.4089 47.1953 82.1172ZM58.7422 88.7109C58.7422 90.1068 58.3906 91.1979 57.6875 91.9844C56.9844 92.7656 56.013 93.1562 54.7734 93.1562C54.0078 93.1562 53.3281 92.9766 52.7344 92.6172C52.1406 92.2578 51.6823 91.7422 51.3594 91.0703C51.0365 90.3984 50.875 89.612 50.875 88.7109C50.875 87.3151 51.224 86.2292 51.9219 85.4531C52.6198 84.6719 53.5885 84.2812 54.8281 84.2812C56.026 84.2812 56.9766 84.6797 57.6797 85.4766C58.388 86.2734 58.7422 87.3516 58.7422 88.7109ZM52.2188 88.7109C52.2188 89.8047 52.4375 90.638 52.875 91.2109C53.3125 91.7839 53.9557 92.0703 54.8047 92.0703C55.6536 92.0703 56.2969 91.7865 56.7344 91.2188C57.1771 90.6458 57.3984 89.8099 57.3984 88.7109C57.3984 87.6224 57.1771 86.7969 56.7344 86.2344C56.2969 85.6667 55.6484 85.3828 54.7891 85.3828C53.9401 85.3828 53.2995 85.6615 52.8672 86.2188C52.4349 86.776 52.2188 87.6068 52.2188 88.7109ZM66.8828 93V87.4609C66.8828 86.763 66.724 86.2422 66.4062 85.8984C66.0885 85.5547 65.5911 85.3828 64.9141 85.3828C64.0182 85.3828 63.362 85.625 62.9453 86.1094C62.5286 86.5938 62.3203 87.3932 62.3203 88.5078V93H61.0234V84.4375H62.0781L62.2891 85.6094H62.3516C62.6172 85.1875 62.9896 84.862 63.4688 84.6328C63.9479 84.3984 64.4818 84.2812 65.0703 84.2812C66.1016 84.2812 66.8776 84.5312 67.3984 85.0312C67.9193 85.526 68.1797 86.3203 68.1797 87.4141V93H66.8828ZM76.1172 93L75.8594 91.7812H75.7969C75.3698 92.3177 74.9427 92.6823 74.5156 92.875C74.0938 93.0625 73.5651 93.1562 72.9297 93.1562C72.0807 93.1562 71.4141 92.9375 70.9297 92.5C70.4505 92.0625 70.2109 91.4401 70.2109 90.6328C70.2109 88.9036 71.5938 87.9974 74.3594 87.9141L75.8125 87.8672V87.3359C75.8125 86.6641 75.6667 86.1693 75.375 85.8516C75.0885 85.5286 74.6276 85.3672 73.9922 85.3672C73.2786 85.3672 72.4714 85.5859 71.5703 86.0234L71.1719 85.0312C71.5938 84.8021 72.0547 84.6224 72.5547 84.4922C73.0599 84.362 73.5651 84.2969 74.0703 84.2969C75.0911 84.2969 75.8464 84.5234 76.3359 84.9766C76.8307 85.4297 77.0781 86.1562 77.0781 87.1562V93H76.1172ZM73.1875 92.0859C73.9948 92.0859 74.6276 91.8646 75.0859 91.4219C75.5495 90.9792 75.7812 90.3594 75.7812 89.5625V88.7891L74.4844 88.8438C73.4531 88.8802 72.7083 89.0417 72.25 89.3281C71.7969 89.6094 71.5703 90.0495 71.5703 90.6484C71.5703 91.1172 71.7109 91.474 71.9922 91.7188C72.2786 91.9635 72.6771 92.0859 73.1875 92.0859ZM81.0547 93H79.7578V80.8438H81.0547V93ZM85.1016 93H83.8047V80.8438H85.1016V93ZM86.4922 84.4375H87.8828L89.7578 89.3203C90.1693 90.4349 90.4245 91.2396 90.5234 91.7344H90.5859C90.6536 91.4688 90.7943 91.0156 91.0078 90.375C91.2266 89.7292 91.9349 87.75 93.1328 84.4375H94.5234L90.8438 94.1875C90.4792 95.151 90.0521 95.8333 89.5625 96.2344C89.0781 96.6406 88.4818 96.8438 87.7734 96.8438C87.3776 96.8438 86.987 96.7995 86.6016 96.7109V95.6719C86.888 95.7344 87.2083 95.7656 87.5625 95.7656C88.4531 95.7656 89.0885 95.2656 89.4688 94.2656L89.9453 93.0469L86.4922 84.4375Z" fill="#46C190"/>
<rect x="0.5" y="0.5" width="99" height="99" stroke="#46C190"/>
</svg>
