<svg width="100" height="104" viewBox="0 0 100 104" fill="none" xmlns="http://www.w3.org/2000/svg">
<path d="M6.65625 93H5.35938V84.4375H6.65625V93ZM5.25 82.1172C5.25 81.8203 5.32292 81.6042 5.46875 81.4688C5.61458 81.3281 5.79688 81.2578 6.01562 81.2578C6.22396 81.2578 6.40365 81.3281 6.55469 81.4688C6.70573 81.6094 6.78125 81.8255 6.78125 82.1172C6.78125 82.4089 6.70573 82.6276 6.55469 82.7734C6.40365 82.9141 6.22396 82.9844 6.01562 82.9844C5.79688 82.9844 5.61458 82.9141 5.46875 82.7734C5.32292 82.6276 5.25 82.4089 5.25 82.1172ZM15.2656 93V87.4609C15.2656 86.763 15.1068 86.2422 14.7891 85.8984C14.4714 85.5547 13.974 85.3828 13.2969 85.3828C12.401 85.3828 11.7448 85.625 11.3281 86.1094C10.9115 86.5938 10.7031 87.3932 10.7031 88.5078V93H9.40625V84.4375H10.4609L10.6719 85.6094H10.7344C11 85.1875 11.3724 84.862 11.8516 84.6328C12.3307 84.3984 12.8646 84.2812 13.4531 84.2812C14.4844 84.2812 15.2604 84.5312 15.7812 85.0312C16.3021 85.526 16.5625 86.3203 16.5625 87.4141V93H15.2656ZM23.0938 85.4453H20.9141V93H19.6172V85.4453H18.0859V84.8594L19.6172 84.3906V83.9141C19.6172 81.8099 20.5365 80.7578 22.375 80.7578C22.8281 80.7578 23.3594 80.849 23.9688 81.0312L23.6328 82.0703C23.1328 81.9089 22.7057 81.8281 22.3516 81.8281C21.862 81.8281 21.5 81.9922 21.2656 82.3203C21.0312 82.6432 20.9141 83.1641 20.9141 83.8828V84.4375H23.0938V85.4453ZM28.5625 84.2812C28.9427 84.2812 29.2839 84.3125 29.5859 84.375L29.4062 85.5781C29.0521 85.5 28.7396 85.4609 28.4688 85.4609C27.776 85.4609 27.1823 85.7422 26.6875 86.3047C26.1979 86.8672 25.9531 87.5677 25.9531 88.4062V93H24.6562V84.4375H25.7266L25.875 86.0234H25.9375C26.2552 85.4661 26.638 85.0365 27.0859 84.7344C27.5339 84.4323 28.026 84.2812 28.5625 84.2812ZM34.8047 93.1562C33.5391 93.1562 32.5391 92.7708 31.8047 92C31.0755 91.2292 30.7109 90.1589 30.7109 88.7891C30.7109 87.4089 31.0495 86.3125 31.7266 85.5C32.4089 84.6875 33.3229 84.2812 34.4688 84.2812C35.5417 84.2812 36.3906 84.6354 37.0156 85.3438C37.6406 86.0469 37.9531 86.9766 37.9531 88.1328V88.9531H32.0547C32.0807 89.9583 32.3333 90.7214 32.8125 91.2422C33.2969 91.763 33.9766 92.0234 34.8516 92.0234C35.7734 92.0234 36.6849 91.8307 37.5859 91.4453V92.6016C37.1276 92.7995 36.6927 92.9401 36.2812 93.0234C35.875 93.112 35.3828 93.1562 34.8047 93.1562ZM34.4531 85.3672C33.7656 85.3672 33.2161 85.5911 32.8047 86.0391C32.3984 86.487 32.1589 87.1068 32.0859 87.8984H36.5625C36.5625 87.0807 36.3802 86.4557 36.0156 86.0234C35.651 85.5859 35.1302 85.3672 34.4531 85.3672ZM43.4062 92.0703C44.2708 92.0703 44.901 91.8385 45.2969 91.375C45.6927 90.9115 45.9036 90.1302 45.9297 89.0312V88.7422C45.9297 87.5443 45.7266 86.6823 45.3203 86.1562C44.9141 85.6302 44.2708 85.3672 43.3906 85.3672C42.6302 85.3672 42.0469 85.6641 41.6406 86.2578C41.2396 86.8464 41.0391 87.6797 41.0391 88.7578C41.0391 89.8359 41.237 90.6589 41.6328 91.2266C42.0339 91.7891 42.625 92.0703 43.4062 92.0703ZM43.2109 93.1562C42.1068 93.1562 41.2448 92.7682 40.625 91.9922C40.0052 91.2161 39.6953 90.1328 39.6953 88.7422C39.6953 87.3411 40.0078 86.2474 40.6328 85.4609C41.2578 84.6745 42.1276 84.2812 43.2422 84.2812C44.4141 84.2812 45.3151 84.724 45.9453 85.6094H46.0156L46.2031 84.4375H47.2266V96.8438H45.9297V93.1797C45.9297 92.6589 45.9583 92.2161 46.0156 91.8516H45.9141C45.3151 92.7214 44.4141 93.1562 43.2109 93.1562ZM51.2031 84.4375V89.9922C51.2031 90.6901 51.362 91.2109 51.6797 91.5547C51.9974 91.8984 52.4948 92.0703 53.1719 92.0703C54.0677 92.0703 54.7214 91.8255 55.1328 91.3359C55.5495 90.8464 55.7578 90.0469 55.7578 88.9375V84.4375H57.0547V93H55.9844L55.7969 91.8516H55.7266C55.4609 92.2734 55.0911 92.5964 54.6172 92.8203C54.1484 93.0443 53.612 93.1562 53.0078 93.1562C51.9661 93.1562 51.1849 92.9089 50.6641 92.4141C50.1484 91.9193 49.8906 91.1276 49.8906 90.0391V84.4375H51.2031ZM63.4297 93.1562C62.1641 93.1562 61.1641 92.7708 60.4297 92C59.7005 91.2292 59.3359 90.1589 59.3359 88.7891C59.3359 87.4089 59.6745 86.3125 60.3516 85.5C61.0339 84.6875 61.9479 84.2812 63.0938 84.2812C64.1667 84.2812 65.0156 84.6354 65.6406 85.3438C66.2656 86.0469 66.5781 86.9766 66.5781 88.1328V88.9531H60.6797C60.7057 89.9583 60.9583 90.7214 61.4375 91.2422C61.9219 91.763 62.6016 92.0234 63.4766 92.0234C64.3984 92.0234 65.3099 91.8307 66.2109 91.4453V92.6016C65.7526 92.7995 65.3177 92.9401 64.9062 93.0234C64.5 93.112 64.0078 93.1562 63.4297 93.1562ZM63.0781 85.3672C62.3906 85.3672 61.8411 85.5911 61.4297 86.0391C61.0234 86.487 60.7839 87.1068 60.7109 87.8984H65.1875C65.1875 87.0807 65.0052 86.4557 64.6406 86.0234C64.276 85.5859 63.7552 85.3672 63.0781 85.3672ZM74.6562 93V87.4609C74.6562 86.763 74.4974 86.2422 74.1797 85.8984C73.862 85.5547 73.3646 85.3828 72.6875 85.3828C71.7917 85.3828 71.1354 85.625 70.7188 86.1094C70.3021 86.5938 70.0938 87.3932 70.0938 88.5078V93H68.7969V84.4375H69.8516L70.0625 85.6094H70.125C70.3906 85.1875 70.763 84.862 71.2422 84.6328C71.7214 84.3984 72.2552 84.2812 72.8438 84.2812C73.875 84.2812 74.651 84.5312 75.1719 85.0312C75.6927 85.526 75.9531 86.3203 75.9531 87.4141V93H74.6562ZM81.3906 92.0859C81.6198 92.0859 81.8411 92.0703 82.0547 92.0391C82.2682 92.0026 82.4375 91.9661 82.5625 91.9297V92.9219C82.4219 92.9896 82.2135 93.0443 81.9375 93.0859C81.6667 93.1328 81.4219 93.1562 81.2031 93.1562C79.5469 93.1562 78.7188 92.2839 78.7188 90.5391V85.4453H77.4922V84.8203L78.7188 84.2812L79.2656 82.4531H80.0156V84.4375H82.5V85.4453H80.0156V90.4844C80.0156 91 80.138 91.3958 80.3828 91.6719C80.6276 91.9479 80.9635 92.0859 81.3906 92.0859ZM85.5781 93H84.2812V80.8438H85.5781V93ZM86.9688 84.4375H88.3594L90.2344 89.3203C90.6458 90.4349 90.901 91.2396 91 91.7344H91.0625C91.1302 91.4688 91.2708 91.0156 91.4844 90.375C91.7031 89.7292 92.4115 87.75 93.6094 84.4375H95L91.3203 94.1875C90.9557 95.151 90.5286 95.8333 90.0391 96.2344C89.5547 96.6406 88.9583 96.8438 88.25 96.8438C87.8542 96.8438 87.4635 96.7995 87.0781 96.7109V95.6719C87.3646 95.7344 87.6849 95.7656 88.0391 95.7656C88.9297 95.7656 89.5651 95.2656 89.9453 94.2656L90.4219 93.0469L86.9688 84.4375Z" fill="#46C190"/>
<path d="M35.3744 50.6187C35.376 50.606 35.3789 50.5932 35.3797 50.5804C35.3825 50.541 35.3793 50.501 35.3756 50.461C35.3748 50.4509 35.376 50.4413 35.3748 50.4312C35.3675 50.3785 35.3541 50.3268 35.3342 50.2772C35.331 50.2687 35.3265 50.2607 35.3229 50.2522C35.322 50.2511 35.322 50.2495 35.3216 50.2479C35.3212 50.2469 35.32 50.2463 35.3196 50.2447C35.3168 50.2389 35.3143 50.2325 35.3115 50.2271C35.2863 50.1787 35.2559 50.1387 35.2218 50.1046C35.2141 50.0971 35.2051 50.0929 35.197 50.086C35.167 50.0599 35.1353 50.0385 35.1012 50.0242C35.0862 50.0178 35.0712 50.0146 35.0558 50.0108C35.0261 50.0028 34.9965 49.9991 34.9656 50.0002C34.9494 50.0007 34.934 50.0018 34.9177 50.005C34.9072 50.0071 34.897 50.005 34.8865 50.0082L11.3239 56.3994C11.1562 56.4453 11.028 56.6237 11.004 56.8464C10.9801 57.0691 11.0649 57.2876 11.2163 57.3925L17.9677 62.0666L19.1518 70.6908C19.151 70.6972 19.1522 70.7041 19.1518 70.7105C19.1478 70.7531 19.1474 70.7947 19.1514 70.8368C19.1535 70.8581 19.1555 70.8783 19.1595 70.8991C19.1689 70.9497 19.1839 70.9972 19.2042 71.0419C19.2083 71.0504 19.2083 71.0606 19.2127 71.0691C19.2139 71.0717 19.216 71.0739 19.2176 71.076C19.2229 71.0861 19.2302 71.0941 19.2363 71.1042C19.2553 71.1351 19.2752 71.1634 19.298 71.1874C19.3016 71.1911 19.3041 71.1969 19.3081 71.2007C19.3142 71.2065 19.3211 71.2081 19.3272 71.2135C19.352 71.2348 19.3775 71.2524 19.4047 71.2662C19.4157 71.2715 19.4258 71.2779 19.4372 71.2822C19.4737 71.296 19.5115 71.3056 19.5496 71.3056C19.5501 71.3056 19.5505 71.3056 19.5509 71.3056C19.5525 71.3056 19.5541 71.3046 19.5557 71.3046C19.5626 71.3051 19.5695 71.3056 19.5764 71.3056C19.6889 71.3056 19.7904 71.2396 19.8655 71.1378L24.3628 67.2027L29.0715 71.2199C29.1381 71.2763 29.2152 71.3056 29.2928 71.3056C29.3354 71.3056 29.3788 71.2966 29.4206 71.2785C29.5375 71.2273 29.6309 71.109 29.6735 70.9567L35.3549 50.7168C35.3602 50.6987 35.3647 50.68 35.3683 50.6608C35.3699 50.6528 35.3704 50.6448 35.3716 50.6374C35.3728 50.6315 35.3736 50.6251 35.3744 50.6187ZM30.6729 54.0195L20.9335 63.4183C20.9176 63.4338 20.905 63.4529 20.8912 63.4711C20.886 63.4775 20.8807 63.4828 20.8762 63.4897C20.8677 63.502 20.86 63.5142 20.8523 63.5275C20.845 63.5403 20.8393 63.5536 20.8328 63.567C20.8178 63.5989 20.8052 63.632 20.7954 63.6671C20.7934 63.674 20.7902 63.6794 20.7885 63.6863C20.7881 63.6884 20.7865 63.6895 20.7861 63.6916L19.6698 68.4531L18.7853 62.0112L30.6729 54.0195ZM20.299 69.4782L21.4056 64.681L23.1283 66.151L23.6211 66.5713L21.9471 68.0359L20.299 69.4782ZM32.1262 51.8452L18.3355 61.1162L12.5957 57.1427L32.1262 51.8452ZM29.0878 69.963L22.8344 64.6288L21.8874 63.8206L34.1278 52.0077L29.0878 69.963Z" fill="#46C190"/>
<rect x="0.5" y="0.5" width="99" height="99" stroke="#46C190"/>
</svg>
