<svg width="101" height="103" viewBox="0 0 101 103" fill="none" xmlns="http://www.w3.org/2000/svg">
<path d="M32.2734 92.1562C31.7161 92.1562 31.2057 92.0547 30.7422 91.8516C30.2839 91.6432 29.8984 91.3255 29.5859 90.8984H29.4922C29.5547 91.3984 29.5859 91.8724 29.5859 92.3203V95.8438H28.2891V83.4375H29.3438L29.5234 84.6094H29.5859C29.9193 84.1406 30.3073 83.8021 30.75 83.5938C31.1927 83.3854 31.7005 83.2812 32.2734 83.2812C33.4089 83.2812 34.2839 83.6693 34.8984 84.4453C35.5182 85.2214 35.8281 86.3099 35.8281 87.7109C35.8281 89.1172 35.513 90.2109 34.8828 90.9922C34.2578 91.7682 33.388 92.1562 32.2734 92.1562ZM32.0859 84.3828C31.2109 84.3828 30.5781 84.625 30.1875 85.1094C29.7969 85.5938 29.5964 86.3646 29.5859 87.4219V87.7109C29.5859 88.9141 29.7865 89.776 30.1875 90.2969C30.5885 90.8125 31.2318 91.0703 32.1172 91.0703C32.8568 91.0703 33.4349 90.7708 33.8516 90.1719C34.2734 89.5729 34.4844 88.7474 34.4844 87.6953C34.4844 86.6276 34.2734 85.8099 33.8516 85.2422C33.4349 84.6693 32.8464 84.3828 32.0859 84.3828ZM39.3203 83.4375V88.9922C39.3203 89.6901 39.4792 90.2109 39.7969 90.5547C40.1146 90.8984 40.612 91.0703 41.2891 91.0703C42.1849 91.0703 42.8385 90.8255 43.25 90.3359C43.6667 89.8464 43.875 89.0469 43.875 87.9375V83.4375H45.1719V92H44.1016L43.9141 90.8516H43.8438C43.5781 91.2734 43.2083 91.5964 42.7344 91.8203C42.2656 92.0443 41.7292 92.1562 41.125 92.1562C40.0833 92.1562 39.3021 91.9089 38.7812 91.4141C38.2656 90.9193 38.0078 90.1276 38.0078 89.0391V83.4375H39.3203ZM51.9141 83.2969C53.0391 83.2969 53.9115 83.6823 54.5312 84.4531C55.1562 85.2188 55.4688 86.3047 55.4688 87.7109C55.4688 89.1172 55.1536 90.2109 54.5234 90.9922C53.8984 91.7682 53.0286 92.1562 51.9141 92.1562C51.3568 92.1562 50.8464 92.0547 50.3828 91.8516C49.9245 91.6432 49.5391 91.3255 49.2266 90.8984H49.1328L48.8594 92H47.9297V79.8438H49.2266V82.7969C49.2266 83.4583 49.2057 84.0521 49.1641 84.5781H49.2266C49.8307 83.724 50.7266 83.2969 51.9141 83.2969ZM51.7266 84.3828C50.8411 84.3828 50.2031 84.638 49.8125 85.1484C49.4219 85.6536 49.2266 86.5078 49.2266 87.7109C49.2266 88.9141 49.4271 89.776 49.8281 90.2969C50.2292 90.8125 50.8724 91.0703 51.7578 91.0703C52.5547 91.0703 53.1484 90.7812 53.5391 90.2031C53.9297 89.6198 54.125 88.7839 54.125 87.6953C54.125 86.5807 53.9297 85.75 53.5391 85.2031C53.1484 84.6562 52.5443 84.3828 51.7266 84.3828ZM59.0391 92H57.7422V79.8438H59.0391V92ZM63.0859 92H61.7891V83.4375H63.0859V92ZM61.6797 81.1172C61.6797 80.8203 61.7526 80.6042 61.8984 80.4688C62.0443 80.3281 62.2266 80.2578 62.4453 80.2578C62.6536 80.2578 62.8333 80.3281 62.9844 80.4688C63.1354 80.6094 63.2109 80.8255 63.2109 81.1172C63.2109 81.4089 63.1354 81.6276 62.9844 81.7734C62.8333 81.9141 62.6536 81.9844 62.4453 81.9844C62.2266 81.9844 62.0443 81.9141 61.8984 81.7734C61.7526 81.6276 61.6797 81.4089 61.6797 81.1172ZM69.2578 92.1562C68.0182 92.1562 67.0573 91.776 66.375 91.0156C65.6979 90.25 65.3594 89.1693 65.3594 87.7734C65.3594 86.3411 65.7031 85.2344 66.3906 84.4531C67.0833 83.6719 68.0677 83.2812 69.3438 83.2812C69.7552 83.2812 70.1667 83.3255 70.5781 83.4141C70.9896 83.5026 71.3125 83.6068 71.5469 83.7266L71.1484 84.8281C70.862 84.7135 70.5495 84.6198 70.2109 84.5469C69.8724 84.4688 69.5729 84.4297 69.3125 84.4297C67.5729 84.4297 66.7031 85.5391 66.7031 87.7578C66.7031 88.8099 66.9141 89.6172 67.3359 90.1797C67.763 90.7422 68.3932 91.0234 69.2266 91.0234C69.9401 91.0234 70.6719 90.8698 71.4219 90.5625V91.7109C70.849 92.0078 70.1276 92.1562 69.2578 92.1562Z" fill="#46C190"/>
<rect x="1.5" y="0.5" width="99" height="99" stroke="#46C190"/>
<path d="M75.0243 60.5355H64.6421C64.7504 60.2302 64.8098 59.9021 64.8098 59.56V58.5844H69.6278C73.1136 58.5844 75.9496 55.7485 75.9496 52.2626C75.9496 50.574 75.2921 48.9864 74.098 47.7924L73.4689 47.1633L68.0057 41.7001C68.0056 41.7 68.0055 41.6999 68.0053 41.6998L65.222 38.9165C62.0516 35.7461 57.8364 34 53.3526 34H26.9758C26.4371 34 26.0002 34.4368 26.0002 34.9756C26.0002 35.5143 26.437 35.9512 26.9758 35.9512H53.3526C57.3151 35.9512 61.0404 37.4942 63.8423 40.2962L64.9604 41.4144H53.7189C51.6748 41.4144 50.0118 43.0774 50.0118 45.1215C50.0118 47.1655 51.6749 48.8286 53.7189 48.8286H72.3749L72.7183 49.1721C73.5437 49.9976 73.9985 51.0951 73.9985 52.2626C73.9985 54.6726 72.0378 56.6333 69.6278 56.6333H63.8343H59.932H36.1965H32.2943H26.9758C26.4371 56.6333 26.0002 57.0701 26.0002 57.6089C26.0002 58.1476 26.437 58.5845 26.9758 58.5845H31.3187V59.5601C31.3187 59.9021 31.3782 60.2303 31.4865 60.5356H27.0261C26.4874 60.5356 26.0505 60.9725 26.0505 61.5112C26.0505 62.0499 26.4873 62.4868 27.0261 62.4868H43.4158C43.9546 62.4868 44.3914 62.05 44.3914 61.5112C44.3914 60.9726 43.9546 60.5356 43.4158 60.5356H37.0044C37.1127 60.2303 37.1721 59.9021 37.1721 59.5601V58.5845H58.9564V59.5601C58.9564 59.9021 59.0159 60.2303 59.1242 60.5356H51.0296C50.4908 60.5356 50.054 60.9725 50.054 61.5112C50.054 62.0499 50.4907 62.4868 51.0296 62.4868H75.0243C75.5631 62.4868 75.9999 62.05 75.9999 61.5112C75.9999 60.9725 75.5632 60.5355 75.0243 60.5355ZM53.7189 46.8775C52.7506 46.8775 51.9629 46.0897 51.9629 45.1215C51.9629 44.1532 52.7506 43.3654 53.7189 43.3654H66.9117L70.4237 46.8774H53.7189V46.8775ZM35.221 59.56C35.221 60.0979 34.7834 60.5355 34.2454 60.5355C33.7075 60.5355 33.2698 60.0979 33.2698 59.56V58.5844H35.221V59.56ZM62.8588 59.56C62.8588 60.0979 62.4212 60.5355 61.8832 60.5355C61.3453 60.5355 60.9076 60.0979 60.9076 59.56V58.5844H62.8588V59.56Z" fill="#46C190"/>
<path d="M47.9104 60.8214C47.729 60.6399 47.4773 60.5355 47.2207 60.5355C46.9642 60.5355 46.7124 60.6398 46.531 60.8214C46.3495 61.0028 46.2451 61.2545 46.2451 61.5111C46.2451 61.7677 46.3495 62.0194 46.531 62.2008C46.7124 62.3822 46.9641 62.4867 47.2207 62.4867C47.4772 62.4867 47.729 62.3823 47.9104 62.2008C48.0919 62.0194 48.1963 61.7677 48.1963 61.5111C48.1963 61.2546 48.0919 61.0028 47.9104 60.8214Z" fill="#46C190"/>
<path d="M42.1948 41.4144H30.7008C30.1621 41.4144 29.7252 41.8512 29.7252 42.39C29.7252 42.9286 30.162 43.3655 30.7008 43.3655H42.1948C43.163 43.3655 43.9508 44.1533 43.9508 45.1216C43.9508 46.0898 43.163 46.8776 42.1947 46.8776H26.9758C26.4371 46.8776 26.0002 47.3145 26.0002 47.8532C26.0002 48.392 26.437 48.8288 26.9758 48.8288H42.1948C44.2389 48.8288 45.9019 47.1657 45.9019 45.1217C45.9019 43.0776 44.2388 41.4144 42.1948 41.4144Z" fill="#46C190"/>
<path d="M27.6653 41.7002C27.4839 41.5187 27.2332 41.4144 26.9756 41.4144C26.719 41.4144 26.4673 41.5187 26.2858 41.7002C26.1044 41.8817 26 42.1333 26 42.3899C26 42.6464 26.1044 42.8982 26.2858 43.0795C26.4673 43.2609 26.719 43.3654 26.9756 43.3654C27.2331 43.3654 27.4839 43.261 27.6653 43.0795C27.8478 42.8982 27.9512 42.6464 27.9512 42.3899C27.9512 42.1333 27.8478 41.8817 27.6653 41.7002Z" fill="#46C190"/>
</svg>
