<svg width="100" height="103" viewBox="0 0 100 103" fill="none" xmlns="http://www.w3.org/2000/svg">
<path d="M23.4141 92V86.4297C23.4141 85.7474 23.2682 85.237 22.9766 84.8984C22.6849 84.5547 22.2318 84.3828 21.6172 84.3828C20.8099 84.3828 20.2135 84.6146 19.8281 85.0781C19.4427 85.5417 19.25 86.2552 19.25 87.2188V92H17.9531V86.4297C17.9531 85.7474 17.8073 85.237 17.5156 84.8984C17.224 84.5547 16.7682 84.3828 16.1484 84.3828C15.3359 84.3828 14.7396 84.6276 14.3594 85.1172C13.9844 85.6016 13.7969 86.3984 13.7969 87.5078V92H12.5V83.4375H13.5547L13.7656 84.6094H13.8281C14.0729 84.1927 14.4167 83.8672 14.8594 83.6328C15.3073 83.3984 15.8073 83.2812 16.3594 83.2812C17.6979 83.2812 18.5729 83.7656 18.9844 84.7344H19.0469C19.3021 84.2865 19.6719 83.9323 20.1562 83.6719C20.6406 83.4115 21.1927 83.2812 21.8125 83.2812C22.7812 83.2812 23.5052 83.5312 23.9844 84.0312C24.4688 84.526 24.7109 85.3203 24.7109 86.4141V92H23.4141ZM34.7812 87.7109C34.7812 89.1068 34.4297 90.1979 33.7266 90.9844C33.0234 91.7656 32.0521 92.1562 30.8125 92.1562C30.0469 92.1562 29.3672 91.9766 28.7734 91.6172C28.1797 91.2578 27.7214 90.7422 27.3984 90.0703C27.0755 89.3984 26.9141 88.612 26.9141 87.7109C26.9141 86.3151 27.263 85.2292 27.9609 84.4531C28.6589 83.6719 29.6276 83.2812 30.8672 83.2812C32.0651 83.2812 33.0156 83.6797 33.7188 84.4766C34.4271 85.2734 34.7812 86.3516 34.7812 87.7109ZM28.2578 87.7109C28.2578 88.8047 28.4766 89.638 28.9141 90.2109C29.3516 90.7839 29.9948 91.0703 30.8438 91.0703C31.6927 91.0703 32.3359 90.7865 32.7734 90.2188C33.2161 89.6458 33.4375 88.8099 33.4375 87.7109C33.4375 86.6224 33.2161 85.7969 32.7734 85.2344C32.3359 84.6667 31.6875 84.3828 30.8281 84.3828C29.9792 84.3828 29.3385 84.6615 28.9062 85.2188C28.474 85.776 28.2578 86.6068 28.2578 87.7109ZM39.8281 91.0859C40.0573 91.0859 40.2786 91.0703 40.4922 91.0391C40.7057 91.0026 40.875 90.9661 41 90.9297V91.9219C40.8594 91.9896 40.651 92.0443 40.375 92.0859C40.1042 92.1328 39.8594 92.1562 39.6406 92.1562C37.9844 92.1562 37.1562 91.2839 37.1562 89.5391V84.4453H35.9297V83.8203L37.1562 83.2812L37.7031 81.4531H38.4531V83.4375H40.9375V84.4453H38.4531V89.4844C38.4531 90 38.5755 90.3958 38.8203 90.6719C39.0651 90.9479 39.401 91.0859 39.8281 91.0859ZM50.1094 87.7109C50.1094 89.1068 49.7578 90.1979 49.0547 90.9844C48.3516 91.7656 47.3802 92.1562 46.1406 92.1562C45.375 92.1562 44.6953 91.9766 44.1016 91.6172C43.5078 91.2578 43.0495 90.7422 42.7266 90.0703C42.4036 89.3984 42.2422 88.612 42.2422 87.7109C42.2422 86.3151 42.5911 85.2292 43.2891 84.4531C43.987 83.6719 44.9557 83.2812 46.1953 83.2812C47.3932 83.2812 48.3438 83.6797 49.0469 84.4766C49.7552 85.2734 50.1094 86.3516 50.1094 87.7109ZM43.5859 87.7109C43.5859 88.8047 43.8047 89.638 44.2422 90.2109C44.6797 90.7839 45.3229 91.0703 46.1719 91.0703C47.0208 91.0703 47.6641 90.7865 48.1016 90.2188C48.5443 89.6458 48.7656 88.8099 48.7656 87.7109C48.7656 86.6224 48.5443 85.7969 48.1016 85.2344C47.6641 84.6667 47.0156 84.3828 46.1562 84.3828C45.3073 84.3828 44.6667 84.6615 44.2344 85.2188C43.8021 85.776 43.5859 86.6068 43.5859 87.7109ZM56.2969 83.2812C56.6771 83.2812 57.0182 83.3125 57.3203 83.375L57.1406 84.5781C56.7865 84.5 56.474 84.4609 56.2031 84.4609C55.5104 84.4609 54.9167 84.7422 54.4219 85.3047C53.9323 85.8672 53.6875 86.5677 53.6875 87.4062V92H52.3906V83.4375H53.4609L53.6094 85.0234H53.6719C53.9896 84.4661 54.3724 84.0365 54.8203 83.7344C55.2682 83.4323 55.7604 83.2812 56.2969 83.2812ZM60.2188 92H58.9219V83.4375H60.2188V92ZM58.8125 81.1172C58.8125 80.8203 58.8854 80.6042 59.0312 80.4688C59.1771 80.3281 59.3594 80.2578 59.5781 80.2578C59.7865 80.2578 59.9661 80.3281 60.1172 80.4688C60.2682 80.6094 60.3438 80.8255 60.3438 81.1172C60.3438 81.4089 60.2682 81.6276 60.1172 81.7734C59.9661 81.9141 59.7865 81.9844 59.5781 81.9844C59.3594 81.9844 59.1771 81.9141 59.0312 81.7734C58.8854 81.6276 58.8125 81.4089 58.8125 81.1172ZM68.4453 92H62.2344V91.1172L66.9062 84.4453H62.5234V83.4375H68.3281V84.4453L63.7188 90.9922H68.4453V92ZM74.0703 92.1562C72.8047 92.1562 71.8047 91.7708 71.0703 91C70.3411 90.2292 69.9766 89.1589 69.9766 87.7891C69.9766 86.4089 70.3151 85.3125 70.9922 84.5C71.6745 83.6875 72.5885 83.2812 73.7344 83.2812C74.8073 83.2812 75.6562 83.6354 76.2812 84.3438C76.9062 85.0469 77.2188 85.9766 77.2188 87.1328V87.9531H71.3203C71.3464 88.9583 71.599 89.7214 72.0781 90.2422C72.5625 90.763 73.2422 91.0234 74.1172 91.0234C75.0391 91.0234 75.9505 90.8307 76.8516 90.4453V91.6016C76.3932 91.7995 75.9583 91.9401 75.5469 92.0234C75.1406 92.112 74.6484 92.1562 74.0703 92.1562ZM73.7188 84.3672C73.0312 84.3672 72.4818 84.5911 72.0703 85.0391C71.6641 85.487 71.4245 86.1068 71.3516 86.8984H75.8281C75.8281 86.0807 75.6458 85.4557 75.2812 85.0234C74.9167 84.5859 74.3958 84.3672 73.7188 84.3672ZM85.2656 90.8516H85.1953C84.5964 91.7214 83.7005 92.1562 82.5078 92.1562C81.388 92.1562 80.5156 91.7734 79.8906 91.0078C79.2708 90.2422 78.9609 89.1536 78.9609 87.7422C78.9609 86.3307 79.2734 85.2344 79.8984 84.4531C80.5234 83.6719 81.3932 83.2812 82.5078 83.2812C83.6693 83.2812 84.5599 83.7031 85.1797 84.5469H85.2812L85.2266 83.9297L85.1953 83.3281V79.8438H86.4922V92H85.4375L85.2656 90.8516ZM82.6719 91.0703C83.5573 91.0703 84.1979 90.8307 84.5938 90.3516C84.9948 89.8672 85.1953 89.0885 85.1953 88.0156V87.7422C85.1953 86.5286 84.9922 85.6641 84.5859 85.1484C84.1849 84.6276 83.5417 84.3672 82.6562 84.3672C81.8958 84.3672 81.3125 84.6641 80.9062 85.2578C80.5052 85.8464 80.3047 86.6797 80.3047 87.7578C80.3047 88.8516 80.5052 89.6771 80.9062 90.2344C81.3073 90.7917 81.8958 91.0703 82.6719 91.0703Z" fill="#46C190"/>
<rect x="0.5" y="0.5" width="99" height="99" stroke="#46C190"/>
<path d="M73.0876 40.3697L71.9979 39.2158L68.1731 28.906C67.5214 27.1645 65.8547 26.0107 63.9957 26H36.6774C34.8184 26 33.1517 27.1645 32.5 28.906L28.7286 39.0876L27.1581 40.5406C25.7906 41.7051 25 43.4145 25 45.2094V60.2308C25.0107 62.688 27.0085 64.6752 29.4658 64.6752H32.2863C34.7436 64.6752 36.7415 62.688 36.7521 60.2308V58.0513H63.2479V60.2308C63.2585 62.688 65.2564 64.6752 67.7137 64.6752H70.5342C72.9915 64.6752 74.9893 62.688 75 60.2308V44.8141C74.9893 43.1368 74.3056 41.5342 73.0876 40.3697ZM34.5085 29.6325C34.8504 28.7244 35.7158 28.1368 36.6774 28.1368H64.0064C64.9679 28.1368 65.8333 28.735 66.1752 29.6325L69.5085 38.6068H67.0192C66.4316 34.6004 62.703 31.8333 58.6966 32.4316C55.5021 32.9017 52.9915 35.4124 52.5214 38.6068H31.1752L34.5085 29.6325ZM64.8397 38.6068H54.6795C55.2671 35.797 58.0235 34.0021 60.8333 34.5897C62.8419 35.0171 64.4124 36.5876 64.8397 38.6068ZM34.6154 60.2308C34.6047 61.5128 33.5684 62.5385 32.2863 62.5385H29.4658C28.1838 62.5385 27.1474 61.5128 27.1368 60.2308V57.4316C27.7778 57.8483 28.6218 58.0513 29.4658 58.0513H34.6154V60.2308ZM72.8632 60.2308C72.8526 61.5128 71.8162 62.5385 70.5342 62.5385H67.7137C66.4316 62.5385 65.3953 61.5021 65.3846 60.2308V58.0513H70.5342C71.3782 58.0513 72.2222 57.8483 72.8632 57.4316V60.2308ZM70.5342 55.9145H29.4658C28.1944 55.9252 27.1474 54.9103 27.1368 53.6282V45.2094C27.1368 44.0342 27.6603 42.9124 28.5577 42.1538C28.5684 42.1432 28.5897 42.1218 28.6004 42.1111L30.0534 40.7436H70.5128L71.5385 41.844C71.5491 41.8654 71.5812 41.8761 71.5919 41.8974C72.3932 42.656 72.8526 43.7137 72.8526 44.8141V53.6282H72.8632C72.8526 54.8996 71.8056 55.9252 70.5342 55.9145Z" fill="#46C190"/>
<path d="M39.1026 45.0171H31.0897C30.5021 45.0171 30.0214 45.4979 30.0214 46.0855V51.641C30.0214 52.2286 30.5021 52.7094 31.0897 52.7094H39.1026C39.6902 52.7094 40.1709 52.2286 40.1709 51.641V46.0855C40.1709 45.4979 39.6902 45.0171 39.1026 45.0171ZM38.0342 50.5726H32.1581V47.1538H38.0342V50.5726Z" fill="#46C190"/>
<path d="M68.9103 45.0171H60.8975C60.3099 45.0171 59.8291 45.4979 59.8291 46.0855V51.641C59.8291 52.2286 60.3099 52.7094 60.8975 52.7094H68.9103C69.4979 52.7094 69.9787 52.2286 69.9787 51.641V46.0855C69.9787 45.4979 69.4979 45.0171 68.9103 45.0171ZM67.8419 50.5726H61.9659V47.1538H67.8419V50.5726Z" fill="#46C190"/>
<path d="M55.1603 49.5043H44.8397C44.2521 49.5043 43.7714 49.985 43.7714 50.5726C43.7714 51.1603 44.2521 51.641 44.8397 51.641H55.1603C55.7479 51.641 56.2286 51.1603 56.2286 50.5726C56.2286 49.985 55.7479 49.5043 55.1603 49.5043Z" fill="#46C190"/>
<path d="M55.1603 46.1923H44.8397C44.2521 46.1923 43.7714 46.6731 43.7714 47.2607C43.7714 47.8483 44.2521 48.3291 44.8397 48.3291H55.1603C55.7479 48.3291 56.2286 47.8483 56.2286 47.2607C56.2286 46.6731 55.7479 46.1923 55.1603 46.1923Z" fill="#46C190"/>
</svg>
