<svg width="101" height="103" viewBox="0 0 101 103" fill="none" xmlns="http://www.w3.org/2000/svg">
<path d="M48.125 92V86.4297C48.125 85.7474 47.9792 85.237 47.6875 84.8984C47.3958 84.5547 46.9427 84.3828 46.3281 84.3828C45.5208 84.3828 44.9245 84.6146 44.5391 85.0781C44.1536 85.5417 43.9609 86.2552 43.9609 87.2188V92H42.6641V86.4297C42.6641 85.7474 42.5182 85.237 42.2266 84.8984C41.9349 84.5547 41.4792 84.3828 40.8594 84.3828C40.0469 84.3828 39.4505 84.6276 39.0703 85.1172C38.6953 85.6016 38.5078 86.3984 38.5078 87.5078V92H37.2109V83.4375H38.2656L38.4766 84.6094H38.5391C38.7839 84.1927 39.1276 83.8672 39.5703 83.6328C40.0182 83.3984 40.5182 83.2812 41.0703 83.2812C42.4089 83.2812 43.2839 83.7656 43.6953 84.7344H43.7578C44.013 84.2865 44.3828 83.9323 44.8672 83.6719C45.3516 83.4115 45.9036 83.2812 46.5234 83.2812C47.4922 83.2812 48.2161 83.5312 48.6953 84.0312C49.1797 84.526 49.4219 85.3203 49.4219 86.4141V92H48.125ZM53.3984 92H52.1016V83.4375H53.3984V92ZM51.9922 81.1172C51.9922 80.8203 52.0651 80.6042 52.2109 80.4688C52.3568 80.3281 52.5391 80.2578 52.7578 80.2578C52.9661 80.2578 53.1458 80.3281 53.2969 80.4688C53.4479 80.6094 53.5234 80.8255 53.5234 81.1172C53.5234 81.4089 53.4479 81.6276 53.2969 81.7734C53.1458 81.9141 52.9661 81.9844 52.7578 81.9844C52.5391 81.9844 52.3568 81.9141 52.2109 81.7734C52.0651 81.6276 51.9922 81.4089 51.9922 81.1172ZM58.2109 87.6172L55.2344 83.4375H56.7109L58.9688 86.7188L61.2188 83.4375H62.6797L59.7031 87.6172L62.8359 92H61.3672L58.9688 88.5312L56.5469 92H55.0781L58.2109 87.6172Z" fill="#46C190"/>
<rect x="1.5" y="0.5" width="99" height="99" stroke="#46C190"/>
<path d="M75.0243 60.5355H64.6421C64.7504 60.2302 64.8098 59.9021 64.8098 59.56V58.5844H69.6278C73.1136 58.5844 75.9496 55.7485 75.9496 52.2626C75.9496 50.574 75.2921 48.9864 74.098 47.7924L73.4689 47.1633L68.0057 41.7001C68.0056 41.7 68.0055 41.6999 68.0053 41.6998L65.222 38.9165C62.0516 35.7461 57.8364 34 53.3526 34H26.9758C26.4371 34 26.0002 34.4368 26.0002 34.9756C26.0002 35.5143 26.437 35.9512 26.9758 35.9512H53.3526C57.3151 35.9512 61.0404 37.4942 63.8423 40.2962L64.9604 41.4144H53.7189C51.6748 41.4144 50.0118 43.0774 50.0118 45.1215C50.0118 47.1655 51.6749 48.8286 53.7189 48.8286H72.3749L72.7183 49.1721C73.5437 49.9976 73.9985 51.0951 73.9985 52.2626C73.9985 54.6726 72.0378 56.6333 69.6278 56.6333H63.8343H59.932H36.1965H32.2943H26.9758C26.4371 56.6333 26.0002 57.0701 26.0002 57.6089C26.0002 58.1476 26.437 58.5845 26.9758 58.5845H31.3187V59.5601C31.3187 59.9021 31.3782 60.2303 31.4865 60.5356H27.0261C26.4874 60.5356 26.0505 60.9725 26.0505 61.5112C26.0505 62.0499 26.4873 62.4868 27.0261 62.4868H43.4158C43.9546 62.4868 44.3914 62.05 44.3914 61.5112C44.3914 60.9726 43.9546 60.5356 43.4158 60.5356H37.0044C37.1127 60.2303 37.1721 59.9021 37.1721 59.5601V58.5845H58.9564V59.5601C58.9564 59.9021 59.0159 60.2303 59.1242 60.5356H51.0296C50.4908 60.5356 50.054 60.9725 50.054 61.5112C50.054 62.0499 50.4907 62.4868 51.0296 62.4868H75.0243C75.5631 62.4868 75.9999 62.05 75.9999 61.5112C75.9999 60.9725 75.5632 60.5355 75.0243 60.5355ZM53.7189 46.8775C52.7506 46.8775 51.9629 46.0897 51.9629 45.1215C51.9629 44.1532 52.7506 43.3654 53.7189 43.3654H66.9117L70.4237 46.8774H53.7189V46.8775ZM35.221 59.56C35.221 60.0979 34.7834 60.5355 34.2454 60.5355C33.7075 60.5355 33.2698 60.0979 33.2698 59.56V58.5844H35.221V59.56V59.56ZM62.8588 59.56C62.8588 60.0979 62.4212 60.5355 61.8832 60.5355C61.3453 60.5355 60.9076 60.0979 60.9076 59.56V58.5844H62.8588V59.56Z" fill="#46C190"/>
<path d="M47.9104 60.8214C47.729 60.6399 47.4773 60.5355 47.2207 60.5355C46.9642 60.5355 46.7124 60.6398 46.531 60.8214C46.3495 61.0028 46.2451 61.2545 46.2451 61.5111C46.2451 61.7677 46.3495 62.0194 46.531 62.2008C46.7124 62.3822 46.9641 62.4867 47.2207 62.4867C47.4772 62.4867 47.729 62.3823 47.9104 62.2008C48.0919 62.0194 48.1963 61.7677 48.1963 61.5111C48.1963 61.2546 48.0919 61.0028 47.9104 60.8214Z" fill="#46C190"/>
<path d="M42.1948 41.4144H30.7008C30.1621 41.4144 29.7252 41.8512 29.7252 42.39C29.7252 42.9286 30.162 43.3655 30.7008 43.3655H42.1948C43.163 43.3655 43.9508 44.1533 43.9508 45.1216C43.9508 46.0898 43.163 46.8776 42.1947 46.8776H26.9758C26.4371 46.8776 26.0002 47.3145 26.0002 47.8532C26.0002 48.392 26.437 48.8288 26.9758 48.8288H42.1948C44.2389 48.8288 45.9019 47.1657 45.9019 45.1217C45.9019 43.0776 44.2388 41.4144 42.1948 41.4144Z" fill="#46C190"/>
<path d="M27.6653 41.7002C27.4839 41.5187 27.2332 41.4144 26.9756 41.4144C26.719 41.4144 26.4673 41.5187 26.2858 41.7002C26.1044 41.8817 26 42.1333 26 42.3899C26 42.6464 26.1044 42.8982 26.2858 43.0795C26.4673 43.2609 26.719 43.3654 26.9756 43.3654C27.2331 43.3654 27.4839 43.261 27.6653 43.0795C27.8478 42.8982 27.9512 42.6464 27.9512 42.3899C27.9512 42.1333 27.8478 41.8817 27.6653 41.7002Z" fill="#46C190"/>
</svg>
