<svg width="100" height="103" viewBox="0 0 100 103" fill="none" xmlns="http://www.w3.org/2000/svg">
<path d="M29.6406 92L28.0703 86.9766C27.9714 86.6693 27.7865 85.9714 27.5156 84.8828H27.4531C27.2448 85.7943 27.0625 86.4974 26.9062 86.9922L25.2891 92H23.7891L21.4531 83.4375H22.8125C23.3646 85.5885 23.7839 87.2266 24.0703 88.3516C24.362 89.4766 24.5286 90.2344 24.5703 90.625H24.6328C24.6901 90.3281 24.7812 89.9453 24.9062 89.4766C25.0365 89.0026 25.1484 88.6276 25.2422 88.3516L26.8125 83.4375H28.2188L29.75 88.3516C30.0417 89.2474 30.2396 90 30.3438 90.6094H30.4062C30.4271 90.4219 30.4818 90.1328 30.5703 89.7422C30.6641 89.3516 31.2083 87.25 32.2031 83.4375H33.5469L31.1797 92H29.6406ZM40.3672 92L40.1094 90.7812H40.0469C39.6198 91.3177 39.1927 91.6823 38.7656 91.875C38.3438 92.0625 37.8151 92.1562 37.1797 92.1562C36.3307 92.1562 35.6641 91.9375 35.1797 91.5C34.7005 91.0625 34.4609 90.4401 34.4609 89.6328C34.4609 87.9036 35.8438 86.9974 38.6094 86.9141L40.0625 86.8672V86.3359C40.0625 85.6641 39.9167 85.1693 39.625 84.8516C39.3385 84.5286 38.8776 84.3672 38.2422 84.3672C37.5286 84.3672 36.7214 84.5859 35.8203 85.0234L35.4219 84.0312C35.8438 83.8021 36.3047 83.6224 36.8047 83.4922C37.3099 83.362 37.8151 83.2969 38.3203 83.2969C39.3411 83.2969 40.0964 83.5234 40.5859 83.9766C41.0807 84.4297 41.3281 85.1562 41.3281 86.1562V92H40.3672ZM37.4375 91.0859C38.2448 91.0859 38.8776 90.8646 39.3359 90.4219C39.7995 89.9792 40.0312 89.3594 40.0312 88.5625V87.7891L38.7344 87.8438C37.7031 87.8802 36.9583 88.0417 36.5 88.3281C36.0469 88.6094 35.8203 89.0495 35.8203 89.6484C35.8203 90.1172 35.9609 90.474 36.2422 90.7188C36.5286 90.9635 36.9271 91.0859 37.4375 91.0859ZM45.3047 92H44.0078V79.8438H45.3047V92ZM49.3359 87.6172C49.5599 87.2995 49.901 86.8828 50.3594 86.3672L53.125 83.4375H54.6641L51.1953 87.0859L54.9062 92H53.3359L50.3125 87.9531L49.3359 88.7969V92H48.0547V79.8438H49.3359V86.2891C49.3359 86.5755 49.3151 87.0182 49.2734 87.6172H49.3359ZM57.7578 92H56.4609V83.4375H57.7578V92ZM56.3516 81.1172C56.3516 80.8203 56.4245 80.6042 56.5703 80.4688C56.7161 80.3281 56.8984 80.2578 57.1172 80.2578C57.3255 80.2578 57.5052 80.3281 57.6562 80.4688C57.8073 80.6094 57.8828 80.8255 57.8828 81.1172C57.8828 81.4089 57.8073 81.6276 57.6562 81.7734C57.5052 81.9141 57.3255 81.9844 57.1172 81.9844C56.8984 81.9844 56.7161 81.9141 56.5703 81.7734C56.4245 81.6276 56.3516 81.4089 56.3516 81.1172ZM66.3672 92V86.4609C66.3672 85.763 66.2083 85.2422 65.8906 84.8984C65.5729 84.5547 65.0755 84.3828 64.3984 84.3828C63.5026 84.3828 62.8464 84.625 62.4297 85.1094C62.013 85.5938 61.8047 86.3932 61.8047 87.5078V92H60.5078V83.4375H61.5625L61.7734 84.6094H61.8359C62.1016 84.1875 62.474 83.862 62.9531 83.6328C63.4323 83.3984 63.9661 83.2812 64.5547 83.2812C65.5859 83.2812 66.362 83.5312 66.8828 84.0312C67.4036 84.526 67.6641 85.3203 67.6641 86.4141V92H66.3672ZM77.3438 83.4375V84.2578L75.7578 84.4453C75.9036 84.6276 76.0339 84.8672 76.1484 85.1641C76.263 85.4557 76.3203 85.7865 76.3203 86.1562C76.3203 86.9948 76.0339 87.6641 75.4609 88.1641C74.888 88.6641 74.1016 88.9141 73.1016 88.9141C72.8464 88.9141 72.6068 88.8932 72.3828 88.8516C71.8307 89.1432 71.5547 89.5104 71.5547 89.9531C71.5547 90.1875 71.651 90.362 71.8438 90.4766C72.0365 90.5859 72.3672 90.6406 72.8359 90.6406H74.3516C75.2786 90.6406 75.9896 90.8359 76.4844 91.2266C76.9844 91.6172 77.2344 92.1849 77.2344 92.9297C77.2344 93.8776 76.8542 94.599 76.0938 95.0938C75.3333 95.5938 74.224 95.8438 72.7656 95.8438C71.6458 95.8438 70.7812 95.6354 70.1719 95.2188C69.5677 94.8021 69.2656 94.2135 69.2656 93.4531C69.2656 92.9323 69.4323 92.4818 69.7656 92.1016C70.099 91.7214 70.5677 91.4635 71.1719 91.3281C70.9531 91.2292 70.7682 91.0755 70.6172 90.8672C70.4714 90.6589 70.3984 90.4167 70.3984 90.1406C70.3984 89.8281 70.4818 89.5547 70.6484 89.3203C70.8151 89.0859 71.0781 88.8594 71.4375 88.6406C70.9948 88.4583 70.6328 88.1484 70.3516 87.7109C70.0755 87.2734 69.9375 86.7734 69.9375 86.2109C69.9375 85.2734 70.2188 84.5521 70.7812 84.0469C71.3438 83.5365 72.1406 83.2812 73.1719 83.2812C73.6198 83.2812 74.0234 83.3333 74.3828 83.4375H77.3438ZM70.5156 93.4375C70.5156 93.901 70.7109 94.2526 71.1016 94.4922C71.4922 94.7318 72.0521 94.8516 72.7812 94.8516C73.8698 94.8516 74.6745 94.6875 75.1953 94.3594C75.7214 94.0365 75.9844 93.5964 75.9844 93.0391C75.9844 92.5755 75.8411 92.2526 75.5547 92.0703C75.2682 91.8932 74.7292 91.8047 73.9375 91.8047H72.3828C71.7943 91.8047 71.3359 91.9453 71.0078 92.2266C70.6797 92.5078 70.5156 92.9115 70.5156 93.4375ZM71.2188 86.1797C71.2188 86.7786 71.388 87.2318 71.7266 87.5391C72.0651 87.8464 72.5365 88 73.1406 88C74.4062 88 75.0391 87.3854 75.0391 86.1562C75.0391 84.8698 74.3984 84.2266 73.1172 84.2266C72.5078 84.2266 72.0391 84.3906 71.7109 84.7188C71.3828 85.0469 71.2188 85.5339 71.2188 86.1797Z" fill="#46C190"/>
<rect x="0.5" y="0.5" width="99" height="99" stroke="#46C190"/>
<path d="M42.8351 44.1667V45.8334C42.8351 46.7525 42.0876 47.5001 41.1684 47.5001H38.6684C37.7493 47.5001 37.0017 46.7526 37.0017 45.8334V33.3334C37.0017 32.4143 37.7492 31.6667 38.6684 31.6667H41.1684C41.8526 31.6667 42.4667 32.0858 42.7167 32.7176L42.8451 33.4734L44.4884 33.1942L44.3467 32.3609C44.3384 32.3135 44.3267 32.2676 44.3109 32.2226C43.8417 30.8926 42.5784 30.0001 41.1684 30.0001H41.1675H38.6675C36.8291 30.0001 35.3342 31.4951 35.3342 33.3334V45.8334C35.3342 47.6718 36.8292 49.1667 38.6675 49.1667H41.1675C43.0059 49.1667 44.5008 47.6717 44.5017 45.8334V44.1667H42.8351V44.1667Z" fill="#46C190"/>
<path d="M39.9175 22.5C37.39 22.5 35.3342 24.5559 35.3342 27.0833C35.3342 29.6107 37.3901 31.6666 39.9175 31.6666C42.445 31.6666 44.5008 29.6107 44.5008 27.0833C44.5008 24.5559 42.4451 22.5 39.9175 22.5ZM39.9175 30C38.3092 30 37.0008 28.6917 37.0008 27.0833C37.0008 25.475 38.3091 24.1666 39.9175 24.1666C41.5258 24.1666 42.8342 25.4749 42.8342 27.0833C42.8342 28.6917 41.5258 30 39.9175 30Z" fill="#46C190"/>
<path d="M36.1676 37.5H34.3343C33.0477 37.5 32.001 38.5467 32.001 39.8333V43.5C32.001 44.7866 33.0477 45.8333 34.3343 45.8333H36.1676C36.6275 45.8333 37.0009 45.4608 37.0009 45V38.3333C37.0009 37.8733 36.6275 37.5 36.1676 37.5ZM35.3343 44.1667H34.3343C33.9668 44.1667 33.6676 43.8676 33.6676 43.5V39.8333C33.6676 39.4658 33.9667 39.1666 34.3343 39.1666H35.3343V44.1667Z" fill="#46C190"/>
<path d="M50.3342 30H47.0009V31.6667H50.3342C51.7125 31.6667 52.8342 32.7884 52.8342 34.1667V48.3334H44.5009V42.5H42.8342V49.1667C42.8342 49.6275 43.2076 50 43.6675 50H53.6675C54.1284 50 54.5008 49.6275 54.5008 49.1667V34.1667C54.5008 31.8691 52.6317 30 50.3342 30Z" fill="#46C190"/>
<path d="M53.5311 23.1141L51.9228 23.5525C51.977 23.7509 52.0036 23.9551 52.002 24.1667V27.5C52.002 28.8783 50.8803 30 49.502 30C48.1236 30 47.002 28.8783 47.002 27.5V24.1592C47.0003 23.9533 47.027 23.75 47.0803 23.5533L45.4728 23.1125C45.3778 23.4575 45.3311 23.815 45.3344 24.1667V27.5C45.3344 29.7974 47.2035 31.6667 49.5011 31.6667C51.7985 31.6667 53.6678 29.7975 53.6686 27.5V24.1741C53.6719 23.8167 53.6252 23.4599 53.5311 23.1141Z" fill="#46C190"/>
<path d="M54.5011 20H48.6678C46.8294 20 45.3345 21.495 45.3345 23.3333V26.6666C45.3345 27.0032 45.5378 27.3074 45.8486 27.4366C45.952 27.4791 46.0603 27.4999 46.1678 27.4999C46.3845 27.4999 46.5978 27.4149 46.7569 27.2558L49.8461 24.1666H52.0011C53.8395 24.1666 55.3344 22.6716 55.3344 20.8333C55.3345 20.3733 54.9619 20 54.5011 20ZM52.0011 22.5H49.5011C49.2803 22.5 49.0686 22.5875 48.9119 22.7441L47.0011 24.655V23.3333C47.0011 22.4142 47.7485 21.6666 48.6678 21.6666H53.4437C53.1562 22.1642 52.617 22.5 52.0011 22.5Z" fill="#46C190"/>
<path d="M61.9126 63.7934L54.4126 48.7934L52.9218 49.5392L60.0493 63.7934L58.1701 64.7325L51.5192 52.9408C51.1051 52.1642 50.2992 51.6758 49.4093 51.6667C48.081 51.6667 47.001 52.7467 47.001 54.075V57.77C46.9951 58.7767 46.3918 59.6767 45.4618 60.065L38.231 63.0967L37.3026 61.2408L44.006 58.2616C44.3068 58.1274 44.501 57.83 44.501 57.5V49.1667H42.8343V56.9592L35.8293 60.0717C35.6218 60.1642 35.4602 60.3375 35.3835 60.5517C35.3068 60.7658 35.321 61.0025 35.4227 61.2059L37.0894 64.5392C37.2852 64.9316 37.7502 65.1033 38.1568 64.935L46.1052 61.6024C47.6526 60.9566 48.6585 59.4566 48.6677 57.7749V54.0749C48.6677 53.6657 49.0002 53.3332 49.401 53.3332C49.6734 53.3357 49.921 53.4857 50.0585 53.7424L57.1085 66.2424C57.2618 66.5124 57.5427 66.6665 57.8352 66.6665C57.961 66.6665 58.0877 66.6382 58.2068 66.5781L61.5401 64.9114C61.9518 64.7059 62.1185 64.205 61.9126 63.7934Z" fill="#46C190"/>
<path d="M39.87 66.3858L36.9117 60.4608C36.8134 60.2633 36.64 60.1125 36.4301 60.0424C36.2201 59.9708 35.9909 59.9882 35.7935 60.0875L32.4602 61.7542C32.2627 61.8533 32.1127 62.0266 32.0427 62.2358C31.9727 62.4458 31.9894 62.6758 32.0885 62.8733L34.9635 68.6134C35.3892 69.4683 36.2458 70 37.2008 70H37.6341C38.5891 70 39.4475 69.4675 39.8707 68.6117C40.2175 67.915 40.2175 67.0833 39.87 66.3858ZM38.38 67.8708C38.2383 68.1557 37.9524 68.3333 37.6342 68.3333H37.2009C36.8834 68.3333 36.5976 68.1557 36.4559 67.8708C36.4559 67.8699 36.4551 67.8691 36.4551 67.8675L33.9534 62.8724L35.7951 61.9507L38.3801 67.1291C38.4958 67.3616 38.4958 67.6384 38.38 67.8708Z" fill="#46C190"/>
<path d="M66.0784 63.7917C65.4117 62.4658 63.7901 61.9242 62.4609 62.5875L57.4609 65.0875C57.0493 65.2933 56.8826 65.7941 57.0885 66.2058L58.7552 69.5392C58.9018 69.8316 59.196 70 59.5018 70C59.6277 70 59.7544 69.9717 59.8735 69.9116L64.8735 67.4116C64.8735 67.4116 64.8744 67.4107 64.8752 67.4107C66.2001 66.745 66.7409 65.1233 66.0784 63.7917ZM64.1275 65.9208L59.8733 68.0483L58.9525 66.2058L63.205 64.0792C63.7126 63.8258 64.3342 64.0334 64.5876 64.5375C64.84 65.045 64.6334 65.665 64.1275 65.9208Z" fill="#46C190"/>
<path d="M39.9175 25.8333C39.2283 25.8333 38.6675 26.3941 38.6675 27.0833C38.6675 27.7724 39.2283 28.3333 39.9175 28.3333C40.6066 28.3333 41.1675 27.7724 41.1675 27.0833C41.1675 26.3941 40.6066 25.8333 39.9175 25.8333ZM39.9175 27.5C39.6875 27.5 39.5008 27.3134 39.5008 27.0833C39.5008 26.8533 39.6874 26.6666 39.9175 26.6666C40.1475 26.6666 40.3342 26.8532 40.3342 27.0833C40.3342 27.3134 40.1475 27.5 39.9175 27.5Z" fill="#46C190"/>
<path d="M65.7767 35.5492C65.6918 35.4367 65.5992 35.3309 65.5001 35.2317C64.9543 34.6893 64.2317 34.3917 63.4626 34.3917C63.4592 34.3917 63.4559 34.3917 63.4517 34.3917C62.68 34.3942 61.9543 34.6976 61.4126 35.2434L57.8909 38.765L54.3084 34.4659L53.0275 35.5326L57.1942 40.5326C57.345 40.7126 57.5633 40.821 57.7975 40.8317C58.03 40.8409 58.2591 40.7542 58.4242 40.5884L62.5933 36.42C62.8233 36.1884 63.1299 36.0592 63.4584 36.0584C63.4591 36.0584 63.4609 36.0584 63.4626 36.0584C63.7876 36.0584 64.0951 36.1843 64.3251 36.4134C64.3675 36.4559 64.4084 36.5018 64.4434 36.5492C64.8085 37.0376 64.7601 37.7301 64.3293 38.1608L60.2085 42.2816C59.5485 42.95 58.6326 43.3333 57.691 43.3333C57.6877 43.3333 57.6884 43.3333 57.681 43.3333C56.4902 43.3333 55.3877 42.7408 54.7235 41.7408L54.3568 41.1991L52.9768 42.1341L53.3393 42.6683C54.3067 44.1292 55.9284 45 57.6784 45C57.6867 45 57.6876 45 57.6918 45C59.0751 45 60.4243 44.4358 61.391 43.4559L65.5077 39.3392C66.5201 38.3259 66.6359 36.6967 65.7767 35.5492Z" fill="#46C190"/>
<path d="M51.8727 42.815C51.7169 42.0542 51.2744 41.3992 50.6536 40.9892L46.0069 37.6475L49.7677 35.3517C49.7777 35.3467 49.7869 35.34 49.7961 35.3342C49.8477 35.3 49.8977 35.2642 49.9486 35.225C50.5628 34.7525 50.9552 34.0691 51.0552 33.3009C51.1545 32.5325 50.9494 31.7717 50.4844 31.1676C49.5594 29.9268 47.8245 29.6292 46.5594 30.4759L40.4219 34.3059C39.3211 35.04 38.6653 36.2692 38.6677 37.5892C38.6661 38.9134 39.3211 40.1417 40.4036 40.8634L47.4052 45.8176C47.901 46.1501 48.4635 46.3093 49.0203 46.3093C49.9086 46.3093 50.7828 45.9034 51.3503 45.1409C51.3861 45.0935 51.4194 45.0468 51.4494 45.0009C51.8777 44.3525 52.0286 43.5759 51.8727 42.815ZM50.017 44.1434C49.6219 44.6733 48.8811 44.8009 48.3495 44.445L41.3469 39.49C40.712 39.0658 40.3328 38.3575 40.3344 37.59C40.3328 36.8259 40.7111 36.1176 41.3253 35.7067L47.4644 31.8759C47.6753 31.7351 47.9144 31.6667 48.1519 31.6667C48.5328 31.6667 48.9094 31.8426 49.1569 32.175C49.3578 32.4358 49.4453 32.76 49.4027 33.0867C49.3602 33.4125 49.1935 33.7034 48.9343 33.9025L44.0669 36.8801C43.8277 37.0259 43.6785 37.281 43.6677 37.5601C43.6578 37.8393 43.7878 38.1051 44.0144 38.2684L49.7086 42.3625C49.9852 42.545 50.1744 42.825 50.2411 43.15C50.3069 43.475 50.2427 43.8059 50.017 44.1434Z" fill="#46C190"/>
<path d="M48.8394 34.1162L46.2717 38.7661L47.7308 39.5717L50.2984 34.9219L48.8394 34.1162Z" fill="#46C190"/>
<path d="M44.5867 42.9616L42.9202 46.2946L44.4108 47.04L46.0773 43.7069L44.5867 42.9616Z" fill="#46C190"/>
<path d="M43.6675 44.1667H36.1675V45.8334H43.6675V44.1667Z" fill="#46C190"/>
<path d="M62.8117 33.1449L61.1892 33.5222L69.5224 69.3569L71.1449 68.9796L62.8117 33.1449Z" fill="#46C190"/>
<path d="M48.6677 30H39.501V31.6667H48.6677V30Z" fill="#46C190"/>
</svg>
