<svg width="100" height="105" viewBox="0 0 100 105" fill="none" xmlns="http://www.w3.org/2000/svg">
<path d="M7.65625 94H6.35938V85.4375H7.65625V94ZM6.25 83.1172C6.25 82.8203 6.32292 82.6042 6.46875 82.4688C6.61458 82.3281 6.79688 82.2578 7.01562 82.2578C7.22396 82.2578 7.40365 82.3281 7.55469 82.4688C7.70573 82.6094 7.78125 82.8255 7.78125 83.1172C7.78125 83.4089 7.70573 83.6276 7.55469 83.7734C7.40365 83.9141 7.22396 83.9844 7.01562 83.9844C6.79688 83.9844 6.61458 83.9141 6.46875 83.7734C6.32292 83.6276 6.25 83.4089 6.25 83.1172ZM16.2656 94V88.4609C16.2656 87.763 16.1068 87.2422 15.7891 86.8984C15.4714 86.5547 14.974 86.3828 14.2969 86.3828C13.401 86.3828 12.7448 86.625 12.3281 87.1094C11.9115 87.5938 11.7031 88.3932 11.7031 89.5078V94H10.4062V85.4375H11.4609L11.6719 86.6094H11.7344C12 86.1875 12.3724 85.862 12.8516 85.6328C13.3307 85.3984 13.8646 85.2812 14.4531 85.2812C15.4844 85.2812 16.2604 85.5312 16.7812 86.0312C17.3021 86.526 17.5625 87.3203 17.5625 88.4141V94H16.2656ZM24.0938 86.4453H21.9141V94H20.6172V86.4453H19.0859V85.8594L20.6172 85.3906V84.9141C20.6172 82.8099 21.5365 81.7578 23.375 81.7578C23.8281 81.7578 24.3594 81.849 24.9688 82.0312L24.6328 83.0703C24.1328 82.9089 23.7057 82.8281 23.3516 82.8281C22.862 82.8281 22.5 82.9922 22.2656 83.3203C22.0312 83.6432 21.9141 84.1641 21.9141 84.8828V85.4375H24.0938V86.4453ZM29.5625 85.2812C29.9427 85.2812 30.2839 85.3125 30.5859 85.375L30.4062 86.5781C30.0521 86.5 29.7396 86.4609 29.4688 86.4609C28.776 86.4609 28.1823 86.7422 27.6875 87.3047C27.1979 87.8672 26.9531 88.5677 26.9531 89.4062V94H25.6562V85.4375H26.7266L26.875 87.0234H26.9375C27.2552 86.4661 27.638 86.0365 28.0859 85.7344C28.5339 85.4323 29.026 85.2812 29.5625 85.2812ZM35.8047 94.1562C34.5391 94.1562 33.5391 93.7708 32.8047 93C32.0755 92.2292 31.7109 91.1589 31.7109 89.7891C31.7109 88.4089 32.0495 87.3125 32.7266 86.5C33.4089 85.6875 34.3229 85.2812 35.4688 85.2812C36.5417 85.2812 37.3906 85.6354 38.0156 86.3438C38.6406 87.0469 38.9531 87.9766 38.9531 89.1328V89.9531H33.0547C33.0807 90.9583 33.3333 91.7214 33.8125 92.2422C34.2969 92.763 34.9766 93.0234 35.8516 93.0234C36.7734 93.0234 37.6849 92.8307 38.5859 92.4453V93.6016C38.1276 93.7995 37.6927 93.9401 37.2812 94.0234C36.875 94.112 36.3828 94.1562 35.8047 94.1562ZM35.4531 86.3672C34.7656 86.3672 34.2161 86.5911 33.8047 87.0391C33.3984 87.487 33.1589 88.1068 33.0859 88.8984H37.5625C37.5625 88.0807 37.3802 87.4557 37.0156 87.0234C36.651 86.5859 36.1302 86.3672 35.4531 86.3672ZM44.4062 93.0703C45.2708 93.0703 45.901 92.8385 46.2969 92.375C46.6927 91.9115 46.9036 91.1302 46.9297 90.0312V89.7422C46.9297 88.5443 46.7266 87.6823 46.3203 87.1562C45.9141 86.6302 45.2708 86.3672 44.3906 86.3672C43.6302 86.3672 43.0469 86.6641 42.6406 87.2578C42.2396 87.8464 42.0391 88.6797 42.0391 89.7578C42.0391 90.8359 42.237 91.6589 42.6328 92.2266C43.0339 92.7891 43.625 93.0703 44.4062 93.0703ZM44.2109 94.1562C43.1068 94.1562 42.2448 93.7682 41.625 92.9922C41.0052 92.2161 40.6953 91.1328 40.6953 89.7422C40.6953 88.3411 41.0078 87.2474 41.6328 86.4609C42.2578 85.6745 43.1276 85.2812 44.2422 85.2812C45.4141 85.2812 46.3151 85.724 46.9453 86.6094H47.0156L47.2031 85.4375H48.2266V97.8438H46.9297V94.1797C46.9297 93.6589 46.9583 93.2161 47.0156 92.8516H46.9141C46.3151 93.7214 45.4141 94.1562 44.2109 94.1562ZM52.2031 85.4375V90.9922C52.2031 91.6901 52.362 92.2109 52.6797 92.5547C52.9974 92.8984 53.4948 93.0703 54.1719 93.0703C55.0677 93.0703 55.7214 92.8255 56.1328 92.3359C56.5495 91.8464 56.7578 91.0469 56.7578 89.9375V85.4375H58.0547V94H56.9844L56.7969 92.8516H56.7266C56.4609 93.2734 56.0911 93.5964 55.6172 93.8203C55.1484 94.0443 54.612 94.1562 54.0078 94.1562C52.9661 94.1562 52.1849 93.9089 51.6641 93.4141C51.1484 92.9193 50.8906 92.1276 50.8906 91.0391V85.4375H52.2031ZM64.4297 94.1562C63.1641 94.1562 62.1641 93.7708 61.4297 93C60.7005 92.2292 60.3359 91.1589 60.3359 89.7891C60.3359 88.4089 60.6745 87.3125 61.3516 86.5C62.0339 85.6875 62.9479 85.2812 64.0938 85.2812C65.1667 85.2812 66.0156 85.6354 66.6406 86.3438C67.2656 87.0469 67.5781 87.9766 67.5781 89.1328V89.9531H61.6797C61.7057 90.9583 61.9583 91.7214 62.4375 92.2422C62.9219 92.763 63.6016 93.0234 64.4766 93.0234C65.3984 93.0234 66.3099 92.8307 67.2109 92.4453V93.6016C66.7526 93.7995 66.3177 93.9401 65.9062 94.0234C65.5 94.112 65.0078 94.1562 64.4297 94.1562ZM64.0781 86.3672C63.3906 86.3672 62.8411 86.5911 62.4297 87.0391C62.0234 87.487 61.7839 88.1068 61.7109 88.8984H66.1875C66.1875 88.0807 66.0052 87.4557 65.6406 87.0234C65.276 86.5859 64.7552 86.3672 64.0781 86.3672ZM75.6562 94V88.4609C75.6562 87.763 75.4974 87.2422 75.1797 86.8984C74.862 86.5547 74.3646 86.3828 73.6875 86.3828C72.7917 86.3828 72.1354 86.625 71.7188 87.1094C71.3021 87.5938 71.0938 88.3932 71.0938 89.5078V94H69.7969V85.4375H70.8516L71.0625 86.6094H71.125C71.3906 86.1875 71.763 85.862 72.2422 85.6328C72.7214 85.3984 73.2552 85.2812 73.8438 85.2812C74.875 85.2812 75.651 85.5312 76.1719 86.0312C76.6927 86.526 76.9531 87.3203 76.9531 88.4141V94H75.6562ZM82.3906 93.0859C82.6198 93.0859 82.8411 93.0703 83.0547 93.0391C83.2682 93.0026 83.4375 92.9661 83.5625 92.9297V93.9219C83.4219 93.9896 83.2135 94.0443 82.9375 94.0859C82.6667 94.1328 82.4219 94.1562 82.2031 94.1562C80.5469 94.1562 79.7188 93.2839 79.7188 91.5391V86.4453H78.4922V85.8203L79.7188 85.2812L80.2656 83.4531H81.0156V85.4375H83.5V86.4453H81.0156V91.4844C81.0156 92 81.138 92.3958 81.3828 92.6719C81.6276 92.9479 81.9635 93.0859 82.3906 93.0859ZM86.5781 94H85.2812V81.8438H86.5781V94ZM87.9688 85.4375H89.3594L91.2344 90.3203C91.6458 91.4349 91.901 92.2396 92 92.7344H92.0625C92.1302 92.4688 92.2708 92.0156 92.4844 91.375C92.7031 90.7292 93.4115 88.75 94.6094 85.4375H96L92.3203 95.1875C91.9557 96.151 91.5286 96.8333 91.0391 97.2344C90.5547 97.6406 89.9583 97.8438 89.25 97.8438C88.8542 97.8438 88.4635 97.7995 88.0781 97.7109V96.6719C88.3646 96.7344 88.6849 96.7656 89.0391 96.7656C89.9297 96.7656 90.5651 96.2656 90.9453 95.2656L91.4219 94.0469L87.9688 85.4375Z" fill="#46C190"/>
<rect x="0.5" y="0.5" width="99" height="99" stroke="#46C190"/>
<path d="M36.8463 43.9454C36.8463 43.9454 46.0254 34.8085 46.0254 27.1807C46.0254 22.1095 41.9158 18 36.8463 18C31.7768 18 27.6672 22.1095 27.6672 27.1807C27.6672 35.2406 36.8463 43.9454 36.8463 43.9454ZM32.0627 27.1807C32.0627 24.5363 34.2051 22.3954 36.8463 22.3954C39.4875 22.3954 41.6299 24.5363 41.6299 27.1807C41.6299 29.8218 39.4875 31.9627 36.8463 31.9627C34.2051 31.9627 32.0627 29.8218 32.0627 27.1807Z" fill="#46C190"/>
<path d="M70.7737 30.4147L70.0281 30.6519L66.0404 31.0076L64.9164 32.8041L64.1026 32.5442L60.9303 29.6854L60.4674 28.1991L59.855 26.6122L57.8587 24.8222L55.5099 24.3625L55.4547 25.4394L57.758 27.6875L58.8853 29.0146L57.615 29.6773L56.582 29.3719L55.0372 28.7287L55.0908 27.4796L53.0604 26.6447L52.3863 29.5749L50.3429 30.0395L50.546 31.6752L53.2066 32.1885L53.6679 29.5749L55.8656 29.9014L56.8873 30.4992H58.5295L59.6503 32.7473L62.6277 35.7669L62.4101 36.9413L60.0093 36.6343L55.8624 38.728L52.8769 42.3097L52.4887 43.895H51.415L49.4187 42.9756L47.4792 43.895L47.9617 45.9433L48.8063 44.9654L50.2893 44.9216L50.1854 46.7603L51.415 47.1177L52.643 48.4983L54.6474 47.9347L56.9377 48.2953L59.5951 49.0116L60.9254 49.1659L63.1735 51.721L67.5186 54.2777L64.7101 59.6477L61.7441 61.0268L60.6184 64.0951L56.3253 66.9621L55.8673 68.6172C66.8363 65.9745 75.0002 56.1213 75.0002 44.3336C75.0034 39.178 73.4441 34.3895 70.7737 30.4147Z" fill="#46C190"/>
<path d="M52.8783 57.3948L51.0591 54.0195L52.7289 50.5337L51.0591 50.0285L49.1813 48.1459L45.0231 47.2152L43.6424 44.3255V46.0424H43.0333L40.3937 42.464C39.1056 44.0055 38.1278 44.9898 38.006 45.11L36.8738 46.2373L35.7157 45.1377C35.4184 44.8518 30.0988 39.753 27.469 33.5562C25.8999 36.8195 25 40.4628 25 44.3255C25 58.1355 36.1932 69.3336 50.0032 69.3336C51.0656 69.3336 52.1084 69.241 53.1398 69.1143L52.8783 66.0866C52.8783 66.0866 54.0267 61.5872 54.0267 61.4361C54.0267 61.2818 52.8783 57.3948 52.8783 57.3948Z" fill="#46C190"/>
<path d="M48.0262 24.1205L49.8666 24.4242L54.3335 24.0052L55.5615 22.6505L57.2963 21.4907L59.7523 21.861L60.6473 21.7262C57.4132 20.2042 53.8137 19.3239 50.003 19.3239C48.2228 19.3239 46.4945 19.5318 44.8198 19.8842C46.1209 21.3055 47.0565 23.0647 47.4545 25.022L48.0262 24.1205ZM51.0589 21.8058L53.6139 20.4008L55.2529 21.3461L52.8781 23.154L50.6138 23.383L49.5921 22.7219L51.0589 21.8058Z" fill="#46C190"/>
</svg>
