<svg width="100" height="105" viewBox="0 0 100 105" fill="none" xmlns="http://www.w3.org/2000/svg">
<rect x="0.5" y="0.5" width="99" height="99" stroke="#46C190"/>
<path d="M13.2266 89.7109C13.2266 91.1068 12.875 92.1979 12.1719 92.9844C11.4688 93.7656 10.4974 94.1562 9.25781 94.1562C8.49219 94.1562 7.8125 93.9766 7.21875 93.6172C6.625 93.2578 6.16667 92.7422 5.84375 92.0703C5.52083 91.3984 5.35938 90.612 5.35938 89.7109C5.35938 88.3151 5.70833 87.2292 6.40625 86.4531C7.10417 85.6719 8.07292 85.2812 9.3125 85.2812C10.5104 85.2812 11.4609 85.6797 12.1641 86.4766C12.8724 87.2734 13.2266 88.3516 13.2266 89.7109ZM6.70312 89.7109C6.70312 90.8047 6.92188 91.638 7.35938 92.2109C7.79688 92.7839 8.4401 93.0703 9.28906 93.0703C10.138 93.0703 10.7812 92.7865 11.2188 92.2188C11.6615 91.6458 11.8828 90.8099 11.8828 89.7109C11.8828 88.6224 11.6615 87.7969 11.2188 87.2344C10.7812 86.6667 10.1328 86.3828 9.27344 86.3828C8.42448 86.3828 7.78385 86.6615 7.35156 87.2188C6.91927 87.776 6.70312 88.6068 6.70312 89.7109ZM18.9297 94.1562C17.6901 94.1562 16.7292 93.776 16.0469 93.0156C15.3698 92.25 15.0312 91.1693 15.0312 89.7734C15.0312 88.3411 15.375 87.2344 16.0625 86.4531C16.7552 85.6719 17.7396 85.2812 19.0156 85.2812C19.4271 85.2812 19.8385 85.3255 20.25 85.4141C20.6615 85.5026 20.9844 85.6068 21.2188 85.7266L20.8203 86.8281C20.5339 86.7135 20.2214 86.6198 19.8828 86.5469C19.5443 86.4688 19.2448 86.4297 18.9844 86.4297C17.2448 86.4297 16.375 87.5391 16.375 89.7578C16.375 90.8099 16.5859 91.6172 17.0078 92.1797C17.4349 92.7422 18.0651 93.0234 18.8984 93.0234C19.612 93.0234 20.3438 92.8698 21.0938 92.5625V93.7109C20.5208 94.0078 19.7995 94.1562 18.9297 94.1562ZM26.5547 94.1562C25.3151 94.1562 24.3542 93.776 23.6719 93.0156C22.9948 92.25 22.6562 91.1693 22.6562 89.7734C22.6562 88.3411 23 87.2344 23.6875 86.4531C24.3802 85.6719 25.3646 85.2812 26.6406 85.2812C27.0521 85.2812 27.4635 85.3255 27.875 85.4141C28.2865 85.5026 28.6094 85.6068 28.8438 85.7266L28.4453 86.8281C28.1589 86.7135 27.8464 86.6198 27.5078 86.5469C27.1693 86.4688 26.8698 86.4297 26.6094 86.4297C24.8698 86.4297 24 87.5391 24 89.7578C24 90.8099 24.2109 91.6172 24.6328 92.1797C25.0599 92.7422 25.6901 93.0234 26.5234 93.0234C27.237 93.0234 27.9688 92.8698 28.7188 92.5625V93.7109C28.1458 94.0078 27.4245 94.1562 26.5547 94.1562ZM36.0234 94L35.7656 92.7812H35.7031C35.276 93.3177 34.849 93.6823 34.4219 93.875C34 94.0625 33.4714 94.1562 32.8359 94.1562C31.987 94.1562 31.3203 93.9375 30.8359 93.5C30.3568 93.0625 30.1172 92.4401 30.1172 91.6328C30.1172 89.9036 31.5 88.9974 34.2656 88.9141L35.7188 88.8672V88.3359C35.7188 87.6641 35.5729 87.1693 35.2812 86.8516C34.9948 86.5286 34.5339 86.3672 33.8984 86.3672C33.1849 86.3672 32.3776 86.5859 31.4766 87.0234L31.0781 86.0312C31.5 85.8021 31.9609 85.6224 32.4609 85.4922C32.9661 85.362 33.4714 85.2969 33.9766 85.2969C34.9974 85.2969 35.7526 85.5234 36.2422 85.9766C36.737 86.4297 36.9844 87.1562 36.9844 88.1562V94H36.0234ZM33.0938 93.0859C33.901 93.0859 34.5339 92.8646 34.9922 92.4219C35.4557 91.9792 35.6875 91.3594 35.6875 90.5625V89.7891L34.3906 89.8438C33.3594 89.8802 32.6146 90.0417 32.1562 90.3281C31.7031 90.6094 31.4766 91.0495 31.4766 91.6484C31.4766 92.1172 31.6172 92.474 31.8984 92.7188C32.1849 92.9635 32.5833 93.0859 33.0938 93.0859ZM45.1875 91.6641C45.1875 92.4609 44.8906 93.0755 44.2969 93.5078C43.7031 93.9401 42.8698 94.1562 41.7969 94.1562C40.6615 94.1562 39.776 93.9766 39.1406 93.6172V92.4141C39.5521 92.6224 39.9922 92.7865 40.4609 92.9062C40.9349 93.026 41.3906 93.0859 41.8281 93.0859C42.5052 93.0859 43.026 92.9792 43.3906 92.7656C43.7552 92.5469 43.9375 92.2161 43.9375 91.7734C43.9375 91.4401 43.7917 91.1562 43.5 90.9219C43.2135 90.6823 42.651 90.401 41.8125 90.0781C41.0156 89.7812 40.4479 89.5234 40.1094 89.3047C39.776 89.0807 39.526 88.8281 39.3594 88.5469C39.1979 88.2656 39.1172 87.9297 39.1172 87.5391C39.1172 86.8411 39.401 86.2917 39.9688 85.8906C40.5365 85.4844 41.3151 85.2812 42.3047 85.2812C43.2266 85.2812 44.1276 85.4688 45.0078 85.8438L44.5469 86.8984C43.6875 86.5443 42.9089 86.3672 42.2109 86.3672C41.5964 86.3672 41.1328 86.4635 40.8203 86.6562C40.5078 86.849 40.3516 87.1146 40.3516 87.4531C40.3516 87.6823 40.4089 87.8776 40.5234 88.0391C40.6432 88.2005 40.8333 88.3542 41.0938 88.5C41.3542 88.6458 41.8542 88.8568 42.5938 89.1328C43.6094 89.5026 44.2943 89.875 44.6484 90.25C45.0078 90.625 45.1875 91.0964 45.1875 91.6641ZM48.6016 94H47.3047V85.4375H48.6016V94ZM47.1953 83.1172C47.1953 82.8203 47.2682 82.6042 47.4141 82.4688C47.5599 82.3281 47.7422 82.2578 47.9609 82.2578C48.1693 82.2578 48.349 82.3281 48.5 82.4688C48.651 82.6094 48.7266 82.8255 48.7266 83.1172C48.7266 83.4089 48.651 83.6276 48.5 83.7734C48.349 83.9141 48.1693 83.9844 47.9609 83.9844C47.7422 83.9844 47.5599 83.9141 47.4141 83.7734C47.2682 83.6276 47.1953 83.4089 47.1953 83.1172ZM58.7422 89.7109C58.7422 91.1068 58.3906 92.1979 57.6875 92.9844C56.9844 93.7656 56.013 94.1562 54.7734 94.1562C54.0078 94.1562 53.3281 93.9766 52.7344 93.6172C52.1406 93.2578 51.6823 92.7422 51.3594 92.0703C51.0365 91.3984 50.875 90.612 50.875 89.7109C50.875 88.3151 51.224 87.2292 51.9219 86.4531C52.6198 85.6719 53.5885 85.2812 54.8281 85.2812C56.026 85.2812 56.9766 85.6797 57.6797 86.4766C58.388 87.2734 58.7422 88.3516 58.7422 89.7109ZM52.2188 89.7109C52.2188 90.8047 52.4375 91.638 52.875 92.2109C53.3125 92.7839 53.9557 93.0703 54.8047 93.0703C55.6536 93.0703 56.2969 92.7865 56.7344 92.2188C57.1771 91.6458 57.3984 90.8099 57.3984 89.7109C57.3984 88.6224 57.1771 87.7969 56.7344 87.2344C56.2969 86.6667 55.6484 86.3828 54.7891 86.3828C53.9401 86.3828 53.2995 86.6615 52.8672 87.2188C52.4349 87.776 52.2188 88.6068 52.2188 89.7109ZM66.8828 94V88.4609C66.8828 87.763 66.724 87.2422 66.4062 86.8984C66.0885 86.5547 65.5911 86.3828 64.9141 86.3828C64.0182 86.3828 63.362 86.625 62.9453 87.1094C62.5286 87.5938 62.3203 88.3932 62.3203 89.5078V94H61.0234V85.4375H62.0781L62.2891 86.6094H62.3516C62.6172 86.1875 62.9896 85.862 63.4688 85.6328C63.9479 85.3984 64.4818 85.2812 65.0703 85.2812C66.1016 85.2812 66.8776 85.5312 67.3984 86.0312C67.9193 86.526 68.1797 87.3203 68.1797 88.4141V94H66.8828ZM76.1172 94L75.8594 92.7812H75.7969C75.3698 93.3177 74.9427 93.6823 74.5156 93.875C74.0938 94.0625 73.5651 94.1562 72.9297 94.1562C72.0807 94.1562 71.4141 93.9375 70.9297 93.5C70.4505 93.0625 70.2109 92.4401 70.2109 91.6328C70.2109 89.9036 71.5938 88.9974 74.3594 88.9141L75.8125 88.8672V88.3359C75.8125 87.6641 75.6667 87.1693 75.375 86.8516C75.0885 86.5286 74.6276 86.3672 73.9922 86.3672C73.2786 86.3672 72.4714 86.5859 71.5703 87.0234L71.1719 86.0312C71.5938 85.8021 72.0547 85.6224 72.5547 85.4922C73.0599 85.362 73.5651 85.2969 74.0703 85.2969C75.0911 85.2969 75.8464 85.5234 76.3359 85.9766C76.8307 86.4297 77.0781 87.1562 77.0781 88.1562V94H76.1172ZM73.1875 93.0859C73.9948 93.0859 74.6276 92.8646 75.0859 92.4219C75.5495 91.9792 75.7812 91.3594 75.7812 90.5625V89.7891L74.4844 89.8438C73.4531 89.8802 72.7083 90.0417 72.25 90.3281C71.7969 90.6094 71.5703 91.0495 71.5703 91.6484C71.5703 92.1172 71.7109 92.474 71.9922 92.7188C72.2786 92.9635 72.6771 93.0859 73.1875 93.0859ZM81.0547 94H79.7578V81.8438H81.0547V94ZM85.1016 94H83.8047V81.8438H85.1016V94ZM86.4922 85.4375H87.8828L89.7578 90.3203C90.1693 91.4349 90.4245 92.2396 90.5234 92.7344H90.5859C90.6536 92.4688 90.7943 92.0156 91.0078 91.375C91.2266 90.7292 91.9349 88.75 93.1328 85.4375H94.5234L90.8438 95.1875C90.4792 96.151 90.0521 96.8333 89.5625 97.2344C89.0781 97.6406 88.4818 97.8438 87.7734 97.8438C87.3776 97.8438 86.987 97.7995 86.6016 97.7109V96.6719C86.888 96.7344 87.2083 96.7656 87.5625 96.7656C88.4531 96.7656 89.0885 96.2656 89.4688 95.2656L89.9453 94.0469L86.4922 85.4375Z" fill="#46C190"/>
<path d="M65.4674 44.8954C65.4707 44.8903 65.4741 44.8857 65.4775 44.8807C65.5051 44.834 65.4652 44.8976 65.4674 44.8954Z" fill="#46C190"/>
<path d="M65.4774 34.8537C65.4745 34.8482 65.4712 34.8432 65.468 34.8378C65.4744 34.849 65.4822 34.863 65.488 34.8735C65.4843 34.8669 65.4809 34.8604 65.4774 34.8537Z" fill="#46C190"/>
<path d="M65.8253 20.4872C65.8644 20.4409 65.7854 20.5331 65.8253 20.4872V20.4872Z" fill="#46C190"/>
<path d="M54.5569 53.151C54.5825 53.1392 54.5764 53.1421 54.5569 53.151V53.151Z" fill="#46C190"/>
<path d="M71.7735 16.898C71.6567 16.6588 71.5399 16.4194 71.4232 16.18C71.0261 16.3853 70.6405 16.6131 70.261 16.849C70.0453 16.9834 69.8319 17.1217 69.6203 17.2626L69.3414 17.4513C69.2559 17.3216 69.1701 17.1921 69.0848 17.0622L69.3603 16.8921C69.5885 16.7535 69.8185 16.6175 70.0508 16.4863C70.4475 16.262 70.8506 16.0464 71.2638 15.8546C71.1845 15.6919 71.105 15.5292 71.0255 15.3666C70.9784 15.2699 70.9314 15.1736 70.8842 15.0772C70.8477 15.0023 70.8613 14.984 70.7806 15.0132C70.057 15.2744 69.3485 15.5754 68.6554 15.9086C66.9831 16.7125 65.357 17.6944 63.9526 18.9131C62.4951 20.1776 61.2006 21.6379 60.3129 23.3635C59.4229 25.094 58.9552 26.9976 58.9284 28.9426C58.9152 29.923 59.0425 30.8853 59.2211 31.8469C59.402 32.8212 59.7307 33.7499 60.0686 34.6786C60.2993 35.3485 60.6618 35.9676 60.915 36.6295C61.0798 37.0602 61.1998 37.4935 61.3028 37.9417C61.3976 38.3545 61.4155 38.8145 61.3667 39.2348C61.319 39.6471 61.179 40.0044 60.9708 40.3599C60.7521 40.7329 60.4186 41.0552 60.0998 41.3428C59.7626 41.6472 59.4005 41.9223 59.0239 42.1758C57.4176 43.2562 55.5886 43.994 53.7595 44.6008C53.7005 44.6204 53.6413 44.6385 53.5823 44.6577L49.823 52.4105C49.8745 52.3934 49.9263 52.3772 49.9778 52.3599C50.8835 52.0585 51.7842 51.7414 52.675 51.3976C53.0572 51.2501 53.4371 51.0977 53.8166 50.943C53.8478 50.9302 53.9211 50.8984 53.9211 50.8984C53.9211 50.8984 53.9704 51.0194 53.9925 51.0691C54.1853 51.5066 54.3779 51.9436 54.5709 52.381C54.6505 52.5614 54.7302 52.7422 54.8096 52.9224C54.8233 52.9535 54.8369 52.985 54.8508 53.0159C54.8514 53.0176 54.5791 53.1414 54.5229 53.1669C54.5357 53.1609 54.5478 53.1555 54.5573 53.1511C54.5474 53.1557 54.5339 53.1618 54.5131 53.1714C53.0189 53.8564 51.4915 54.4698 49.9464 55.0296C49.3905 55.2309 48.8313 55.4236 48.2709 55.612L43.7903 64.8522C44.4704 64.6069 45.1465 64.3507 45.8195 64.0911C47.6127 63.3985 49.3845 62.6499 51.1293 61.8432C54.6754 60.2039 58.1309 58.3275 61.3094 56.0481C64.3471 53.8571 67.2131 51.2495 69.1016 47.976C70.0496 46.3323 70.7409 44.5146 70.9997 42.6292C71.2644 40.7028 71.0829 38.7292 70.4834 36.88C70.0883 35.661 69.5238 34.4815 68.816 33.4117C68.5017 32.9368 68.1707 32.4794 67.8261 32.0265C67.6303 31.7697 67.415 31.5277 67.2027 31.2846C66.8838 30.919 66.6215 30.5025 66.3609 30.0951C65.919 29.4046 65.594 28.6158 65.4334 27.8117C65.2352 26.8193 65.3054 25.8255 65.5666 24.8521C66.0676 22.9854 67.2467 21.3254 68.5455 19.9244C69.3437 19.063 70.2193 18.2699 71.1502 17.5541C71.3358 17.4112 71.524 17.2715 71.715 17.1362C71.8639 17.0303 71.8482 17.0509 71.7735 16.898ZM65.5282 44.7907C65.5282 44.7907 65.5082 44.8286 65.4774 44.8806C65.4703 44.8914 65.4679 44.8949 65.4673 44.8953C64.6328 46.1616 63.6507 47.2767 62.5057 48.2731C61.4266 49.2124 60.2522 50.022 59.0435 50.783C58.6862 50.1747 58.3289 49.566 57.9717 48.9575C59.4866 48.09 60.9602 47.1363 62.2388 45.9386C62.8687 45.3483 63.4277 44.7061 63.9332 44.0072L64.0524 43.8514L65.5282 44.7907ZM65.4682 34.8378C65.4561 34.8162 65.4503 34.8055 65.4775 34.8537C65.5028 34.8994 65.4989 34.8926 65.488 34.8735C66.3518 36.4411 66.9448 38.1746 66.9373 39.9806C66.4153 39.9707 65.893 39.9606 65.3709 39.9507C65.4366 38.6103 65.0873 37.2783 64.5511 36.0587C64.2544 35.3835 63.8778 34.7485 63.5119 34.1094C63.1956 33.5578 62.9207 32.9954 62.6534 32.4189C62.8563 32.3273 63.0592 32.2358 63.2621 32.1444C63.3926 32.0857 63.7587 31.9189 63.7587 31.9189L63.7917 31.9881C64.032 32.4518 64.279 32.9014 64.554 33.3454C64.8615 33.8415 65.1815 34.3296 65.4682 34.8378ZM65.8254 20.4872C64.9172 21.5335 64.1039 22.641 63.5356 23.9125C63.004 25.1026 62.7019 26.3945 62.7229 27.7002C62.3844 27.6953 62.0455 27.6904 61.7068 27.6856C61.7571 25.947 62.3096 24.2623 63.1979 22.7729C63.6492 22.0159 64.1835 21.3193 64.7598 20.6539C64.8986 20.4936 65.0475 20.3417 65.1932 20.1878C65.2457 20.1325 65.4065 19.9537 65.4065 19.9537C65.4065 19.9537 65.736 20.2729 65.8826 20.4134C65.8846 20.4152 65.8861 20.4169 65.8881 20.4186C65.8662 20.4405 65.8454 20.4635 65.8254 20.4872Z" fill="#46C190"/>
<path d="M54.3928 35.9092C54.3928 28.9083 48.6972 23.2126 41.6963 23.2126C34.6956 23.2126 29 28.9083 29 35.9092C29 37.9607 29.4897 39.8997 30.3574 41.6167L41.6963 65.0001L53.0371 41.613C53.9037 39.897 54.3928 37.9591 54.3928 35.9092ZM41.6963 42.9351C37.8221 42.9351 34.6702 39.7833 34.6702 35.9091C34.6702 32.0348 37.8222 28.8828 41.6963 28.8828C45.5705 28.8828 48.7225 32.0349 48.7225 35.9091C48.7224 39.7833 45.5705 42.9351 41.6963 42.9351Z" fill="#46C190"/>
</svg>
