<svg width="101" height="105" viewBox="0 0 101 105" fill="none" xmlns="http://www.w3.org/2000/svg">
<path d="M38.4844 89.7109C38.4844 91.1068 38.1328 92.1979 37.4297 92.9844C36.7266 93.7656 35.7552 94.1562 34.5156 94.1562C33.75 94.1562 33.0703 93.9766 32.4766 93.6172C31.8828 93.2578 31.4245 92.7422 31.1016 92.0703C30.7786 91.3984 30.6172 90.612 30.6172 89.7109C30.6172 88.3151 30.9661 87.2292 31.6641 86.4531C32.362 85.6719 33.3307 85.2812 34.5703 85.2812C35.7682 85.2812 36.7188 85.6797 37.4219 86.4766C38.1302 87.2734 38.4844 88.3516 38.4844 89.7109ZM31.9609 89.7109C31.9609 90.8047 32.1797 91.638 32.6172 92.2109C33.0547 92.7839 33.6979 93.0703 34.5469 93.0703C35.3958 93.0703 36.0391 92.7865 36.4766 92.2188C36.9193 91.6458 37.1406 90.8099 37.1406 89.7109C37.1406 88.6224 36.9193 87.7969 36.4766 87.2344C36.0391 86.6667 35.3906 86.3828 34.5312 86.3828C33.6823 86.3828 33.0417 86.6615 32.6094 87.2188C32.1771 87.776 31.9609 88.6068 31.9609 89.7109ZM44.625 86.4453H42.4453V94H41.1484V86.4453H39.6172V85.8594L41.1484 85.3906V84.9141C41.1484 82.8099 42.0677 81.7578 43.9062 81.7578C44.3594 81.7578 44.8906 81.849 45.5 82.0312L45.1641 83.0703C44.6641 82.9089 44.237 82.8281 43.8828 82.8281C43.3932 82.8281 43.0312 82.9922 42.7969 83.3203C42.5625 83.6432 42.4453 84.1641 42.4453 84.8828V85.4375H44.625V86.4453ZM48.9531 93.0859C49.1823 93.0859 49.4036 93.0703 49.6172 93.0391C49.8307 93.0026 50 92.9661 50.125 92.9297V93.9219C49.9844 93.9896 49.776 94.0443 49.5 94.0859C49.2292 94.1328 48.9844 94.1562 48.7656 94.1562C47.1094 94.1562 46.2812 93.2839 46.2812 91.5391V86.4453H45.0547V85.8203L46.2812 85.2812L46.8281 83.4531H47.5781V85.4375H50.0625V86.4453H47.5781V91.4844C47.5781 92 47.7005 92.3958 47.9453 92.6719C48.1901 92.9479 48.526 93.0859 48.9531 93.0859ZM55.4609 94.1562C54.1953 94.1562 53.1953 93.7708 52.4609 93C51.7318 92.2292 51.3672 91.1589 51.3672 89.7891C51.3672 88.4089 51.7057 87.3125 52.3828 86.5C53.0651 85.6875 53.9792 85.2812 55.125 85.2812C56.1979 85.2812 57.0469 85.6354 57.6719 86.3438C58.2969 87.0469 58.6094 87.9766 58.6094 89.1328V89.9531H52.7109C52.737 90.9583 52.9896 91.7214 53.4688 92.2422C53.9531 92.763 54.6328 93.0234 55.5078 93.0234C56.4297 93.0234 57.3411 92.8307 58.2422 92.4453V93.6016C57.7839 93.7995 57.349 93.9401 56.9375 94.0234C56.5312 94.112 56.0391 94.1562 55.4609 94.1562ZM55.1094 86.3672C54.4219 86.3672 53.8724 86.5911 53.4609 87.0391C53.0547 87.487 52.8151 88.1068 52.7422 88.8984H57.2188C57.2188 88.0807 57.0365 87.4557 56.6719 87.0234C56.3073 86.5859 55.7865 86.3672 55.1094 86.3672ZM66.6875 94V88.4609C66.6875 87.763 66.5286 87.2422 66.2109 86.8984C65.8932 86.5547 65.3958 86.3828 64.7188 86.3828C63.8229 86.3828 63.1667 86.625 62.75 87.1094C62.3333 87.5938 62.125 88.3932 62.125 89.5078V94H60.8281V85.4375H61.8828L62.0938 86.6094H62.1562C62.4219 86.1875 62.7943 85.862 63.2734 85.6328C63.7526 85.3984 64.2865 85.2812 64.875 85.2812C65.9062 85.2812 66.6823 85.5312 67.2031 86.0312C67.724 86.526 67.9844 87.3203 67.9844 88.4141V94H66.6875Z" fill="#46C190"/>
<rect x="1.5" y="0.5" width="99" height="99" stroke="#46C190"/>
<path d="M50.9832 25C42.7003 25 36 31.7003 36 39.9832C36 44.2929 38.1549 48.1987 40.2761 51.8013C42.8687 56.2798 45.9663 60.4545 49.569 64.1582C50.3434 64.966 51.6232 64.966 52.431 64.1582C55.596 61.0269 58.3906 57.4916 60.7475 53.7205C63.2727 49.6461 66 44.9323 66 39.9832C65.9663 31.734 59.266 25 50.9832 25ZM50.9832 48.67C45.9663 48.67 41.8923 44.596 41.8923 39.5791C41.8923 34.5623 45.9663 30.4882 50.9832 30.4882C56 30.4882 60.0741 34.5286 60.0741 39.5791C60.0741 44.6296 56 48.67 50.9832 48.67Z" fill="#46C190"/>
</svg>
