<svg width="30" height="30" viewBox="0 0 30 30" fill="none" xmlns="http://www.w3.org/2000/svg">
<g clip-path="url(#clip0)">
<path d="M13.1363 6.80136C13.293 6.80136 13.4408 6.72737 13.5344 6.6017C13.6283 6.47602 13.6574 6.31372 13.6128 6.1633C13.2566 4.94709 12.6411 3.82259 11.8082 2.86767C11.1372 2.15367 10.1384 1.84798 9.18271 2.06414C9.05073 2.11461 8.94665 2.21893 8.89619 2.35091C8.86877 2.42515 8.84839 2.50181 8.83554 2.57993C8.82025 2.67261 8.812 2.76626 8.81055 2.86015V2.86815C8.81661 3.66052 9.13589 4.41844 9.69899 4.9762C10.6539 5.80836 11.7777 6.42362 12.9932 6.77953C13.0397 6.79336 13.0878 6.80088 13.1363 6.80136ZM10.4035 4.27263C10.2063 4.07514 10.0515 3.83908 9.94839 3.57949V3.57464C9.92656 3.51957 9.90763 3.46425 9.89138 3.41112C9.88289 3.38225 9.87682 3.35508 9.86954 3.32669C9.86202 3.2983 9.85547 3.27695 9.85062 3.25221C9.84553 3.22722 9.84455 3.21727 9.84116 3.19956C9.8266 3.12532 9.81641 3.05036 9.81083 2.9749C10.3009 3.01202 10.7611 3.22358 11.1086 3.57124C11.6025 4.12973 12.0006 4.7661 12.2867 5.45487C11.5972 5.16786 10.9598 4.76828 10.4011 4.27263H10.4035Z" fill="black" fill-opacity="0.21"/>
<path d="M28.3851 7.14418H20.7154C21.0471 6.91758 21.3586 6.66259 21.6461 6.38238C23.4234 4.59967 23.4817 1.89674 22.3462 0.761322C21.2108 -0.374097 18.5089 -0.316841 16.7242 1.46247C15.9944 2.25678 15.4015 3.16657 14.9697 4.15496C14.5378 3.16584 13.9444 2.25556 13.2139 1.46101C11.4312 -0.316356 8.72849 -0.374582 7.59283 0.760837C6.45692 1.89626 6.51564 4.59919 8.29325 6.38238C8.58098 6.66259 8.8925 6.91758 9.2239 7.14418H1.55424C1.27985 7.14418 1.05737 7.36665 1.05737 7.64104V12.6097C1.05737 12.8841 1.27985 13.1066 1.55424 13.1066H2.54798V27.5157C2.54967 28.887 3.66107 29.9984 5.03231 30.0001H24.907C26.2785 29.9984 27.3899 28.887 27.3913 27.5157V13.1066H28.3851C28.6595 13.1066 28.8819 12.8841 28.8819 12.6097V7.64104C28.8819 7.36665 28.6595 7.14418 28.3851 7.14418ZM17.4273 2.16458C18.8553 0.740943 20.9381 0.75744 21.6441 1.46344C22.3501 2.16944 22.3671 4.25128 20.9435 5.67978C20.2916 6.28242 19.5472 6.77662 18.7389 7.14418H15.7698C15.7698 7.13374 15.7698 7.12234 15.7698 7.11191C15.7698 6.99861 15.7613 6.88385 15.7504 6.76837C15.7463 6.73028 15.7419 6.69243 15.7375 6.65362C15.7261 6.55827 15.712 6.46317 15.6951 6.36855C15.6897 6.33531 15.6841 6.30183 15.6783 6.26908C15.6545 6.14535 15.6286 6.02356 15.5987 5.90589C15.5949 5.88891 15.5903 5.87411 15.5864 5.85615C15.5599 5.75329 15.5328 5.65745 15.5049 5.55823C15.501 5.54464 15.4973 5.52984 15.4935 5.51626C15.9006 4.27797 16.559 3.13673 17.4273 2.16458ZM16.9571 12.1128H12.9822V8.13791H16.9571V12.1128ZM8.99633 5.68026C7.57245 4.25177 7.58919 2.16992 8.29543 1.46344C9.00143 0.756955 11.0833 0.740458 12.5108 2.16313C13.4148 3.17579 14.0924 4.36992 14.4983 5.66546C14.5543 5.8399 14.5975 6.0073 14.6383 6.16985C14.6497 6.21643 14.6591 6.26156 14.6691 6.30741C14.696 6.42872 14.7176 6.54444 14.7338 6.65531C14.7392 6.69292 14.7462 6.73174 14.7506 6.76837C14.7663 6.89234 14.7748 7.01729 14.7761 7.14223H11.2005C10.3926 6.77541 9.64847 6.28194 8.99633 5.68026ZM2.05111 8.13791H11.9885V12.1128H2.05111V8.13791ZM3.54171 27.5157V13.1066H12.9822V29.0063H5.03231C4.20913 29.0063 3.54171 28.3389 3.54171 27.5157ZM13.9759 29.0063V13.1066H15.9634V29.0063H13.9759ZM26.3976 27.5157C26.3976 28.3389 25.7304 29.0063 24.907 29.0063H16.9571V13.1066H26.3976V27.5157ZM27.8882 12.1128H17.9509V8.13791H27.8882V12.1128Z" fill="black" fill-opacity="0.21"/>
<path d="M16.8016 6.80281C16.8494 6.80281 16.8969 6.79602 16.9428 6.78243C18.1597 6.42676 19.2847 5.81029 20.2394 4.97571C20.9463 4.29955 21.2511 3.30485 21.0444 2.34872C20.9944 2.21722 20.8903 2.11338 20.7588 2.06316C19.8027 1.85646 18.808 2.16118 18.1318 2.86815C17.2975 3.82282 16.681 4.94781 16.3251 6.16474C16.2807 6.31516 16.3096 6.47771 16.4035 6.60314C16.4974 6.72882 16.6449 6.80281 16.8016 6.80281ZM18.8344 3.57075C19.1823 3.22333 19.643 3.01201 20.1331 2.97441C20.096 3.46473 19.8844 3.92569 19.537 4.27359C18.978 4.77094 18.3397 5.17125 17.6488 5.45826C17.936 4.76731 18.3368 4.12948 18.8344 3.57075Z" fill="black" fill-opacity="0.21"/>
</g>
<defs>
<clipPath id="clip0">
<rect width="30" height="30" fill="white"/>
</clipPath>
</defs>
</svg>
