<svg width="24" height="30" viewBox="0 0 24 30" fill="none" xmlns="http://www.w3.org/2000/svg">
<path d="M11.9995 3.75C7.86326 3.75 4.49951 7.11498 4.49951 11.25C4.49951 15.3863 7.86326 18.75 11.9995 18.75C16.1358 18.75 19.4995 15.3863 19.4995 11.25C19.4995 7.11375 16.1358 3.75 11.9995 3.75Z" fill="#46C190"/>
<path d="M23.2108 29.1562L19.597 19.5225C21.8358 17.465 23.2495 14.5225 23.2495 11.25C23.2495 5.0475 18.2032 0 11.9995 0C5.79578 0 0.749512 5.04873 0.749512 11.25C0.749512 14.5238 2.16326 17.465 4.40201 19.5225L0.789531 29.155C0.699531 29.3962 0.764512 29.6675 0.955762 29.8387C1.07453 29.945 1.22324 30 1.37453 30C1.46951 30 1.56455 29.9787 1.65455 29.9337L6.32957 27.5963L9.77834 29.895C9.93584 30 10.1358 30.0263 10.3171 29.97C10.4996 29.9112 10.6446 29.7725 10.7096 29.595L12.0759 25.9538L13.2821 29.5725C13.3446 29.7575 13.4884 29.9025 13.6734 29.9663C13.8571 30.0288 14.0608 30.0037 14.2221 29.895L17.6709 27.5963L22.3459 29.9337C22.4347 29.9775 22.5296 30 22.6259 30C22.7771 30 22.9259 29.945 23.0447 29.84C23.2345 29.6675 23.3008 29.3975 23.2108 29.1562ZM7.18703 21.4387L7.12076 21.3725C7.14953 21.3862 7.17824 21.4 7.20701 21.4137C7.19951 21.42 7.19453 21.43 7.18703 21.4387ZM16.5082 20.1637L13.7307 21.09C13.167 21.1887 12.5907 21.25 11.9995 21.25C6.48572 21.25 1.99943 16.7638 1.99943 11.25C1.99943 5.73621 6.48578 1.24998 11.9995 1.24998C17.5132 1.24998 21.9995 5.73627 21.9995 11.25C21.9995 15.1425 19.7608 18.5125 16.5082 20.1637Z" fill="#46C190"/>
<path d="M12 5.16669C8.78002 5.16669 6.16669 7.78002 6.16669 11C6.16669 14.22 8.78002 16.8334 12 16.8334C15.22 16.8334 17.8334 14.22 17.8334 11C17.8334 7.78002 15.22 5.16669 12 5.16669ZM11.4167 15.6259C9.11252 15.34 7.33335 13.38 7.33335 11C7.33335 10.6384 7.38002 10.2942 7.45585 9.95585L10.25 12.75V13.3334C10.25 13.975 10.775 14.5 11.4167 14.5V15.6259ZM15.4417 14.1442C15.29 13.6717 14.8584 13.3334 14.3334 13.3334H13.75V11.5834C13.75 11.2625 13.4875 11 13.1667 11H9.66669V9.83335H10.8334C11.1542 9.83335 11.4167 9.57085 11.4167 9.25002V8.08335H12.5834C13.225 8.08335 13.75 7.55835 13.75 6.91669V6.67752C15.4592 7.37169 16.6667 9.04585 16.6667 11C16.6667 12.2134 16.2 13.3159 15.4417 14.1442Z" fill="white"/>
</svg>
